<svg xmlns="http://www.w3.org/2000/svg" width="48" height="48" viewBox="0 0 48 48">
  <path id="Vanlifezone-Logo-v3_vanlifezone-logo-black" d="M397.912,427.479a5.254,5.254,0,0,1-.275-3.207,1.3,1.3,0,0,1,1.5-1.043c1.389.072,2.9.348,4.287.432a14.3,14.3,0,0,0,2.7-.063,2.233,2.233,0,0,0,.877-.229.53.53,0,0,0,.11-.778,2.213,2.213,0,0,0-1.1-.672,7.732,7.732,0,0,0-3.355-.132c-.949.117-2.312.083-3.272.11a4.7,4.7,0,0,1-.533-.022c-.814-.068-1.17-.522-1.173-1.44,0-.121.019-.242.033-.419a4.817,4.817,0,0,1,.66-1.911,1.362,1.362,0,0,1,1.889-.712,12.434,12.434,0,0,1,2,.942,44.873,44.873,0,0,0,5.185,2.226,6.233,6.233,0,0,1,2.091,1.135,2.8,2.8,0,0,1,.394.545,2.732,2.732,0,0,1,.212,2.381,2.282,2.282,0,0,1-.98,1,11.576,11.576,0,0,1-2.968,1.2c-1.5.422-3.007.821-4.517,1.208a13.251,13.251,0,0,1-2.307.36A1.349,1.349,0,0,1,397.912,427.479Zm2.4-15.6a4.006,4.006,0,0,1,1.666-2.457,3.907,3.907,0,0,1,2.684-.588A11.226,11.226,0,0,1,408.1,410.1a29.492,29.492,0,0,1,4.512,2.85,3.893,3.893,0,0,1,1.13.99,1.616,1.616,0,0,1,.1,1.527,3.76,3.76,0,0,1-1.729,1.74,1.2,1.2,0,0,1-1.227-.174,5.6,5.6,0,0,1-1.431-1.163,1.578,1.578,0,0,0-.938-.649.9.9,0,0,0-.98.857.63.63,0,0,0,.211.377,2.447,2.447,0,0,0,1.013.478,19.151,19.151,0,0,1,1.954.7c.731.347.92.824.538,1.535-.768,1.431-1.244,1.64-2.6,1.124-1.67-.636-3.915-3.261-4.789-4.021s-2.7-1.956-2.7-1.956A2.162,2.162,0,0,1,400.308,411.882Zm3.264.929a4.754,4.754,0,0,0,1.357,1.732c.558.524.911.477,1.259-.22a.542.542,0,0,0-.115-.643,4.05,4.05,0,0,0-1.972-1.128C403.575,412.46,403.536,412.679,403.572,412.811Zm30.565-.616a25.642,25.642,0,0,0-2.362,2.949,3.817,3.817,0,0,0-.615,1.5,3.205,3.205,0,0,0,1.13,2.368.85.85,0,0,0,1.373-.241c.375-.684,1.1-2.441,1.1-2.441.124-.312.341-.417.517-.166s.574.9.728,1.153a.52.52,0,0,0,.687.287,2.546,2.546,0,0,0,1.275-1.039.86.86,0,0,0,.181-.93,12,12,0,0,0-.766-1.331.7.7,0,0,1-.016-.748,3.12,3.12,0,0,1,1.159-1.215c.988-.614.968.877.918,1.441-.053.6-.05,1.658-.05,1.658.024.735.358,1.147,1.191,1.039a3.44,3.44,0,0,0,2.578-1.417,1.508,1.508,0,0,0,.136-1.467,14.82,14.82,0,0,0-2.194-3.49,7.362,7.362,0,0,0-1.342-1.437,1.773,1.773,0,0,0-1.6-.511,2.689,2.689,0,0,0-.962.689c-1.083,1.059-2.058,2.224-3.073,3.349Zm-24.642-3.9a29.656,29.656,0,0,1,2.537,2.828,15.522,15.522,0,0,0,1.83,1.962,3.242,3.242,0,0,0,1.858.735,1.334,1.334,0,0,0,1.334-1.052c.077-.418.234-1.38-1.819-2.342-1.309-.613-2.188-1.235-2.168-2.194a.553.553,0,0,1,.108-.357.548.548,0,0,1,.738-.027,3.707,3.707,0,0,1,.653.537c1.043,1.021,1.762,2,2.85,2.968.59.523,1.21,1.1,1.978.988a1.193,1.193,0,0,0,1.092-.878,7.085,7.085,0,0,0,.312-2.216,19.1,19.1,0,0,0-.172-3.2,11.766,11.766,0,0,0-1.152-4.058,3.95,3.95,0,0,0-1.407-1.608,5.039,5.039,0,0,0-3.505.423c-.62.331-.576,1.052-.065,1.587a27.663,27.663,0,0,1,2.94,2.875,2.123,2.123,0,0,1,.369.971.47.47,0,0,1-.541.512,1.131,1.131,0,0,1-.286-.1,6.4,6.4,0,0,1-1.389-.918c-.673-.578-1.341-1.165-2.06-1.673a5.109,5.109,0,0,0-2.818-1.235,5.223,5.223,0,0,0-3.214,1.48c-.655.643-.857,1.138-.363,1.938A18.909,18.909,0,0,0,409.495,408.293Zm18.314,4.063s-.911.791-.239,1.451a8.8,8.8,0,0,0,2.1,1.675c.5.28,1.22.091,1.665-.994.366-.892.547-1.295.971-2.161a20.5,20.5,0,0,1,2.971-4.363,16.118,16.118,0,0,1,1.255-1.211c.408-.376.778-.884.274-1.435a9.741,9.741,0,0,0-2.253-1.721c-.407-.2-1.139-.243-1.584.841a29.058,29.058,0,0,1-2.163,4.156A17.1,17.1,0,0,1,427.809,412.355ZM422.323,412a24.948,24.948,0,0,0,2.562.661,2.715,2.715,0,0,0,2.145-.406,7.374,7.374,0,0,0,2.147-3.495,5.51,5.51,0,0,0,.22-1.565.8.8,0,0,0-.675-.787c-.744-.062-1.448.927-1.7,1.242a1.9,1.9,0,0,1-1.735.911c-.512-.17-.851-1.006-.256-2.167a24.153,24.153,0,0,1,2.368-3.7,1.2,1.2,0,0,0,.034-1.681,3.027,3.027,0,0,0-.866-.54,6.664,6.664,0,0,0-2.65-.472c-.937.05-1.473.265-1.47,1.682,0,1.022-.028,1.2-.054,2.228a49.964,49.964,0,0,1-.74,5.442c-.226,1.667-.279,2.279.673,2.642Zm17.552,20.175c-.742-.341-1.317.054-1.383.892a5.819,5.819,0,0,0,.006.787c.028.485.069.969.105,1.454a7.2,7.2,0,0,1-.107,1.482.962.962,0,0,1-1.54.754,2.2,2.2,0,0,1-.666-.666.7.7,0,0,1,.062-1.015c.191-.215.4-.416.6-.62a7.713,7.713,0,0,0,.723-.74.6.6,0,0,0,.016-.733,3.134,3.134,0,0,0-1.441-1.306.786.786,0,0,0-1.048.3,4.416,4.416,0,0,0-.257.453,4.175,4.175,0,0,1-.513.8.71.71,0,0,1-1.019.118,6.8,6.8,0,0,1-.6-.476.823.823,0,0,1,.026-1.292,3.637,3.637,0,0,1,1.119-.483c.426-.13.852-.258,1.275-.4a1.346,1.346,0,0,0,.76-.529.645.645,0,0,0,.055-.707A3.967,3.967,0,0,0,433.6,428.3a1.133,1.133,0,0,0-1.386.438,5.873,5.873,0,0,0-.374.512,23.646,23.646,0,0,1-1.855,2.79,4.225,4.225,0,0,0-.659,1.119,1.087,1.087,0,0,0,.038.956,7.613,7.613,0,0,0,.681,1c.985,1.209,1.995,2.394,3.053,3.536.666.719,1.319,1.451,1.983,2.171a3.23,3.23,0,0,0,1.093.821,1.681,1.681,0,0,0,1.9-.179,15.907,15.907,0,0,0,3.555-4.54,3.346,3.346,0,0,0,.461-1.986A3.431,3.431,0,0,0,439.875,432.173Zm2.436-4.68a2.476,2.476,0,1,0,2.505,2.386A2.451,2.451,0,0,0,442.311,427.493Zm2.749-8.007a5.628,5.628,0,0,0-.778-1.9,1.613,1.613,0,0,0-1.059-.7,5.36,5.36,0,0,0-1.756.166,32.142,32.142,0,0,0-4.836,1.725,12.466,12.466,0,0,0-2.57,1.3,2.272,2.272,0,0,0-.887,1.647,20.412,20.412,0,0,0-.267,2.539,14.83,14.83,0,0,0,.013,1.967.806.806,0,0,0,.614.768,5.575,5.575,0,0,0,2.119.157.906.906,0,0,0,.815-.733,1.5,1.5,0,0,0-.078-.992c-.2-.488-.414-.973-.614-1.463a1.989,1.989,0,0,1-.157-.934.892.892,0,0,1,.536-.789.476.476,0,0,1,.74.345c.062.312.093.631.167.94.135.56.315.732.87.635a4.868,4.868,0,0,0,1.574-.6,1.032,1.032,0,0,0,.52-1.1,6.992,6.992,0,0,0-.122-.83c-.065-.433.072-.581.466-.752a2.193,2.193,0,0,1,.709-.174c.509-.039,1.168.28,1.182.812a3.378,3.378,0,0,1-.5,1.665c-.35.672-.82,1.272-1.12,1.975-.288.674-.29,1.233.522,1.478a4.761,4.761,0,0,0,3.354-.275,1.035,1.035,0,0,0,.6-.655,4.6,4.6,0,0,0,.209-1.077c.033-.209.077-.417.1-.628A11.554,11.554,0,0,0,445.06,419.486Zm-13.432,18.77a11.427,11.427,0,0,0-3.013-3.215,2.521,2.521,0,0,0-2.032-.489,1.217,1.217,0,0,0-.881,1.595,2.972,2.972,0,0,0,1.143,1.7c.547.452,1.162.8,1.721,1.224A4.928,4.928,0,0,1,430,440.89a1.456,1.456,0,0,1,.19.936.554.554,0,0,1-.815.346,2.013,2.013,0,0,1-.639-.517,26.391,26.391,0,0,1-2.7-3.781,15.1,15.1,0,0,0-1.167-1.7,2.276,2.276,0,0,0-3.062-.393.99.99,0,0,0-.482,1,4.386,4.386,0,0,0,.164.821,11.46,11.46,0,0,1,.539,3.415,21.922,21.922,0,0,1-.41,2.919,9.578,9.578,0,0,0-.16,2.762,1.294,1.294,0,0,0,1.207,1.258,9.189,9.189,0,0,0,1.347.032,4.2,4.2,0,0,0,1.827-.417,1.125,1.125,0,0,0,.567-1.544,3.376,3.376,0,0,0-.607-.936,9.2,9.2,0,0,1-1.39-2.068,3.9,3.9,0,0,1-.385-1.229h0s-.115-.592.181-.726a.474.474,0,0,1,.539.144c.366.359.6,1.59,1.468,2.956,0,0,1.293,2.206,3.067,2.479a4.368,4.368,0,0,0,2.777-.85,3.637,3.637,0,0,0,1.353-4.565A14,14,0,0,0,431.628,438.256Zm-21.758.579a1.73,1.73,0,0,0-.307.04c-.321.07-.641.148-.962.217a5.08,5.08,0,0,1-1.7.192c-.139-.017-.289-.019-.354-.185s.038-.279.12-.393a1.965,1.965,0,0,1,.7-.573,29.529,29.529,0,0,1,4.147-1.716,10.953,10.953,0,0,0,2.974-1.353,1.35,1.35,0,0,0,.556-1.582,2.193,2.193,0,0,0-.719-.9,11.552,11.552,0,0,1-1.8-1.822c-.286-.4-.6-.768-.895-1.156a1.406,1.406,0,0,0-1.687-.5,7.219,7.219,0,0,0-2.126,1.04,1.829,1.829,0,0,0-.651.745.612.612,0,0,0,.392.893,2.52,2.52,0,0,0,.722.108c.563.007,1.125.023,1.688.035a2.857,2.857,0,0,1,.8.14c.12.05.276.08.281.244s-.142.213-.256.276a3.123,3.123,0,0,1-1.113.284c-1.182.16-2.377.15-3.562.286a11.394,11.394,0,0,0-3.285.752,1.979,1.979,0,0,0-1.21,2.456,6.412,6.412,0,0,0,.549,1.455,12.282,12.282,0,0,0,3.364,4.078,6.024,6.024,0,0,0,2.42,1.25,1.514,1.514,0,0,0,1.588-.5,6.324,6.324,0,0,0,1.353-2.51A.948.948,0,0,0,409.87,438.835Zm11.174.012a10.112,10.112,0,0,1-.047,1.361,18.42,18.42,0,0,1-1,4.647,5.964,5.964,0,0,1-1.1,1.9,3.811,3.811,0,0,1-2.5,1.193,4.2,4.2,0,0,1-3.72-1.31,4.074,4.074,0,0,1-.913-1.425,6.028,6.028,0,0,1-.227-2.925,11.369,11.369,0,0,1,3.307-6.866,5.743,5.743,0,0,1,1.577-1.046,3.026,3.026,0,0,1,3.536,1.085,6.126,6.126,0,0,1,1.081,3.386Zm-3.195-.9a.632.632,0,0,0-.476-.524.931.931,0,0,0-.717.335,4.985,4.985,0,0,0-1.114,2.09,4.6,4.6,0,0,0-.2,1.856.63.63,0,0,0,.952.536,1.574,1.574,0,0,0,.493-.379,5.06,5.06,0,0,0,1.117-2.847A3.042,3.042,0,0,0,417.85,437.949Zm-14.28-6.729a2.421,2.421,0,1,0-2.331,2.562A2.445,2.445,0,0,0,403.57,431.22Z" transform="translate(-397.5 -399.998)" fill="#302c2c"/>
</svg>
