<svg width="103" height="103" viewBox="0 0 103 103" fill="none" xmlns="http://www.w3.org/2000/svg">
<g id="Vanlifezone-Logo-Black 1" clip-path="url(#clip0_288_179)">
<path id="Vector" d="M0.889034 58.9673C0.0257141 56.7356 -0.273456 54.4353 0.299241 52.0835C0.692436 50.4698 1.82928 49.7574 3.52173 49.8432C6.50488 49.9977 9.74447 50.59 12.7191 50.7702C14.6509 50.8904 16.5826 50.8818 18.5059 50.6329C19.2324 50.5385 19.7453 50.487 20.3864 50.1436C20.8309 49.9033 21.1215 49.105 20.6257 48.4699C19.7709 47.3798 18.258 47.0279 18.258 47.0279C16.0612 46.2468 13.3003 46.47 11.0608 46.7446C9.02646 46.9935 6.10314 46.9249 4.04314 46.985C3.65849 46.9936 3.28239 46.9678 2.89775 46.9421C1.15401 46.7961 0.384718 45.8262 0.376171 43.852C0.376171 43.5945 0.418909 43.337 0.444552 42.9508C0.769366 41.1225 1.06854 40.1526 1.86347 38.848C2.94049 37.0712 3.93202 36.7021 5.91509 37.3201C7.27418 37.7407 8.98372 38.6677 10.206 39.3372C13.6166 41.2084 17.7195 42.7019 21.3352 44.1096C22.8994 44.719 24.5919 45.3713 25.8227 46.5472C26.0706 46.7875 26.5151 47.4141 26.6689 47.7146C27.6861 49.7231 27.7289 51.4483 27.122 52.8216C26.6177 53.9804 25.6432 54.5898 25.0192 54.976C23.0447 56.1863 20.865 56.9245 18.6512 57.551C15.4287 58.4609 12.1977 59.3106 8.95808 60.1432C7.45368 60.5295 5.55609 60.8213 4.00895 60.9157C2.53874 61.0187 1.43609 60.3921 0.889034 58.9673ZM6.02621 25.5009C6.59891 23.3379 7.68447 21.4753 9.59916 20.2307C11.3002 19.1235 13.6593 18.617 15.3603 18.969C17.9246 19.2436 20.8223 20.7371 22.737 21.6813C26.3527 23.4752 29.1563 25.4065 32.4216 27.7926C33.6695 28.711 34.2337 29.0115 34.8491 29.9127C35.456 30.8054 35.55 32.1873 35.0628 33.1915C34.285 34.7795 32.9002 36.23 31.3531 36.9253C30.3787 37.363 29.635 37.097 28.7204 36.5476C27.2758 35.6807 26.8143 35.2515 25.6518 34.0499C25.2329 33.6121 24.6688 32.7795 23.6431 32.6594C22.5404 32.5306 21.4634 33.552 21.5403 34.4962C21.566 34.7966 21.7882 35.1228 21.9933 35.303C22.7028 35.9125 23.0704 35.9468 24.1645 36.3245C25.5663 36.8137 27.0109 37.1914 28.3614 37.8265C29.9256 38.5733 30.3359 39.5947 29.5153 41.1225C27.8656 44.1954 26.8485 44.6417 23.9422 43.5345C20.3607 42.1697 15.5398 36.539 13.6679 34.9082C11.7959 33.2774 7.87252 30.711 7.87252 30.711C6.257 29.5694 5.43642 27.7497 6.02621 25.5009ZM13.0268 27.4922C13.3858 28.814 14.9586 30.2904 15.9416 31.2088C17.1382 32.3332 17.899 32.2302 18.6426 30.7367C18.882 30.2475 18.7794 29.7925 18.3948 29.3548C17.3348 28.1445 15.5227 27.2433 14.1636 26.9343C13.0353 26.7455 12.9499 27.209 13.0268 27.4922ZM78.6134 26.1704C76.8013 28.1789 75.049 30.2389 73.5446 32.4963C73.0403 33.2516 72.2967 34.6936 72.2283 35.715C72.2283 35.715 72.006 38.2042 74.6558 40.7964C74.6558 40.7964 76.468 42.3585 77.6048 40.2814C78.4083 38.8136 79.9725 35.0455 79.9725 35.0455C80.2375 34.376 80.7076 34.1529 81.0837 34.6936C81.4513 35.2086 82.3146 36.6249 82.6479 37.1656C83.0326 37.8008 83.4514 37.9982 84.1182 37.7836C85.2892 37.4145 86.1269 36.5734 86.8534 35.552C87.3321 34.8825 87.5714 34.3331 87.2466 33.552C86.9475 32.8482 86.0243 31.329 85.6055 30.6938C85.2635 30.1702 85.2977 29.5865 85.5713 29.0887C86.144 28.0501 86.8449 27.2347 88.0586 26.4794C90.1785 25.1661 90.1357 28.3591 90.0246 29.5694C89.9135 30.8569 89.9135 33.1315 89.9135 33.1315C89.9648 34.7108 90.6828 35.5949 92.4693 35.3631C94.8284 35.0541 96.7175 34.1958 97.9996 32.3246C98.598 31.4577 98.7689 30.3333 98.2903 29.1745C97.0936 26.2562 95.4781 24.1533 93.5805 21.6813C92.7172 20.5569 91.8282 19.4582 90.6999 18.5999C89.6998 17.836 88.5117 17.072 87.2723 17.5012C86.4602 17.7845 85.8192 18.3767 85.2037 18.9775C82.8873 21.2607 80.7931 23.7585 78.6134 26.1704ZM25.7372 17.8016C28.1477 20.2393 29.2675 21.4667 31.1821 23.87C32.4045 25.3979 33.6524 26.7884 35.1055 28.0845C35.1055 28.0845 37.1655 29.784 39.0888 29.6638C40.6017 29.5694 41.7129 28.7196 41.9523 27.4064C42.1147 26.5051 42.4566 24.4451 38.046 22.3765C35.2338 21.0633 33.3533 19.7243 33.396 17.6729C33.4046 17.4325 33.4216 17.175 33.6268 16.909C33.7892 16.6944 34.3704 16.3425 35.2081 16.8489C35.721 17.1665 36.1655 17.5699 36.6099 17.999C38.8494 20.1878 40.388 22.2993 42.7216 24.3679C43.9866 25.4923 45.3201 26.7369 46.9698 26.488C47.9271 26.342 48.8759 25.9901 49.3119 24.5996C49.8418 22.943 49.9529 21.5869 49.9786 19.8445C50.0128 17.5355 49.9529 15.261 49.611 12.9864C49.1238 9.80196 48.6451 7.06388 47.1407 4.2743C46.6706 3.3988 45.5509 1.51905 44.1234 0.823797C42.8583 0.205797 39.1059 0.39463 36.6014 1.73363C35.268 2.44605 35.3705 3.99105 36.4646 5.14121C36.4646 5.14121 41.4309 9.41571 42.7729 11.3126C43.1917 11.9049 43.4823 12.643 43.5678 13.3984C43.6447 14.085 43.0122 14.6086 42.4053 14.497C42.2002 14.4627 41.9865 14.3769 41.7899 14.2825C40.7214 13.7675 39.7299 13.1065 38.8067 12.3083C37.3621 11.0637 35.9261 9.81055 34.3875 8.72046C32.8233 7.61321 31.0881 6.22271 28.3443 6.06821C26.5578 5.96521 23.3781 7.34713 21.4463 9.24405C20.0359 10.626 19.6085 11.6903 20.6685 13.407C21.5403 14.806 24.6004 16.6515 25.7372 17.8016ZM65.0397 26.5137C65.0397 26.5137 63.0822 28.2132 64.5268 29.6295C64.5268 29.6295 66.3047 31.6723 69.04 33.2259C70.0999 33.8267 71.6556 33.4233 72.6129 31.0886C73.3993 29.1745 73.784 28.3076 74.6986 26.4536C77.28 21.1835 81.0752 17.0892 81.0752 17.0892C82.1094 15.939 82.9813 15.218 83.7677 14.4885C84.6481 13.6816 85.4345 12.5915 84.3575 11.407C82.3915 9.25263 79.5195 7.71621 79.5195 7.71621C78.6476 7.29563 77.0748 7.19263 76.1175 9.51871C76.1175 9.51871 74.3567 13.8876 71.4761 18.4368C68.604 22.9945 67.339 24.2134 65.0397 26.5137ZM53.2694 25.7498C54.6371 26.2734 55.9278 26.4708 58.7656 27.166C58.7656 27.166 61.7915 27.8184 63.3643 26.2905C64.9969 24.7112 66.8518 22.6512 67.9715 18.7887C68.2707 17.7759 68.51 16.2223 68.4416 15.4326C68.3904 14.7889 68.0143 13.8619 66.9971 13.7417C65.3987 13.6044 63.8857 15.733 63.3472 16.4111C62.2445 17.7845 60.8085 18.6771 59.6204 18.3681C58.5263 18.0076 57.7912 16.2137 59.0733 13.716C59.0733 13.716 60.1247 11.3298 64.1507 5.78496C65.185 4.36013 65.1337 3.06405 64.2191 2.17996C63.8943 1.86238 63.1677 1.34738 62.3557 1.02121C62.3557 1.02121 59.6375 -0.14612 56.6714 0.00838009C54.6627 0.119963 53.5088 0.57488 53.5173 3.62196C53.5259 5.8193 53.4575 6.20555 53.3977 8.40288C53.2951 12.3598 52.3463 16.1365 51.8078 20.0762C51.3377 23.664 51.2265 24.9773 53.2694 25.7498ZM90.9307 69.0441C89.3408 68.3146 88.1014 69.1557 87.9646 70.9582C87.9219 71.5161 87.9475 72.0826 87.9732 72.6491C88.033 73.6877 88.1185 74.7263 88.1954 75.7735C88.2467 76.8464 88.127 77.9021 87.9646 78.9493C87.6825 80.769 86.1696 81.4986 84.6567 80.563C84.0669 80.2025 83.6138 79.7046 83.2292 79.1296C82.6565 78.2798 82.6907 77.7133 83.366 76.9494C83.7762 76.4859 84.2207 76.0567 84.6481 75.619C85.1695 75.0954 85.7508 74.6319 86.1953 74.0311C86.5201 73.6019 86.6055 73.0783 86.2294 72.4603C85.4431 71.1728 84.5199 70.2887 83.1352 69.6535C82.2462 69.2501 81.4513 69.4905 80.8871 70.3059C80.6734 70.6063 80.511 70.9496 80.3401 71.2758C80.0153 71.8766 79.6904 72.486 79.2374 73.0011C78.622 73.7049 77.8099 73.7907 77.0492 73.2586C76.5363 72.8895 76.2286 72.6577 75.7499 72.2371C74.8866 71.4818 74.8866 70.1342 75.8012 69.4647C76.5278 68.9411 77.3655 68.6836 78.2031 68.4261C79.1177 68.1515 80.0323 67.8768 80.9384 67.5764C81.588 67.3618 82.1778 67.0442 82.571 66.4434C82.8787 65.9627 82.9813 65.4992 82.6907 64.9241C81.5453 62.7096 79.6904 61.465 77.4509 60.7355C76.2799 60.3492 75.2456 60.6067 74.4763 61.6796C74.2113 62.0487 73.8951 62.3835 73.6729 62.7783C72.4933 64.8812 71.1513 66.8554 69.6896 68.7695C69.1255 69.5076 68.5955 70.2716 68.2792 71.1728C68.0313 71.868 67.9801 72.5633 68.3562 73.2242C68.7921 73.9795 69.2708 74.7006 69.8178 75.3786C71.9291 77.9708 74.1002 80.5201 76.3654 82.9663C77.7928 84.5113 79.1947 86.0821 80.6221 87.6271C81.2974 88.3566 82.0496 89.0004 82.9642 89.3866C84.3831 89.9875 85.7935 90.0905 87.0329 89.0004C90.1785 86.2537 92.6744 82.9663 94.6575 79.2583C95.3584 77.9451 95.8285 76.5202 95.649 75.001C95.3157 72.0054 93.4523 70.2029 90.9307 69.0441ZM96.1619 59.0016C93.2984 59.1046 91.0589 61.5681 91.1615 64.5035C91.264 67.439 93.6745 69.7308 96.538 69.6278C99.4015 69.5248 101.641 67.0614 101.538 64.1259C101.427 61.1904 99.0254 58.8986 96.1619 59.0016ZM102.06 41.8178C101.65 40.2299 101.299 39.1226 100.393 37.7493C99.9058 37.0025 99.0083 36.3588 98.1193 36.2472C96.9739 36.1013 95.4439 36.333 94.3498 36.5991C90.7683 37.4746 87.3663 38.8737 83.9728 40.2985C82.0753 41.0968 80.152 41.8607 78.4596 43.0967C77.2714 43.9636 76.7329 45.2082 76.5534 46.633C76.2714 48.8905 76.0406 49.8003 75.9807 52.0835C75.9465 53.4911 75.8611 54.8988 76.0064 56.3065C76.1004 57.1562 76.4936 57.7141 77.3227 57.9545C78.8186 58.3922 80.3401 58.4351 81.8701 58.2892C82.7847 58.2034 83.3745 57.6283 83.6224 56.7185C83.819 55.9889 83.7421 55.2765 83.4514 54.5898C83.0155 53.5426 82.5625 52.5041 82.1351 51.4483C81.8701 50.8131 81.7419 50.1436 81.8017 49.4484C81.8701 48.6673 82.2462 48.0751 82.9557 47.7575C83.725 47.4141 84.3746 47.663 84.5455 48.4956C84.6738 49.1651 84.7421 49.8518 84.9045 50.5127C85.1952 51.7144 85.5798 52.0835 86.7679 51.8775C87.9732 51.6629 89.0758 51.1994 90.1443 50.59C91.1358 50.0235 91.2897 49.2939 91.264 48.221C91.2469 47.6115 91.0931 47.0365 90.9991 46.4442C90.8623 45.5172 91.1529 45.1996 91.9992 44.8305C92.4864 44.616 92.9992 44.4958 93.5206 44.4615C94.6147 44.3756 96.0251 45.0623 96.0593 46.2039C96.0935 47.5257 95.5635 48.6587 94.9823 49.7746C94.2301 51.2166 93.2215 52.504 92.5804 54.0147C91.965 55.4567 91.9564 56.6584 93.7001 57.182C96.1362 57.9115 98.5723 57.6197 100.897 56.5897C101.496 56.3236 101.983 55.8687 102.188 55.1821C102.419 54.4267 102.598 53.6628 102.641 52.8731C102.709 52.4268 102.803 51.9805 102.846 51.5255C103.197 47.8433 102.974 45.3799 102.06 41.8178ZM73.2369 82.0994C71.3051 79.4729 69.5443 76.9236 66.7748 75.1984C65.3474 74.3143 64.1165 73.765 62.4155 74.1512C60.6205 74.5546 60.2273 76.1082 60.5265 77.576C60.8342 79.0952 61.7488 80.2111 62.9797 81.2325C64.1507 82.2024 65.4756 82.9491 66.6723 83.859C68.0314 84.889 68.9716 86.1765 69.758 87.7558C70.0828 88.4081 70.2965 89.0519 70.1683 89.7643C70.023 90.554 69.1255 90.8458 68.416 90.5025C67.8775 90.245 67.433 89.8415 67.0484 89.3952C64.8773 86.8717 62.9626 84.1594 61.2616 81.284C60.5094 80.0051 59.6802 78.7948 58.7571 77.6275C56.9963 75.4044 54.2182 75.5589 52.1839 76.7863C51.3975 77.2584 51.0727 77.9966 51.1496 78.9407C51.2009 79.5415 51.3462 80.1252 51.5001 80.7003C52.1582 83.095 52.7395 85.4898 52.654 88.0305C52.5856 90.1677 52.1241 92.2191 51.7736 94.2963C51.4488 96.2619 51.1838 98.2189 51.4317 100.219C51.6283 101.824 52.466 102.682 54.0216 102.923C54.9875 103.068 55.9534 102.983 56.9108 102.991C58.2784 103 59.5948 102.682 60.8342 102.099C62.1591 101.472 62.6207 100.176 62.048 98.7854C61.7402 98.03 61.2787 97.3777 60.7487 96.7769C59.5691 95.4293 58.5519 93.9701 57.7655 92.3393C57.3638 91.4981 57.0475 90.6226 56.9364 89.7042C56.9364 89.7042 56.6885 88.4339 57.3211 88.142C57.586 88.0219 58.022 88.0047 58.475 88.451C59.2614 89.2235 59.7657 91.8586 61.6291 94.7941C61.6291 94.7941 64.4071 99.5235 68.2109 100.116C70.6128 100.21 72.4591 99.472 74.1686 98.2961C77.4082 96.0645 78.6476 92.3565 77.0748 88.5025C76.1175 86.1507 74.7071 84.0993 73.2369 82.0994ZM26.5493 83.3354C26.327 83.344 26.1048 83.3697 25.8911 83.4212C25.1987 83.5671 24.5149 83.7388 23.8226 83.8847C22.6173 84.1422 21.4207 84.4512 20.1812 84.2967C19.8821 84.2624 19.5572 84.2538 19.4205 83.9019C19.2837 83.55 19.4974 83.301 19.6769 83.0607C20.0701 82.52 20.6001 82.1423 21.1728 81.8333C24.0277 80.314 27.0365 79.2154 30.0709 78.151C32.2763 77.3785 34.5158 76.6747 36.4561 75.2499C37.6699 74.3572 38.0887 73.0611 37.6528 71.8509C37.3792 71.0956 36.9091 70.6235 36.1142 69.9196C34.7294 68.6922 33.3362 67.5163 32.2506 66.0142C31.6352 65.1645 30.9599 64.3662 30.3274 63.5336C29.3529 62.2547 28.1221 62.0316 26.7117 62.4607C25.0791 62.9585 23.549 63.6881 22.1472 64.6924C21.566 65.113 21.0446 65.6108 20.7539 66.2889C20.3778 67.1558 20.7197 67.9369 21.5916 68.203C22.0959 68.3575 22.6088 68.4261 23.1387 68.4347C24.344 68.4519 25.5577 68.4862 26.763 68.512C27.3442 68.5721 27.934 68.5806 28.4896 68.8124C28.746 68.9154 29.0794 68.984 29.0965 69.336C29.105 69.6793 28.7888 69.7909 28.5494 69.9282C27.8058 70.3316 26.9767 70.426 26.1561 70.5376C23.6174 70.881 21.0531 70.8638 18.5144 71.1556C16.104 71.4303 13.7192 71.7908 11.4626 72.7693C9.21451 73.7392 8.30845 75.6275 8.86405 78.0395C9.11194 79.1381 9.53932 80.1595 10.0436 81.1638C11.8045 84.6486 14.2662 87.5155 17.2665 89.9102C18.8307 91.1548 20.5146 92.1505 22.4635 92.5882C23.7969 92.8886 25.0021 92.5625 25.874 91.5153C27.1818 89.936 28.2674 88.185 28.7802 86.125C29.182 84.4169 28.2759 83.2839 26.5493 83.3354ZM50.5256 83.3611C50.5769 84.3396 50.5 85.3095 50.4231 86.2795C50.0128 89.6699 49.5512 93.0603 48.2861 96.2533C47.7049 97.721 47.0211 99.1373 45.927 100.33C44.4482 101.944 42.6104 102.656 40.5675 102.888C37.5075 103.232 34.7893 102.416 32.584 100.081C31.7548 99.206 31.0112 98.1502 30.6265 97.0258C29.9256 94.983 29.806 92.8972 30.1393 90.7514C31.0197 85.095 33.0028 79.9707 37.2339 76.0224C38.234 75.0868 39.3623 74.34 40.6188 73.7736C43.4652 72.4946 46.6877 74.0139 48.2092 76.0996C49.7734 78.254 50.3803 80.7261 50.5256 83.3611ZM43.6704 81.4385C43.5165 80.8634 43.1746 80.3741 42.6532 80.314C42.1916 80.254 41.5334 80.5544 41.1146 81.035C39.9094 82.3912 39.217 83.7645 38.7212 85.5155C38.3622 86.8116 38.0972 88.1335 38.2853 89.4982C38.4392 90.6226 39.3281 91.1205 40.3282 90.6484C40.7385 90.451 41.0804 90.1763 41.3881 89.833C42.9438 88.1077 43.4823 85.9619 43.79 83.7216C43.8413 82.9577 43.867 82.1852 43.6704 81.4385ZM13.0268 67.0013C12.9242 64.0658 10.5138 61.7741 7.65028 61.8771C4.78679 61.9801 2.54729 64.4435 2.64986 67.3704C2.75244 70.3059 5.16289 72.5976 8.02638 72.4946C10.8899 72.3916 13.1294 69.9282 13.0268 67.0013Z" fill="white"/>
</g>
<defs>
<clipPath id="clip0_288_179">
<rect width="103" height="103" fill="white"/>
</clipPath>
</defs>
</svg>
