<svg width="150" height="150" viewBox="0 0 150 150" fill="none" xmlns="http://www.w3.org/2000/svg">
<g id="Vanlifezone-Logo-Black 1" clip-path="url(#clip0_1_34)">
<path id="Vector" d="M1.29457 85.875C0.0373055 82.625 -0.398379 79.275 0.435646 75.85C1.00826 73.5 2.66386 72.4625 5.12859 72.5875C9.47299 72.8125 14.1908 73.675 18.5228 73.9375C21.3361 74.1125 24.1493 74.1 26.9502 73.7375C28.0083 73.6 28.7551 73.525 29.6888 73.025C30.3361 72.675 30.7593 71.5125 30.0373 70.5875C28.7925 69 26.5892 68.4875 26.5892 68.4875C23.39 67.35 19.3693 67.675 16.1078 68.075C13.1452 68.4375 8.88793 68.3375 5.88793 68.425C5.32776 68.4375 4.78004 68.4 4.21988 68.3625C1.68046 68.15 0.560127 66.7375 0.547679 63.8625C0.547679 63.4875 0.60992 63.1125 0.647264 62.55C1.12029 59.8875 1.55598 58.475 2.71365 56.575C4.28212 53.9875 5.7261 53.45 8.61407 54.35C10.5933 54.9625 13.0829 56.3125 14.863 57.2875C19.8298 60.0125 25.8049 62.1875 31.0705 64.2375C33.3485 65.125 35.8132 66.075 37.6058 67.7875C37.9668 68.1375 38.6141 69.05 38.8381 69.4875C40.3195 72.4125 40.3817 74.925 39.4979 76.925C38.7634 78.6125 37.3444 79.5 36.4356 80.0625C33.5601 81.825 30.3859 82.9 27.1618 83.8125C22.4688 85.1375 17.7634 86.375 13.0456 87.5875C10.8547 88.15 8.09125 88.575 5.83814 88.7125C3.69706 88.8625 2.09125 87.95 1.29457 85.875ZM8.77589 37.1375C9.60992 33.9875 11.1908 31.275 13.9792 29.4625C16.4564 27.85 19.8921 27.1125 22.3693 27.625C26.1037 28.025 30.3236 30.2 33.112 31.575C38.3776 34.1875 42.4605 37 47.2157 40.475C49.0332 41.8125 49.8547 42.25 50.751 43.5625C51.6348 44.8625 51.7717 46.875 51.0622 48.3375C49.9294 50.65 47.9128 52.7625 45.6597 53.775C44.2406 54.4125 43.1576 54.025 41.8257 53.225C39.722 51.9625 39.0498 51.3375 37.3568 49.5875C36.7468 48.95 35.9253 47.7375 34.4315 47.5625C32.8257 47.375 31.2572 48.8625 31.3693 50.2375C31.4066 50.675 31.7302 51.15 32.029 51.4125C33.0622 52.3 33.5975 52.35 35.1908 52.9C37.2323 53.6125 39.3361 54.1625 41.3029 55.0875C43.5809 56.175 44.1784 57.6625 42.9834 59.8875C40.5809 64.3625 39.0995 65.0125 34.8672 63.4C29.6514 61.4125 22.6307 53.2125 19.9045 50.8375C17.1784 48.4625 11.4647 44.725 11.4647 44.725C9.11199 43.0625 7.91697 40.4125 8.77589 37.1375ZM18.9709 40.0375C19.4937 41.9625 21.7842 44.1125 23.2157 45.45C24.9585 47.0875 26.0664 46.9375 27.1493 44.7625C27.4979 44.05 27.3485 43.3875 26.7883 42.75C25.2448 40.9875 22.6058 39.675 20.6265 39.225C18.9834 38.95 18.8589 39.625 18.9709 40.0375ZM114.485 38.1125C111.846 41.0375 109.295 44.0375 107.104 47.325C106.369 48.425 105.286 50.525 105.187 52.0125C105.187 52.0125 104.863 55.6375 108.722 59.4125C108.722 59.4125 111.361 61.6875 113.017 58.6625C114.187 56.525 116.465 51.0375 116.465 51.0375C116.851 50.0625 117.535 49.7375 118.083 50.525C118.618 51.275 119.875 53.3375 120.361 54.125C120.921 55.05 121.531 55.3375 122.502 55.025C124.207 54.4875 125.427 53.2625 126.485 51.775C127.183 50.8 127.531 50 127.058 48.8625C126.622 47.8375 125.278 45.625 124.668 44.7C124.17 43.9375 124.22 43.0875 124.618 42.3625C125.452 40.85 126.473 39.6625 128.241 38.5625C131.328 36.65 131.266 41.3 131.104 43.0625C130.942 44.9375 130.942 48.25 130.942 48.25C131.017 50.55 132.062 51.8375 134.664 51.5C138.1 51.05 140.851 49.8 142.718 47.075C143.589 45.8125 143.838 44.175 143.141 42.4875C141.398 38.2375 139.046 35.175 136.282 31.575C135.025 29.9375 133.73 28.3375 132.087 27.0875C130.631 25.975 128.9 24.8625 127.095 25.4875C125.913 25.9 124.979 26.7625 124.083 27.6375C120.709 30.9625 117.66 34.6 114.485 38.1125ZM37.4813 25.925C40.9917 29.475 42.6224 31.2625 45.4107 34.7625C47.1908 36.9875 49.0083 39.0125 51.1244 40.9C51.1244 40.9 54.1244 43.375 56.9253 43.2C59.1286 43.0625 60.7468 41.825 61.0954 39.9125C61.3319 38.6 61.8298 35.6 55.4066 32.5875C51.3112 30.675 48.5726 28.725 48.6348 25.7375C48.6473 25.3875 48.6722 25.0125 48.9709 24.625C49.2074 24.3125 50.0539 23.8 51.2738 24.5375C52.0207 25 52.668 25.5875 53.3153 26.2125C56.5767 29.4 58.8174 32.475 62.2157 35.4875C64.058 37.125 66 38.9375 68.4025 38.575C69.7966 38.3625 71.1784 37.85 71.8132 35.825C72.585 33.4125 72.7468 31.4375 72.7842 28.9C72.834 25.5375 72.7468 22.225 72.2489 18.9125C71.5394 14.275 70.8423 10.2875 68.6514 6.22496C67.9668 4.94996 66.3361 2.21246 64.2572 1.19996C62.4149 0.299958 56.9502 0.574958 53.3029 2.52496C51.361 3.56246 51.5103 5.81246 53.1037 7.48746C53.1037 7.48746 60.3361 13.7125 62.2904 16.475C62.9004 17.3375 63.3236 18.4125 63.4481 19.5125C63.5601 20.5125 62.639 21.275 61.7551 21.1125C61.4564 21.0625 61.1452 20.9375 60.8589 20.8C59.3029 20.05 57.8589 19.0875 56.5145 17.925C54.4107 16.1125 52.3195 14.2875 50.0788 12.7C47.8008 11.0875 45.2738 9.06246 41.278 8.83746C38.6763 8.68746 34.0456 10.7 31.2323 13.4625C29.1784 15.475 28.556 17.025 30.0995 19.525C31.3693 21.5625 35.8257 24.25 37.4813 25.925ZM94.7178 38.6125C94.7178 38.6125 91.8672 41.0875 93.9709 43.15C93.9709 43.15 96.5601 46.125 100.544 48.3875C102.087 49.2625 104.353 48.675 105.747 45.275C106.892 42.4875 107.452 41.225 108.784 38.525C112.544 30.85 118.07 24.8875 118.07 24.8875C119.577 23.2125 120.846 22.1625 121.992 21.1C123.274 19.925 124.419 18.3375 122.851 16.6125C119.988 13.475 115.805 11.2375 115.805 11.2375C114.535 10.625 112.245 10.475 110.851 13.8625C110.851 13.8625 108.286 20.225 104.091 26.85C99.9087 33.4875 98.0664 35.2625 94.7178 38.6125ZM77.5767 37.5C79.5684 38.2625 81.4481 38.55 85.5809 39.5625C85.5809 39.5625 89.9875 40.5125 92.278 38.2875C94.6556 35.9875 97.3568 32.9875 98.9875 27.3625C99.4232 25.8875 99.7717 23.625 99.6722 22.475C99.5975 21.5375 99.0497 20.1875 97.5684 20.0125C95.2406 19.8125 93.0373 22.9125 92.2531 23.9C90.6473 25.9 88.556 27.2 86.8257 26.75C85.2323 26.225 84.1618 23.6125 86.029 19.975C86.029 19.975 87.5601 16.5 93.4232 8.42496C94.9294 6.34996 94.8547 4.46246 93.5228 3.17496C93.0498 2.71246 91.9917 1.96246 90.8091 1.48746C90.8091 1.48746 86.8506 -0.212542 82.5311 0.0124582C79.6058 0.174958 77.9253 0.837458 77.9377 5.27496C77.9502 8.47496 77.8506 9.03746 77.7634 12.2375C77.6141 18 76.2323 23.5 75.4481 29.2375C74.7634 34.4625 74.6016 36.375 77.5767 37.5ZM132.423 100.55C130.108 99.4875 128.303 100.712 128.104 103.337C128.041 104.15 128.079 104.975 128.116 105.8C128.203 107.312 128.328 108.825 128.44 110.35C128.514 111.912 128.34 113.45 128.104 114.975C127.693 117.625 125.49 118.687 123.286 117.325C122.427 116.8 121.768 116.075 121.207 115.237C120.373 114 120.423 113.175 121.407 112.062C122.004 111.387 122.651 110.762 123.274 110.125C124.033 109.362 124.88 108.687 125.527 107.812C126 107.187 126.124 106.425 125.577 105.525C124.431 103.65 123.087 102.362 121.07 101.437C119.776 100.85 118.618 101.2 117.797 102.387C117.485 102.825 117.249 103.325 117 103.8C116.527 104.675 116.054 105.562 115.394 106.312C114.498 107.337 113.315 107.462 112.207 106.687C111.461 106.15 111.012 105.812 110.315 105.2C109.058 104.1 109.058 102.137 110.39 101.162C111.448 100.4 112.668 100.025 113.888 99.65C115.22 99.25 116.552 98.85 117.871 98.4125C118.817 98.1 119.676 97.6375 120.249 96.7625C120.697 96.0625 120.846 95.3875 120.423 94.55C118.755 91.325 116.054 89.5125 112.792 88.45C111.087 87.8875 109.581 88.2625 108.461 89.825C108.075 90.3625 107.614 90.85 107.29 91.425C105.573 94.4875 103.618 97.3625 101.49 100.15C100.668 101.225 99.8962 102.337 99.4356 103.65C99.0746 104.662 99 105.675 99.5477 106.637C100.183 107.737 100.88 108.787 101.676 109.775C104.751 113.55 107.913 117.262 111.212 120.825C113.29 123.075 115.332 125.362 117.411 127.612C118.394 128.675 119.49 129.612 120.822 130.175C122.888 131.05 124.942 131.2 126.747 129.612C131.328 125.612 134.963 120.825 137.851 115.425C138.871 113.512 139.556 111.437 139.295 109.225C138.809 104.862 136.095 102.237 132.423 100.55ZM140.041 85.925C135.871 86.075 132.61 89.6625 132.759 93.9375C132.909 98.2125 136.419 101.55 140.589 101.4C144.759 101.25 148.021 97.6625 147.871 93.3875C147.709 89.1125 144.212 85.775 140.041 85.925ZM148.631 60.9C148.033 58.5875 147.523 56.975 146.203 54.975C145.494 53.8875 144.187 52.95 142.892 52.7875C141.224 52.575 138.996 52.9125 137.402 53.3C132.187 54.575 127.232 56.6125 122.29 58.6875C119.527 59.85 116.726 60.9625 114.261 62.7625C112.531 64.025 111.747 65.8375 111.485 67.9125C111.075 71.2 110.739 72.525 110.651 75.85C110.602 77.9 110.477 79.95 110.689 82C110.826 83.2375 111.398 84.05 112.606 84.4C114.784 85.0375 117 85.1 119.228 84.8875C120.56 84.7625 121.419 83.925 121.78 82.6C122.066 81.5375 121.954 80.5 121.531 79.5C120.896 77.975 120.236 76.4625 119.614 74.925C119.228 74 119.041 73.025 119.129 72.0125C119.228 70.875 119.776 70.0125 120.809 69.55C121.929 69.05 122.875 69.4125 123.124 70.625C123.311 71.6 123.411 72.6 123.647 73.5625C124.07 75.3125 124.631 75.85 126.361 75.55C128.116 75.2375 129.722 74.5625 131.278 73.675C132.722 72.85 132.946 71.7875 132.909 70.225C132.884 69.3375 132.66 68.5 132.523 67.6375C132.324 66.2875 132.747 65.825 133.979 65.2875C134.689 64.975 135.436 64.8 136.195 64.75C137.788 64.625 139.842 65.625 139.892 67.2875C139.942 69.2125 139.17 70.8625 138.324 72.4875C137.228 74.5875 135.759 76.4625 134.826 78.6625C133.929 80.7625 133.917 82.5125 136.456 83.275C140.004 84.3375 143.552 83.9125 146.938 82.4125C147.809 82.025 148.519 81.3625 148.817 80.3625C149.153 79.2625 149.415 78.15 149.477 77C149.577 76.35 149.714 75.7 149.776 75.0375C150.286 69.675 149.963 66.0875 148.631 60.9ZM106.656 119.562C103.842 115.737 101.278 112.025 97.2448 109.512C95.1659 108.225 93.3734 107.425 90.8962 107.987C88.2821 108.575 87.7095 110.837 88.1452 112.975C88.5933 115.187 89.9253 116.812 91.7178 118.3C93.4232 119.712 95.3527 120.8 97.0954 122.125C99.0746 123.625 100.444 125.5 101.589 127.8C102.062 128.75 102.373 129.687 102.187 130.725C101.975 131.875 100.668 132.3 99.6348 131.8C98.8506 131.425 98.2033 130.837 97.6431 130.187C94.4813 126.512 91.6929 122.562 89.2157 118.375C88.1203 116.512 86.9128 114.75 85.5684 113.05C83.0041 109.812 78.9585 110.037 75.9958 111.825C74.8506 112.512 74.3776 113.587 74.4896 114.962C74.5643 115.837 74.7759 116.687 75 117.525C75.9585 121.012 76.8049 124.5 76.6805 128.2C76.5809 131.312 75.9087 134.3 75.3983 137.325C74.9253 140.187 74.5394 143.037 74.9004 145.95C75.1867 148.287 76.4066 149.537 78.6722 149.887C80.0788 150.1 81.4854 149.975 82.8796 149.987C84.8713 150 86.7883 149.537 88.5933 148.687C90.5228 147.775 91.195 145.887 90.361 143.862C89.9128 142.762 89.2406 141.812 88.4688 140.937C86.751 138.975 85.2697 136.85 84.1244 134.475C83.5394 133.25 83.0788 131.975 82.917 130.637C82.917 130.637 82.556 128.787 83.4771 128.362C83.863 128.187 84.4979 128.162 85.1576 128.812C86.3029 129.937 87.0373 133.775 89.751 138.05C89.751 138.05 93.7966 144.937 99.3361 145.8C102.834 145.937 105.523 144.862 108.012 143.15C112.73 139.9 114.535 134.5 112.245 128.887C110.851 125.462 108.797 122.475 106.656 119.562ZM38.6639 121.362C38.3402 121.375 38.0166 121.412 37.7054 121.487C36.6971 121.7 35.7012 121.95 34.6929 122.162C32.9377 122.537 31.195 122.987 29.39 122.762C28.9543 122.712 28.4813 122.7 28.2821 122.187C28.0829 121.675 28.3942 121.312 28.6556 120.962C29.2282 120.175 30 119.625 30.834 119.175C34.9917 116.962 39.3734 115.362 43.7925 113.812C47.0041 112.687 50.2655 111.662 53.0912 109.587C54.8589 108.287 55.4688 106.4 54.834 104.637C54.4356 103.537 53.751 102.85 52.5933 101.825C50.5767 100.037 48.5477 98.325 46.9668 96.1375C46.0705 94.9 45.0871 93.7375 44.1659 92.525C42.7468 90.6625 40.9543 90.3375 38.9004 90.9625C36.5228 91.6875 34.2946 92.75 32.2531 94.2125C31.4066 94.825 30.6473 95.55 30.224 96.5375C29.6763 97.8 30.1742 98.9375 31.4439 99.325C32.1784 99.55 32.9253 99.65 33.6971 99.6625C35.4522 99.6875 37.2199 99.7375 38.9751 99.775C39.8215 99.8625 40.6805 99.875 41.4896 100.212C41.863 100.362 42.3485 100.462 42.3734 100.975C42.3858 101.475 41.9253 101.637 41.5767 101.837C40.4937 102.425 39.2863 102.562 38.0912 102.725C34.3941 103.225 30.6597 103.2 26.9626 103.625C23.4522 104.025 19.9792 104.55 16.6929 105.975C13.419 107.387 12.0995 110.137 12.9087 113.65C13.2697 115.25 13.8921 116.737 14.6265 118.2C17.1908 123.275 20.7759 127.45 25.1452 130.937C27.4232 132.75 29.8755 134.2 32.7136 134.837C34.6556 135.275 36.4108 134.8 37.6805 133.275C39.585 130.975 41.1659 128.425 41.9128 125.425C42.4979 122.937 41.1784 121.287 38.6639 121.362ZM73.5809 121.4C73.6556 122.825 73.5435 124.237 73.4315 125.65C72.834 130.587 72.1618 135.525 70.3195 140.175C69.473 142.312 68.4771 144.375 66.8838 146.112C64.7302 148.462 62.0539 149.5 59.0788 149.837C54.6224 150.337 50.6639 149.15 47.4522 145.75C46.2448 144.475 45.1618 142.937 44.6016 141.3C43.5809 138.325 43.4066 135.287 43.8921 132.162C45.1742 123.925 48.0622 116.462 54.224 110.712C55.6805 109.35 57.3236 108.262 59.1535 107.437C63.2987 105.575 67.9917 107.787 70.2074 110.825C72.4854 113.962 73.3692 117.562 73.5809 121.4ZM63.5975 118.6C63.3734 117.762 62.8755 117.05 62.1161 116.962C61.4439 116.875 60.4854 117.312 59.8755 118.012C58.1203 119.987 57.112 121.987 56.39 124.537C55.8672 126.425 55.4813 128.35 55.7551 130.337C55.9792 131.975 57.2738 132.7 58.7302 132.012C59.3278 131.725 59.8257 131.325 60.2738 130.825C62.5394 128.312 63.3236 125.187 63.7717 121.925C63.8464 120.812 63.8838 119.687 63.5975 118.6ZM18.9709 97.575C18.8215 93.3 15.3112 89.9625 11.141 90.1125C6.97091 90.2625 3.7095 93.85 3.85888 98.1125C4.00826 102.387 7.51863 105.725 11.6888 105.575C15.8589 105.425 19.1203 101.837 18.9709 97.575Z" fill="#FF6445"/>
</g>
<defs>
<clipPath id="clip0_1_34">
<rect width="150" height="150" fill="white"/>
</clipPath>
</defs>
</svg>
