<svg width="24" height="24" viewBox="0 0 24 24" fill="none" xmlns="http://www.w3.org/2000/svg">
    <mask id="mask0_331_824" style="mask-type:luminance" maskUnits="userSpaceOnUse" x="0" y="0" width="24" height="24">
        <path d="M24 0H0V24H24V0Z" fill="white"/>
    </mask>
    <g mask="url(#mask0_331_824)">
        <path d="M21 2H3C2.73478 2 2.48043 2.10536 2.29289 2.29289C2.10536 2.48043 2 2.73478 2 3V19C2 19.2652 2.10536 19.5196 2.29289 19.7071C2.48043 19.8946 2.73478 20 3 20H9.051C9.1207 20 9.18962 20.0146 9.25333 20.0429C9.31705 20.0711 9.37416 20.1124 9.421 20.164L11.26 22.186C11.3537 22.2891 11.468 22.3715 11.5954 22.4279C11.7228 22.4843 11.8607 22.5134 12 22.5134C12.1393 22.5134 12.2772 22.4843 12.4046 22.4279C12.532 22.3715 12.6463 22.2891 12.74 22.186L14.579 20.164C14.6258 20.1124 14.6829 20.0711 14.7467 20.0429C14.8104 20.0146 14.8793 20 14.949 20H21C21.2652 20 21.5196 19.8946 21.7071 19.7071C21.8946 19.5196 22 19.2652 22 19V3C22 2.73478 21.8946 2.48043 21.7071 2.29289C21.5196 2.10536 21.2652 2 21 2ZM20 17.5C20 17.6326 19.9473 17.7598 19.8536 17.8536C19.7598 17.9473 19.6326 18 19.5 18H14.064C13.9943 18 13.9254 18.0146 13.8617 18.0429C13.7979 18.0711 13.7408 18.1124 13.694 18.164L12.37 19.62C12.3231 19.6716 12.266 19.7128 12.2023 19.7409C12.1386 19.7691 12.0697 19.7837 12 19.7837C11.9303 19.7837 11.8614 19.7691 11.7977 19.7409C11.734 19.7128 11.6769 19.6716 11.63 19.62L10.306 18.164C10.2592 18.1124 10.2021 18.0711 10.1383 18.0429C10.0746 18.0146 10.0057 18 9.936 18H4.5C4.36739 18 4.24021 17.9473 4.14645 17.8536C4.05268 17.7598 4 17.6326 4 17.5V4.5C4 4.36739 4.05268 4.24021 4.14645 4.14645C4.24021 4.05268 4.36739 4 4.5 4H19.5C19.6326 4 19.7598 4.05268 19.8536 4.14645C19.9473 4.24021 20 4.36739 20 4.5V17.5Z"
              fill="#645ADE"/>
        <path d="M17 6H7C6.73478 6 6.48043 6.10536 6.29289 6.29289C6.10536 6.48043 6 6.73478 6 7C6 7.26522 6.10536 7.51957 6.29289 7.70711C6.48043 7.89464 6.73478 8 7 8H17C17.2652 8 17.5196 7.89464 17.7071 7.70711C17.8946 7.51957 18 7.26522 18 7C18 6.73478 17.8946 6.48043 17.7071 6.29289C17.5196 6.10536 17.2652 6 17 6Z"
              fill="#645ADE"/>
        <path d="M17 10H7C6.73478 10 6.48043 10.1054 6.29289 10.2929C6.10536 10.4804 6 10.7348 6 11C6 11.2652 6.10536 11.5196 6.29289 11.7071C6.48043 11.8946 6.73478 12 7 12H17C17.2652 12 17.5196 11.8946 17.7071 11.7071C17.8946 11.5196 18 11.2652 18 11C18 10.7348 17.8946 10.4804 17.7071 10.2929C17.5196 10.1054 17.2652 10 17 10Z"
              fill="#645ADE"/>
        <path d="M17 14H7C6.73478 14 6.48043 14.1054 6.29289 14.2929C6.10536 14.4804 6 14.7348 6 15C6 15.2652 6.10536 15.5196 6.29289 15.7071C6.48043 15.8946 6.73478 16 7 16H17C17.2652 16 17.5196 15.8946 17.7071 15.7071C17.8946 15.5196 18 15.2652 18 15C18 14.7348 17.8946 14.4804 17.7071 14.2929C17.5196 14.1054 17.2652 14 17 14Z"
              fill="#645ADE"/>
    </g>
</svg>
