<svg width="24" height="20" viewBox="0 0 24 20" fill="none" xmlns="http://www.w3.org/2000/svg">
    <path d="M16.4161 0C14.9192 0.00116361 13.4705 0.529385 12.3241 1.492C12.2337 1.56893 12.1188 1.61118 12.0001 1.61118C11.8814 1.61118 11.7665 1.56893 11.6761 1.492C10.5298 0.529385 9.08104 0.00116361 7.58412 0C5.79709 0.0450918 4.10077 0.796583 2.86671 2.08987C1.63265 3.38316 0.961448 5.11282 1.00012 6.9C1.00012 12.738 5.71712 16.024 9.15812 18.427L11.4801 19.853C11.6365 19.9491 11.8165 20 12.0001 20C12.1837 20 12.3637 19.9491 12.5201 19.853L14.8431 18.427C18.2831 16.024 23.0001 12.738 23.0001 6.9C23.0388 5.11282 22.3676 3.38316 21.1335 2.08987C19.8995 0.796583 18.2031 0.0450918 16.4161 0ZM13.7461 16.753L12.2621 17.664C12.1833 17.7125 12.0926 17.7381 12.0001 17.7381C11.9076 17.7381 11.8169 17.7125 11.7381 17.664L10.2541 16.753C7.01312 14.49 3.00012 11.671 3.00012 6.9C2.96125 5.64317 3.42168 4.42208 4.28072 3.50383C5.13976 2.58557 6.32748 2.04487 7.58412 2C8.71762 2.00382 9.80605 2.44435 10.6231 3.23L11.3111 3.884C11.497 4.0607 11.7437 4.15924 12.0001 4.15924C12.2566 4.15924 12.5032 4.0607 12.6891 3.884L13.3771 3.23C14.1942 2.44444 15.2826 2.00392 16.4161 2C17.6728 2.04461 18.8607 2.58523 19.7198 3.50355C20.5789 4.42186 21.0393 5.64309 21.0001 6.9C21.0001 11.664 17.0001 14.481 13.7461 16.753Z"
          fill="#645ADE"/>
</svg>
