<?xml version="1.0" encoding="UTF-8" standalone="no"?>
<svg
   width="1535"
   height="821"
   viewBox="0 0 1535 821"
   fill="none"
   version="1.1"
   id="svg829"
   sodipodi:docname="interactive-map.svg"
   inkscape:version="1.1.2 (0a00cf5339, 2022-02-04)"
   xmlns:inkscape="http://www.inkscape.org/namespaces/inkscape"
   xmlns:sodipodi="http://sodipodi.sourceforge.net/DTD/sodipodi-0.dtd"
   xmlns="http://www.w3.org/2000/svg"
   xmlns:svg="http://www.w3.org/2000/svg">
  <sodipodi:namedview
     id="namedview831"
     pagecolor="#ffffff"
     bordercolor="#666666"
     borderopacity="1.0"
     inkscape:pageshadow="2"
     inkscape:pageopacity="0.0"
     inkscape:pagecheckerboard="0"
     showgrid="false"
     inkscape:zoom="0.8684039"
     inkscape:cx="530.85897"
     inkscape:cy="450.25132"
     inkscape:window-width="2560"
     inkscape:window-height="1372"
     inkscape:window-x="1920"
     inkscape:window-y="0"
     inkscape:window-maximized="1"
     inkscape:current-layer="svg829" />
  <rect
     style="fill:#fffffe;stroke:none;stroke-width:1.07819;stroke-miterlimit:4;stroke-dasharray:none;stroke-opacity:1;stop-color:#000000;fill-opacity:0"
     id="map-background"
     width="1420.9219"
     height="739.46179"
     x="56.539062"
     y="97.539093" />
  <g
     filter="url(#filter0_ii_178_1753)"
     id="the-map">
    <path
       d="M433.433 820.498C430.324 819.471 427.128 820.193 423.979 820.121C421.917 820.066 419.877 820.076 417.853 819.514C415.598 818.884 413.751 817.943 412.851 815.583C412.46 814.558 411.814 813.619 411.207 812.698C409.569 810.233 408.206 809.493 405.65 810.992C402.077 813.082 399.772 811.633 397.244 809.335C394.154 806.534 391.838 803.293 389.783 799.633C385.601 792.171 381.354 784.759 378.174 776.802C376.12 771.663 374.632 766.359 373.871 760.857C373.569 758.665 372.906 756.526 372.566 754.345C372.304 752.696 371.589 751.693 369.843 751.673C367.725 751.648 367.132 750.316 366.33 748.544C363.564 742.469 362.305 735.908 359.898 729.733C359.539 728.812 359.57 727.867 359.859 726.931C361.567 721.42 361.668 715.761 361.681 710.048C361.697 702.151 359.064 694.812 357.377 687.266C357.17 686.339 356.659 685.424 356.691 684.516C357.06 673.831 353.505 663.542 353.664 652.873C353.78 645.087 351.5 637.506 351.539 629.694C351.557 626.641 349.059 625.143 346.79 623.646C340.727 619.631 334.621 615.78 328.134 612.402C322.94 609.699 319.854 604.265 316.795 599.25C314.08 594.794 311.543 590.236 308.875 585.75C307.256 583.027 305.909 580.178 304.589 577.291C302.436 572.566 300.14 567.808 294.895 565.536C293.848 565.08 289.742 555.088 290.231 554.145C291.253 552.18 292.293 550.185 293.659 548.465C295.16 546.567 295.501 544.99 293.871 542.983C291.351 539.883 290.727 536.502 292.994 532.907C293.318 532.389 293.435 531.717 293.545 531.093C294.317 527.03 295.64 523.689 299.379 520.945C302.552 518.622 303.734 514.066 306.574 511.012C307.115 510.429 307.03 509.211 307.119 508.273C307.23 507.172 306.856 505.851 307.338 504.984C309.8 500.504 307.225 496.71 305.847 492.795C305.067 490.584 303.453 488.728 303.177 486.24C302.978 484.511 301.378 484.038 299.938 484.045C298.279 484.05 297.406 485.161 297.297 486.824C297.198 488.249 297.276 489.81 295.513 490.335C293.797 490.838 291.98 490.955 290.47 489.858C288.735 488.598 286.907 487.933 284.776 487.794C283.332 487.696 281.907 487.063 281.006 485.943C278.455 482.788 274.958 480.841 271.727 478.589C270.032 477.403 268.935 476.119 268.789 474.027C268.379 468.492 263.909 465.762 260.527 462.304C259.595 461.357 258.188 461.477 256.9 461.459C255.631 461.449 253.96 461.884 253.173 461.247C248.384 457.403 241.42 457.552 237.329 452.519C236.829 451.908 236.117 451.487 235.599 450.887C232.248 446.999 228.18 446.342 223.611 448.317C222.467 448.818 221.555 448.671 220.445 448.313C214.141 446.262 207.769 444.415 201.507 442.22C199.468 441.505 197.863 439.401 195.812 438.897C191.048 437.723 188.24 433.557 183.892 431.804C182.033 431.054 179.533 424.187 180.547 422.003C183.359 415.936 180.347 411.682 176.615 407.541C175.132 405.9 173.427 404.439 171.953 402.787C169.734 400.315 168.293 397.518 167.028 394.324C165.573 390.65 164.665 386.545 161.837 383.391C159.01 380.236 157.422 376.558 157.846 372.136C158.01 370.432 157.925 368.68 155.95 367.649C153.966 366.617 152.463 366.96 151.953 369.106C151.467 371.137 151.657 373.152 152.892 375.031C157.182 381.573 158.871 389.168 161.405 396.425C162.335 399.088 163.071 401.902 164.977 404.129C165.845 405.145 166.401 406.24 166.204 407.592C165.97 409.222 165.459 410.834 163.743 411.337C162.073 411.83 161.136 410.501 160.384 409.252C159.325 407.48 158.222 405.786 156.634 404.406C154.613 402.642 152.423 400.961 153.755 397.61C154.303 396.226 152.905 395.316 151.905 394.581C150.513 393.565 148.911 392.825 147.574 391.75C144.369 389.192 143.972 387.528 146.264 384.094C147.302 382.538 147.001 381.653 146.132 380.351C143.888 376.993 142.749 373.326 142.64 369.192C142.547 365.733 141.929 362.238 141.039 358.886C140.238 355.864 137.963 353.68 135.068 352.522C131.573 351.118 129.726 348.928 130.16 345.021C130.315 343.584 129.908 342.15 129.127 340.921C127.13 337.773 129.83 334.295 128.446 331.228C127.093 328.218 126.539 325.416 127.404 322.074C127.979 319.869 128.639 317.917 129.952 316.075C130.948 314.664 132.034 313.126 132.391 311.491C133.7 305.509 137.442 301.067 141.132 296.521C145.423 291.228 149.518 285.809 151.341 279.045C152.078 276.337 152.553 274.021 149.997 271.734C147.076 269.126 146.757 265.743 148.731 262.216C151.214 257.783 152.431 253.131 150.876 248.068C150.419 246.588 150.844 245.218 151.646 243.986C153.583 240.985 153.357 238.037 151.614 235.051C150.574 233.279 149.44 231.519 150.155 229.26C150.351 228.652 150.271 227.787 149.699 227.532C146.566 226.125 145.419 223.021 143.439 220.607C142.25 219.155 140.539 218.285 138.456 218.173C135.302 217.997 132.204 217.008 129.007 217.434C126.749 217.729 125.047 216.363 123.285 215.409C120.121 213.688 117.329 214.49 114.997 216.609C109.282 221.823 102.424 223.036 95.1839 222.194C91.7264 221.79 88.9023 222.25 86.5028 224.611C83.9103 227.16 80.381 227.884 77.3126 229.45C72.1202 232.088 66.6803 234.23 61.2919 236.474C58.9358 237.46 57.796 236.568 57.6607 233.998C57.4971 230.934 59.6019 229.605 62.1831 228.267C58.8531 227.707 57.0192 225.859 56.2499 222.913C56.094 218.789 56.1559 220.427 56 216.304C57.3829 215.555 66.543 206.387 68.0001 205.836C76.4076 201.227 75.8099 201.307 84.2221 199.091C84.6092 198.99 84.6742 198.692 84.3826 198.293C81.1548 198.415 77.8269 198.665 74.5072 198.628C72.0463 198.607 70.9999 197.159 71.829 194.877C72.5627 192.846 73.3897 191.013 75.9896 190.17C81.8209 188.29 87.3759 185.41 93.8194 187.617C95.4132 188.158 97.2949 187.991 99.0405 186.495C97.9148 185.221 97.5662 183.566 96.9915 181.985C95.3425 177.46 95.5806 176.698 100.004 174.9C101.009 174.49 102.146 174.323 103.241 174.262C106.457 174.093 109.354 173.039 112.278 171.689C116.861 169.57 121.494 167.268 126.351 166.112C131.388 164.91 136.598 163.989 141.884 164.084C144.26 164.128 146.567 163.869 148.793 162.707C150.972 161.576 153.48 161.595 155.776 162.3C157.918 162.963 160.136 163.117 162.245 163.677C165.55 164.563 169.001 163.555 172.149 164.589C175.123 165.574 178.034 165.645 181.053 165.55C185.472 165.411 189.923 164.842 194.039 167.29C194.908 167.81 196.19 167.676 197.289 167.749C198.551 167.825 199.879 167.651 200.984 168.382C204.173 170.512 207.373 169.637 210.499 168.356C211.682 167.872 212.802 167.21 214.091 167.257C219.247 167.453 224.193 166.112 229.044 164.784C232.347 163.877 235.685 165.162 238.876 163.802C240.847 162.964 242.844 162.841 244.358 165.034C245.165 166.205 246.676 166.081 247.896 165.825C252.296 164.915 256.746 165.834 261.153 165.381C262.226 165.274 263.662 165.162 264.389 165.736C268.044 168.583 272.227 167.757 276.302 167.851C276.762 169.168 278.578 169.271 278.944 170.373C280.041 173.67 282.57 173.221 285.074 173.126C288.216 173.008 291.039 171.251 294.262 171.492C292.368 171.353 290.512 171.433 288.645 171.494C286.931 171.549 285.032 172.003 283.581 170.961C281.337 169.358 278.619 169.089 276.265 167.881C275.247 166.67 274.758 165.334 276.055 164.083C277.702 162.505 278.14 160.457 278.635 158.435C277.139 157.433 275.583 157.397 274.043 158.037C272.147 158.824 270.106 159.063 268.205 159.974C265.011 161.507 261.746 161.411 258.941 158.827C256.698 156.766 256.734 155.449 259.463 153.715C263.048 151.443 266.815 149.451 270.461 147.262C277.277 143.18 284.448 141.936 292.08 144.556C293.258 144.96 294.267 144.645 295.28 144.197C297.915 143.02 299.919 143.573 301.146 146.264C302.289 148.767 304.329 149.005 306.845 149.463C310.042 150.047 313.152 148.07 316.157 149.616C317.995 150.557 319.501 150.042 321.026 149.022C321.807 148.496 322.619 148.017 323.389 147.464C325.116 146.216 326.951 146.079 328.719 147.195C330.487 148.301 330.262 150.17 330.118 151.92C330.065 152.542 329.85 153.151 329.673 153.759C329.038 155.9 329.332 157.872 330.91 159.501C332.389 161.028 332.459 162.885 332.436 164.812C330.978 165.344 329.09 164.824 328.016 166.171C325.74 169.023 322.602 169.018 319.423 169.176C317.929 169.252 316.176 168.774 314.094 170.961C319.207 170.767 323.283 170.642 327.357 170.44C328.737 170.369 330.315 170.748 331.418 169.648C332.318 168.755 331.175 167.521 331.593 166.475C331.829 165.894 332.132 165.339 332.406 164.775C334.304 164.541 336.04 164.037 337.757 163.056C339.764 161.912 341.86 162.377 344.097 163.274C346.353 164.171 346.632 165.763 346.447 168.44C348.082 166.786 349.962 165.57 348.938 164.455C346.82 162.151 348.556 160.407 349.166 158.39C346.451 157.196 343.82 156.189 341.34 154.91C339.171 153.79 338.406 150.462 340.322 149.427C343.517 147.694 346.128 145.364 348.905 143.17C349.229 142.91 349.822 142.945 350.288 142.927C352.821 142.831 355.359 142.621 357.898 142.687C360.857 142.766 361.447 143.735 360.373 146.608C359.801 148.127 359.14 149.554 359.876 152.13C361.307 149.377 362.306 147.537 363.964 145.996C368.367 141.9 373.644 141.758 379.084 141.895C380.478 141.928 381.93 141.759 382.838 143.327C383.634 144.699 382.074 145.559 381.884 146.834C387.755 144.257 393.141 141.449 399.471 143.175C400.146 143.359 400.784 143.087 400.967 142.374C401.15 141.671 400.697 141.049 400.064 140.94C397.423 140.458 394.855 139.62 392.098 139.839C389.893 140.008 387.661 140.007 385.444 139.862C384.191 139.776 383.407 138.966 383.954 137.534C385.611 133.199 391.381 130.196 395.903 131.522C397.301 131.937 398.093 131.945 399.186 130.826C401.086 128.894 403.43 127.566 406.275 127.43C407.741 127.355 409.174 126.91 410.194 125.908C411.711 124.411 413.537 124.294 415.46 124.193C416.592 124.131 417.8 124.314 419.786 123.113C414.872 124.034 410.998 124.209 407.176 125.517C403.655 126.718 399.608 127.119 396.785 123.325C395.379 121.433 395.494 120.456 397.484 119.103C400.784 116.851 404.665 115.846 408.234 114.176C411.973 112.423 415.593 113.106 419.006 115.342C420.991 116.64 423.048 117.84 425.096 119.05C426.091 119.642 427.003 119.312 427.482 118.35C428.12 117.076 427.237 116.652 426.163 116.511C423.892 116.206 421.887 115.376 420.324 113.633C419.099 112.258 419.293 111.345 420.955 110.91C421.71 110.71 422.521 110.717 423.31 110.649C431.067 110.022 438.469 107.577 446.061 106.098C451.91 104.952 457.642 104.477 463.49 105.296C471.398 106.408 479.263 106.349 487.003 104.282C491.336 103.127 495.469 103.476 499.587 104.951C501.259 105.555 501.575 106.84 500.59 108.289C500.012 109.15 498.885 108.849 498.296 109.911C502.178 107.676 506.379 107.317 510.662 107.345C513.685 107.365 516.647 107.005 519.512 105.866C524.143 104.032 529.019 103.609 533.964 103.517C539.034 103.43 544.283 103.795 549.121 102.629C554.923 101.237 560.699 100.942 566.543 100.654C568.428 100.564 570.38 100.757 572.03 99.5121L612.012 98C614.839 99.1329 618.232 99.0904 619.897 102.527C620.404 103.576 622.255 103.087 623.512 103.049C629.064 102.867 634.614 102.629 640.167 102.476C641.663 102.439 643.367 101.85 644.745 103.752C642.48 105.898 640.347 107.991 637.005 108.604C632.052 109.516 622.175 114.105 618.551 116.855C618.648 118.406 621.232 118.918 620.427 120.818C619.858 122.175 618.77 123.15 617.368 123.642C616.163 124.069 616.01 124.809 616.441 125.861C617.374 128.105 616.262 129.95 615.046 131.598C611.998 135.718 607.957 138.294 602.748 138.72C600.552 138.898 598.34 138.905 595.988 138.994C595.972 141.074 597.469 141.094 598.489 141.589C600.54 142.599 602.387 143.788 602.608 146.364C602.793 148.483 602.672 150.081 600.233 151.375C597.372 152.894 594.731 154.921 591.896 156.601C584.958 160.736 577.284 162.79 569.438 163.592C564.802 164.063 561.316 165.912 558.163 168.787C556.099 170.677 553.872 172.068 551.205 172.636C547.554 173.413 544.095 174.755 540.324 175.394C535.038 176.29 529.145 177.819 526.656 184.093C525.332 187.433 521.06 188.434 519.565 191.495C518.043 194.614 516.184 197.154 513.447 199.174C512.687 199.737 512.106 200.522 511.406 201.169C508.642 203.715 506.982 203.949 503.872 201.654C501.351 199.794 498.867 198.41 495.597 198.925C494.09 199.163 492.711 198.49 491.808 197.313C489.201 193.931 486.613 190.548 486.383 185.979C486.159 181.572 486.685 177.06 484.696 172.872C484.447 172.338 484.448 171.623 484.51 171.001C484.765 168.397 490.352 162.073 492.92 161.413C497.142 160.328 497.328 160.226 495.197 156.301C493.957 154.021 493.899 152.487 496.387 151.459C495.88 150.171 494.97 150.568 494.25 150.424C491.301 149.849 490.895 149.463 491.964 146.705C493.284 143.289 493.676 140.05 492.182 136.588C491.628 135.302 490.969 134.507 489.709 133.973C486.637 132.668 483.613 131.39 480.111 131.828C474.56 132.524 469.079 130.824 463.506 131.216C461.376 131.363 459.884 130.228 459.465 127.983C459.262 126.894 458.948 125.895 458.423 124.876C456.395 120.937 455.649 120.374 451.707 121.763C447.237 123.334 442.987 125.44 438.19 126.156C436.445 126.413 434.88 127.893 433.561 129.316C431.664 131.371 429.35 132.689 426.47 132.683C424.696 132.684 423.557 133.318 422.861 135.099C421.949 137.461 419.978 139.052 417.701 140.606C419.983 141.951 422.287 141.606 424.394 142.098C426.03 142.485 428.123 142.863 426.186 145.359C425.286 146.518 426.666 146.714 427.102 146.898C430.736 148.42 434.133 150.514 438.099 151.241C441.555 151.873 444.082 153.885 445.774 157.016C446.758 158.848 447.34 160.619 445.694 162.226C443.975 163.912 445.278 164.836 446.495 165.505C448.287 166.496 450.317 166.982 452.103 168.068C453.343 168.822 454.374 169.604 455.24 170.83C456.661 172.864 456.687 174.542 454.865 176.299C453.044 178.056 451.442 180.071 449.53 181.708C446.842 184.003 445.461 183.807 443.065 181.218C442.419 180.518 441.847 179.757 441.256 179.017C439.886 177.323 438.238 176.861 436.233 177.795C435.698 179.532 437.134 180.45 437.815 181.579C439.554 184.431 439.831 187.224 437.984 190.06C436.136 192.895 433.596 194.069 430.222 193.081C429.952 193.005 429.615 193.171 429.312 193.22C428.661 193.913 429.015 194.719 429.035 195.491C429.081 197.711 428.015 198.276 425.997 197.618C422.387 196.458 418.76 195.355 415.151 194.214C413.202 193.601 412.098 191.897 410.994 190.442C409.338 188.263 407.384 187.507 404.806 187.92C401.252 188.493 397.917 187.56 394.553 186.6C392.943 186.137 392.3 185.532 393.386 183.993C395.368 181.181 397.627 178.616 401.483 179.224C409.176 180.44 412.922 175.11 417.01 170.235C417.977 169.082 417.622 168.028 416.569 167.419C414.191 166.059 412.262 164.196 410.295 162.363C409.158 161.31 407.707 161.26 406.26 161.314C402.937 161.44 399.604 161.566 396.043 161.701C395.92 163.231 397.359 164.741 395.886 166.113C392.782 169.024 390.679 172.899 387.199 175.434C383.635 178.02 380.029 180.76 374.367 178.294C375.837 181.596 377.079 183.685 378.806 185.489C380.167 186.916 380.605 188.434 379.307 190.162C378.091 191.791 376.361 192.429 374.704 191.49C371.732 189.809 369.274 190.608 366.763 192.296C366.373 192.558 365.891 192.682 365.449 192.841C360.623 194.578 358.364 192.852 358.629 187.244C353.067 189.419 347.971 192.091 343.245 195.465C342.205 196.21 341.273 197.027 339.935 197.192C331.716 198.218 325.223 202.784 319.359 208.07C317.1 210.11 313.865 213.065 317.236 216.981C317.335 217.092 317.439 217.307 317.395 217.414C315.337 222.489 319.249 222.074 322.185 222.792C325.111 223.511 327.717 224.843 330.236 226.674C334.443 229.748 338.936 232.573 344.616 231.738C345.223 231.648 345.903 231.728 346.5 231.886C348.84 232.484 349.457 233.911 348.338 236.108C347.406 237.936 346.436 239.757 345.484 241.576C345.262 241.994 344.981 242.396 344.807 242.832C343.729 245.591 344.506 248.489 346.607 249.573C347.978 250.284 352.657 248.19 353.31 246.287C354.28 243.456 355.305 240.556 355.604 237.607C355.939 234.362 357.695 232.893 360.392 231.838C365.004 230.013 369.227 227.698 372.085 223.346C373.374 221.381 374.336 219.847 373.164 217.326C371.773 214.336 372.258 213.536 375.35 211.588C377.734 210.077 379.008 208.226 379.756 205.308C380.828 201.129 382.744 197.07 386.51 194.296C388.208 193.049 389.991 192.552 391.846 193.445C394.575 194.753 397.394 194.656 400.236 194.406C402.269 194.224 403.92 194.753 405.45 196.135C406.97 197.508 408.665 198.703 410.332 199.918C413.528 202.238 413.866 203.093 411.997 206.616C411.098 208.31 410.325 209.56 412.279 211.069C413.891 212.324 415.055 213.11 417.287 211.862C420.48 210.082 423.373 207.912 426.418 205.956C429.182 204.183 430.272 204.495 431.555 207.422C433.016 210.742 434.251 214.157 435.562 217.551C436.101 218.942 435.819 220.335 435.54 221.757C434.837 225.37 436.124 228.401 439.573 229.081C445.174 230.176 446.461 235.22 449.132 238.791C450.478 240.58 449.208 243.804 447.936 245.979C446.27 248.827 446.426 252.454 443.744 254.902C442.813 255.757 443.626 257.09 444.969 257.297C445.871 257.435 446.844 257.188 447.772 257.038C451.185 256.499 452.486 257.623 452.243 261.027C452.063 263.6 450.694 265.959 452.26 268.799C453.325 270.733 449.736 274.178 447.319 273.802C445.641 273.541 443.832 273.381 442.458 272.098C440.64 270.412 438.352 270.174 436.203 270.818C433.025 271.768 429.924 271.198 426.78 271.031C425.529 270.964 424.042 271.23 423.582 269.655C423.166 268.25 424.079 267.185 425.138 266.43C430.579 262.552 433.193 256.274 437.787 251.684C438.081 251.387 438.137 250.851 438.502 249.931C435.55 250.291 433.586 252.053 431.67 253.337C426.77 256.631 421.68 258.464 415.681 258.176C411.259 257.971 406.804 258.426 402.361 258.68C400.848 258.765 399.173 258.352 397.452 260C399.468 260.115 401.105 260.034 402.671 260.346C404.411 260.7 406.017 261.583 406.518 263.462C406.952 265.124 405.86 266.253 404.54 266.885C401.289 268.429 402.406 271.228 402.732 273.543C403.059 275.905 404.947 277.398 407.27 277.825C409.315 278.196 411.391 278.375 412.974 279.869C414.111 280.952 414.86 282.096 412.813 283.194C409.177 285.134 405.422 286.945 401.416 287.669C398.831 288.139 397.022 288.97 395.587 291.113C394.576 292.629 393.544 294.595 391.095 293.61C389.032 292.772 388.422 291.012 389.023 288.004C389.111 287.553 389.247 287.118 389.505 286.107C386.01 287.498 382.829 288.61 379.794 290.041C377.957 290.902 376.116 291.878 374.401 292.934C371.457 294.753 368.602 296.911 368.244 300.816C368.095 302.424 367.233 303.334 365.958 304.173C363.8 305.6 361.454 306.594 358.94 306.937C356.995 307.202 355.322 307.828 353.632 308.788C351.7 309.882 349.903 310.77 348.952 313.123C348.281 314.779 346.736 316.297 345.212 317.346C341.829 319.687 340.445 323.659 337.503 326.316C336.756 326.993 336.797 328.079 336.862 329.02C337.14 332.605 335.494 335.462 333.45 338.162C332.688 339.173 331.787 340.056 331.464 341.355C331.265 342.154 330.746 342.794 329.946 343.063C322.64 345.532 317.071 350.826 310.8 354.945C306.976 357.454 305.204 361.784 303.411 365.82C302.585 367.672 303.256 369.783 303.943 371.817C305.341 375.999 306.38 380.289 306.644 384.752C306.86 388.453 305.034 391.097 302.755 393.606C301.327 395.176 299.782 395.187 298.176 393.798C296.963 392.747 295.795 391.618 295.186 390.144C293.57 386.229 291.359 382.478 291.646 377.976C291.723 376.733 291.568 375.404 291.19 374.226C290.563 372.275 289.352 370.757 286.966 371.448C284.712 372.106 283.025 371.378 281.339 369.906C279.13 367.978 276.49 367.753 273.716 368.535C272.499 368.877 271.278 369.362 270.04 369.428C267.756 369.543 266.12 369.9 265.953 372.787C265.856 374.526 264.252 375.464 262.441 375.237C260.094 374.954 257.656 374.779 255.453 374.004C251.636 372.661 248.174 372.906 244.459 374.506C239.495 376.648 234.763 379.088 230.361 382.201C227.426 384.276 225.834 387.064 225.882 390.6C225.92 393.374 225.407 395.949 224.175 398.409C222.791 401.16 222.215 404.072 222.369 407.146C222.551 410.954 222.743 414.752 222.82 418.564C222.881 421.689 224.097 424.333 225.544 427.044C227.524 430.755 230.7 431.779 234.297 431.081C237.44 430.475 240.568 430.233 243.726 430.028C247.768 429.76 248.682 428.953 249.461 425.109C251.055 417.334 253.62 414.795 261.386 413.395C262.475 413.202 263.599 413.178 264.705 413.165C270.528 413.097 270.348 413.619 269.531 419.257C268.308 427.772 263.541 434.848 261.107 442.836C260.428 445.065 261.156 445.4 262.928 445.361C264.51 445.33 266.032 445.244 267.561 444.566C273.488 441.948 278.727 443.057 283.024 447.777C284.984 449.925 284.357 452.514 283.927 455C283.066 459.983 281.782 464.857 281.94 470.029C282.044 473.544 283.226 476.065 285.947 478.156C289.403 480.81 291.415 481.306 295.028 479.023C299.182 476.406 302.99 476.748 307.045 479.093C310.662 481.188 313.371 480.456 314.501 476.303C316.368 469.433 321.617 467.041 327.429 465.143C328.983 464.636 330.322 463.984 331.541 462.937C332.492 462.109 333.561 461.392 334.663 460.768C335.821 460.114 337.117 459.865 338.196 460.892C339.106 461.764 339.004 462.855 338.512 463.97C338.082 464.95 337.777 465.972 337.26 467.413C340.158 467.141 341.476 465.689 342.65 463.699C344.128 461.173 344.895 461.049 347.042 462.856C350.568 465.812 354.568 467.445 359.138 467.777C359.769 467.82 360.482 467.774 361.008 468.05C365.015 470.12 368.825 469.776 372.801 467.756C375.084 466.602 377.79 467.034 380.326 467.043C381.871 467.051 383.327 467.473 384.986 467.21C387.621 466.795 388.828 468.695 388.089 471.355C386.847 475.837 387.988 478.273 392.398 479.394C395.305 480.133 397.371 481.809 398.494 484.275C401.469 490.819 406.98 492.337 413.356 492.239C416.548 492.194 419.621 492.259 422.638 493.604C428.185 496.074 433.507 498.62 435.618 505.025C437.298 510.121 440.324 514.746 441.224 520.138C441.495 521.759 442.47 522.58 443.911 523.127C447.868 524.636 451.781 526.234 455.737 527.724C459.442 529.12 463.146 530.505 466.472 532.726C466.991 533.069 467.594 533.647 468.098 533.589C473.349 533.019 477.912 535.431 482.723 536.813C483.619 537.065 484.624 537.18 485.544 537.049C489.717 536.453 492.991 538.284 495.847 540.951C498.338 543.289 501.135 544.871 504.36 545.951C507.19 546.902 510.156 547.925 512.008 550.487C514.111 553.402 514.447 556.994 515.071 560.385C515.717 563.87 515.116 567.383 513.414 570.547C511.392 574.305 509.076 577.854 506.596 581.362C502.83 586.683 498.751 592.025 498.302 599.08C498.178 601.097 498.226 602.86 499.28 604.508C500.394 606.24 500.117 607.976 500.047 609.924C499.828 615.989 496.993 621.446 496.536 627.51C496.236 631.45 494.787 635.482 493.704 639.366C492.528 643.568 489.234 647.231 484.338 647.893C476.037 649.018 469.951 653.978 463.769 658.952C462.39 660.062 461.691 661.243 461.785 662.975C461.935 665.659 461.808 668.362 462.642 670.992C463.974 675.204 463.156 678.802 459.357 681.463C458.725 681.907 457.823 682.504 457.75 683.107C457.284 686.901 454.978 689.487 452.473 692.061C451.747 692.804 451.145 694.029 451.127 695.05C451.045 699.201 449.031 702.663 447.422 706.253C444.555 712.655 440.165 716.083 432.189 712.427C431.917 712.303 431.566 712.355 430.935 712.302C432.275 714.703 433.531 716.896 434.854 719.107C436.574 721.979 436.12 725.62 435.547 728.875C435.148 731.169 432.975 732.472 430.908 733.275C427.468 734.607 426.326 737.177 425.807 740.601C425.313 743.92 425.045 747.191 425.181 750.534C425.522 758.78 426.446 767.08 425.821 775.267C425.029 785.597 426.314 795.867 425.596 806.146C425.379 809.225 426.336 811.344 429.079 812.776C430.762 813.656 432.374 814.673 433.931 815.758C435.606 816.925 436.87 818.327 435.244 820.468L433.339 820.54L433.433 820.498ZM364.166 152.616C366.395 155.059 365.763 157.782 365.568 160.431C365.361 163.271 365.639 163.585 368.432 163.804C372.621 164.122 373.629 166.067 371.447 169.65C371.133 170.167 370.779 170.648 370.146 171.568C374.434 170.214 376.391 166.755 379.151 164.352C382.124 161.769 381.94 161.452 378.507 159.427C374.684 157.158 374.576 156.819 376.264 152.798C376.562 152.1 376.934 151.342 376.144 150.38C372.265 150.422 368.116 149.634 364.167 152.626L364.166 152.616ZM470.634 117.728C479.153 117.568 480.819 116.99 482.324 113.691C478.141 114.507 474.37 115.909 470.634 117.728Z"
       fill="#F7F5F5"
       id="path616" />
    <path
       d="M1478 690.45C1475.32 693.069 1473.18 696.316 1469.09 697.148C1467.47 697.476 1466.68 699.137 1465.76 700.402C1463.48 703.549 1460.52 705.836 1457.07 707.511C1455.79 708.132 1454.52 708.771 1453.04 708.827C1451.01 708.904 1450.5 708.275 1451.14 706.362C1451.34 705.763 1451.56 705.163 1451.86 704.609C1452.69 703.004 1453.14 701.547 1451.94 699.761C1450.77 698.022 1451.61 696.407 1453.27 695.324C1460.08 690.889 1460.99 684.217 1460.12 676.983C1459.88 675.037 1459.47 673.221 1460.84 671.596C1461.95 670.276 1463.22 669.57 1464.93 670.783C1467.48 672.594 1469.81 674.528 1468.78 678.143C1467.98 680.948 1469.94 682.915 1470.76 685.211C1471.17 686.331 1472.42 686.531 1473.6 686.534C1475.02 686.538 1476.43 686.599 1477.86 686.64L1478 690.45Z"
       fill="#F7F5F5"
       id="path618" />
    <path
       d="M1180 528.494C1176.06 530.036 1173.33 528.394 1170.4 525.672C1163.01 518.818 1156.52 511.339 1151.85 502.37C1151.42 501.537 1150.91 500.612 1150.19 500.068C1146.71 497.471 1145.26 493.683 1143.83 489.837C1143.45 488.821 1143.02 487.76 1141.97 487.151C1138.05 484.848 1136.41 480.409 1133.01 477.505C1131.48 476.199 1130.13 474.228 1128.68 472.566C1127.65 471.375 1127.17 470.144 1127.69 468.656C1128.28 466.945 1129.85 466.981 1131.27 466.937C1136.83 466.755 1141.45 468.45 1144.84 473.185C1148.19 477.855 1152.45 481.633 1158.06 485.102C1157.42 483.591 1157.18 482.599 1156.64 481.818C1154.18 478.249 1152.68 474.262 1151.31 470.194C1149.36 464.431 1146.67 459.116 1141.48 455.536C1140.59 454.93 1140.21 454.163 1140.08 453.185C1139.99 452.559 1139.88 451.915 1139.92 451.294C1140.51 442.278 1138.32 433.625 1135.77 425.196C1134.3 420.331 1133.26 415.048 1129.81 410.744C1127.63 412.048 1125.54 413.376 1123.37 414.574C1120.84 415.976 1116.51 413.994 1116.6 411.082C1116.76 406.479 1114.28 402.92 1112.76 399.001C1111.88 396.707 1110.65 394.541 1107.97 393.403C1105.99 392.553 1104.41 390.781 1103.24 388.832C1102.39 387.405 1101.16 386.327 1099.52 386.103C1095.76 385.587 1092.24 384.022 1088.37 383.949C1083.77 383.866 1082.42 384.641 1080.97 389.131C1080.14 391.69 1078.21 393.441 1076.08 394.771C1074.01 396.08 1071.99 397.586 1070.94 399.6C1068.39 404.436 1063.73 407.436 1060.92 412.024C1060.01 413.508 1057.88 414.218 1056.36 415.344C1054.87 416.449 1054.3 417.71 1054.61 419.816C1055.4 425.117 1056.27 430.491 1054.27 435.793C1053.95 436.635 1053.98 437.693 1054.1 438.623C1055.23 447.315 1049.21 452.112 1043.97 457.326C1042.77 458.516 1041.35 458.255 1040.05 457.36C1038.86 456.537 1037.86 455.516 1037.28 454.165C1033.28 444.855 1028.38 435.971 1023.99 426.849C1020.84 420.292 1017.68 413.774 1015.14 406.966C1014.09 404.144 1012.95 401.345 1012.93 398.256C1012.92 396.816 1012.51 395.497 1011.89 394.157C1010.17 390.474 1010.23 390.433 1006.29 391.622C1004.14 392.266 1002.14 392.141 1000.66 390.29C999.35 388.651 997.593 387.564 996.044 386.211C995.098 385.388 993.71 384.754 993.799 383.32C993.966 380.663 991.914 379.625 990.259 378.705C986.587 376.669 983.448 374.108 980.875 370.849C979.993 369.728 978.927 369.272 977.585 369.342C974.254 369.516 970.748 369.086 967.646 370.014C961.895 371.748 956.23 370.961 950.702 370.025C947.324 369.447 943.872 368.939 940.49 368.266C938.146 367.801 936.245 366.958 935.208 364.746C934.295 362.797 932.985 362.188 931.001 363.17C930.579 363.376 930.035 363.349 929.643 363.574C925.705 365.849 922.119 364.316 918.545 362.592C916.981 361.84 915.408 361.089 913.818 360.396C910.541 358.956 907.957 356.936 906.201 353.617C904.753 350.878 902.999 348.121 900.022 346.574C898.622 345.845 897.759 345.973 897.126 347.637C895.251 352.524 897.337 356.003 901.549 358.952C903.351 360.21 905.557 361.318 907.765 362.217C910.661 363.405 912.605 366.145 913.085 369.512C913.241 370.612 913.236 371.728 913.382 372.829C913.554 374.1 914.354 374.814 915.632 374.842C918.476 374.887 921.266 375.058 923.528 372.588C925.351 370.612 927.304 368.793 928.722 366.451C930.821 362.966 932.265 363.055 934.261 366.689C935.029 368.081 935.703 369.515 936.527 370.867C938.286 373.775 940.51 375.837 944.022 376.935C951.906 379.402 953.993 388.202 948.508 394.961C946.722 397.155 944.338 398.905 944.827 402.253C944.902 402.746 944.457 403.573 944.01 403.848C940.776 405.83 939.556 410.129 935.533 411.178C932.981 415.556 927.873 415.626 924.068 417.877C922.641 418.723 921.575 419.535 920.862 421.117C919.128 424.921 916.356 427.534 911.92 427.969C909.668 428.187 907.621 429.028 905.906 430.571C905.076 431.317 904.261 432.188 903.078 432.175C900.646 432.162 898.89 433.382 897.292 435.016C895.906 436.433 894.209 437.184 892.211 437.307C891.107 437.368 889.898 437.423 889.05 438.199C886.718 440.328 884.155 440.873 881.388 439.318C880.267 440.944 880.972 442.433 881.088 443.736C881.399 447.424 885.44 449.646 888.945 448.274C890.157 447.799 891.37 447.591 892.655 447.532C893.606 447.487 894.787 447.7 895.456 447.226C900.786 443.439 907.735 444.902 913.287 441.421C916.565 439.361 919.229 441.73 918.617 445.702C917.447 453.337 916.198 460.928 912.496 467.925C910.361 471.973 909.052 476.448 907.004 480.55C903.13 488.287 898.153 495.094 890.317 499.453C886.04 501.837 883.589 506.116 880.923 509.994C878.239 513.9 875.836 517.94 872.595 521.495C868.676 525.783 867.3 531.509 865.269 536.802C864.765 538.109 864.702 539.952 865.616 540.947C867.904 543.436 867.047 546.005 866.869 548.854C866.587 553.499 866.087 558.439 870.4 562.052C871.965 563.357 871.854 565.459 871.994 567.38C872.387 572.744 872.618 578.095 873.269 583.459C874.141 590.636 870.628 596.586 864.944 601.102C864.824 601.202 864.654 601.237 864.523 601.318C859.808 603.957 854.291 605.577 851.86 611.153C851.799 611.289 851.63 611.371 851.51 611.471C845.276 616.809 844.988 617.526 848.163 625.083C850.677 631.053 849.663 636.508 846.576 641.87C845.458 643.82 843.52 644.523 841.655 645.385C838.656 646.766 837.024 648.488 836.715 652.428C836.27 658.053 835.72 664.196 830.143 667.993C829.027 668.75 828.153 670.1 827.552 671.353C824.778 677.18 820.432 681.769 816.167 686.47C811.059 692.099 804.318 694.652 797.238 695.263C791.031 695.803 785.078 696.982 779.172 698.636C775.784 699.584 772.985 698.422 770.023 697.246C767.477 696.236 768.112 693.38 766.612 691.787C764.864 689.926 765.105 688.229 766.731 686.346C767.864 685.035 767.029 683.646 766.136 682.459C763.907 679.51 762.312 676.404 761.986 672.564C761.781 670.187 760.247 668.195 758.236 666.698C754.027 663.567 751.998 659.085 751.352 654.112C750.464 647.279 748.559 640.752 745.919 634.481C742.869 627.205 740.176 619.802 736.168 612.887C733.617 608.482 734.179 602.92 735.242 597.996C735.932 594.804 737.13 591.679 737.73 588.394C738.404 584.783 740.482 581.729 742.358 578.654C744.261 575.521 744.676 572.606 742.569 569.348C740.797 566.601 740.551 563.387 740.667 560.159C740.761 557.59 740.281 555.243 738.878 552.931C737.089 549.985 735.447 546.91 734.761 543.417C733.828 538.646 730.174 535.579 727.249 532.095C724.193 528.462 721.243 524.826 719.294 520.427C718.574 518.785 718.43 517.513 719.316 515.982C720.812 513.417 721.01 510.587 720.795 507.686C720.62 505.309 720.886 503.029 721.656 500.682C723.16 496.095 719.21 490.971 714.247 490.863C711.556 490.803 708.857 491.029 706.165 491.207C703.454 491.386 701.586 490.15 700.328 487.889C699.11 485.694 698.343 483.311 695.342 482.613C691.359 481.696 687.518 481.488 683.711 483.177C678.647 485.429 673.561 487.614 668.549 489.969C666.919 490.736 665.618 490.881 663.706 490.505C657.347 489.257 650.922 488.804 644.863 492.238C640.933 494.465 637.004 494.194 633.232 491.524C628.744 488.337 623.839 485.699 620.572 481.007C619.886 480.022 618.69 479.142 617.541 478.775C613.342 477.427 611.924 473.971 610.661 470.319C610.404 469.575 610.397 468.631 609.919 468.087C606.729 464.431 603.909 460.198 600.057 457.435C595.627 454.255 592.61 451.127 593.775 445.389C594.049 444.063 593.817 442.718 593 441.766C591.055 439.513 591.857 437.527 592.923 435.208C594.236 432.354 595.191 429.362 595.758 426.203C596.994 419.29 595.726 412.738 593.554 406.249C592.887 404.243 592.489 402.027 593.229 400.168C594.858 396.101 595.726 391.566 599.272 388.505C601.414 386.659 602.638 384.477 602.958 381.594C603.321 378.328 604.807 375.506 607.814 373.829C609.355 372.969 610.057 371.617 610.523 370.093C611.279 367.632 612.923 366.225 615.207 365.09C618.014 363.687 620.808 362.179 623.025 359.778C625.077 357.554 626.27 355.049 626.291 352.092C626.366 343.992 630.421 338.241 637.143 334.439C641.67 331.874 642.622 327.279 644.606 323.275C645.421 321.633 642.985 319.245 640.526 319.023C638.795 318.87 637.039 319.098 635.291 319.021C632.149 318.892 631.667 318.481 631.382 315.497C631.174 313.283 631.055 311.142 629.807 309.129C628.923 307.703 629.436 306.149 630.276 304.639C631.856 301.813 632.544 298.802 631.894 295.489C631.172 291.787 633.152 288.403 633.559 284.802C633.788 282.8 637.97 280.658 640.112 281.083C646.896 282.447 653.721 280.892 660.523 281.484C663.833 281.769 664.485 280.848 665.235 277.481C667.117 268.999 663.437 262.72 655.138 260.602C653.405 260.162 652.268 259.346 651.581 257.827C650.623 255.689 651.349 253.955 653.691 253.599C656.014 253.254 658.272 252.215 660.726 252.799C662.448 253.211 663.726 252.943 664.284 250.805C664.867 248.589 666.107 247.341 668.85 248.505C671.534 249.644 673.561 248.032 675.27 246.069C674.595 245.093 673.745 245.316 673.014 245.411C667.274 246.162 661.26 245.483 655.984 248.687C655.723 248.84 655.373 248.929 655.068 248.922C653.256 248.904 650.953 250.031 649.845 247.975C648.697 245.853 651.158 245.131 652.267 243.954C653.514 242.629 655.489 241.391 652.631 239.696C652.417 239.571 652.186 239.027 652.276 238.871C653.562 236.819 653.517 234.389 654.293 232.214C654.862 230.609 656.53 230.089 658.075 229.591C658.508 229.451 658.897 229.15 659.345 228.895C659.474 227.24 658.208 226.287 657.369 225.288C655.721 223.31 654.28 223.803 652.695 226.009C650.892 228.509 649.862 231.266 649.084 234.156C648.349 236.902 646.769 238.736 643.845 238.846C641.303 238.942 639.414 240.425 637.267 241.384C634.088 242.801 632.736 242.347 630.821 239.634C629.451 237.693 629.384 236.17 631.724 235.023C633.428 234.186 633.784 233.247 632.926 231.248C631.254 227.373 631.85 226.492 635.961 224.505C636.523 224.236 637.238 223.98 637.525 223.512C639.373 220.428 642.355 220.363 645.439 220.227C648.162 220.105 649.961 217.51 648.893 214.985C647.95 212.741 647.454 210.967 649.303 208.914C651.489 206.475 652.927 203.14 657.093 203.622C658.185 203.743 659.312 203.538 660.419 203.563C661.039 203.587 662.184 203.839 662.177 203.925C661.905 207.56 665.787 207.089 667.187 209.057C668.395 210.757 668.451 212.243 666.894 213.684C665.365 215.106 666.145 216.068 667.036 217.675C669.062 221.337 673.122 223.548 674.034 227.996C674.396 229.756 676.276 230.553 677.742 231.508C680.871 233.545 680.852 233.565 679.473 236.936C679.351 237.227 679.161 237.491 679.038 237.782C678.679 238.635 679.001 239.329 679.586 239.926C680.241 240.598 680.993 240.55 681.717 240.046C684.783 237.899 688.634 236.618 689.987 232.562C690.827 230.06 693.299 229.604 695.276 228.928C698.288 227.889 701.127 226.58 703.954 225.176C706.715 223.804 706.998 223.717 705.39 221.031C703.191 217.356 703.812 214.11 705.947 210.796C707.586 208.254 710.219 207.02 712.798 205.892C714.674 205.068 716.205 206.45 716.113 208.58C716.069 209.679 715.71 210.76 715.637 211.86C715.565 212.998 715.724 214.184 717.073 214.543C718.826 215.001 720.114 214.027 721.302 212.905C722.434 211.832 721.801 210.73 721.03 209.997C718.924 208.007 717.578 205.454 715.722 203.283C713.517 200.687 712.403 200.49 709.884 202.712C707.947 204.426 706.028 205.891 703.334 206.26C698.639 206.905 695.851 205.294 694.629 200.714C694.285 199.44 693.597 198.398 692.984 197.315C691.319 194.393 691.427 191.203 691.565 188.032C691.656 185.902 692.972 184.402 694.865 183.759C699.393 182.214 703.092 179.166 707.352 177.107C711.8 174.955 715.946 171.632 718.749 167.31C720.244 165.003 722.03 163.057 724.023 161.294C725.924 159.61 727.926 158.104 729.066 155.705C729.604 154.569 730.6 153.663 731.841 153.197C735.254 151.914 737.629 149.43 739.636 146.503C740.467 145.289 741.515 144 743.129 144.826C746.951 146.798 749.975 144.567 752.798 142.82C754.941 141.499 756.963 140.755 759.411 140.691C766.06 140.506 772.704 139.95 779.345 141.081C781.102 141.377 782.836 141.34 783.692 143.311C784.266 144.624 785.551 145.31 786.776 145.178C790.697 144.743 794.151 146.797 797.916 147.017C804.796 147.414 811.287 149.105 817.405 152.278C818.669 152.936 820.012 153.4 821.044 154.467C822.205 155.663 822.477 157.074 821.611 158.366C820.013 160.743 818.269 163.032 814.923 163.072C811.912 163.11 808.896 163.281 805.879 163.443C804.804 163.503 803.421 163.259 802.984 164.544C802.554 165.8 803.791 166.469 804.545 167.241C804.981 167.683 805.472 168.065 806.133 168.64C807.241 167.435 807.14 165.512 808.744 164.832C810.274 164.183 811.497 165.262 812.85 165.487C814.99 165.845 816.43 165.848 818.159 163.923C820.1 161.77 822.774 160.124 825.66 159.033C828.809 157.826 828.824 157.482 828.212 154.158C827.923 152.548 825.891 151.013 827.477 149.341C828.78 147.976 830.788 148.644 832.49 148.503C833.744 148.399 835.05 148.387 836.279 148.598C838.947 149.051 839.641 150.007 839.394 152.81C839.327 153.566 838.719 154.381 839.81 154.73C840.36 154.9 841.324 154.921 841.607 154.586C845.968 149.376 853.251 150.102 858.324 146.325C859.929 145.129 861.993 145.261 863.799 146.117C866.751 147.522 869.618 147.442 872.45 145.933C873.759 145.235 875.141 144.964 876.581 144.976C879.366 144.985 881.383 144.117 883.552 141.975C886.88 138.683 891.591 139.707 895.792 140.358C897.758 140.666 899.853 141.092 901.615 142.303C902.163 142.683 902.825 142.772 903.37 142.303C903.97 141.785 903.847 141.055 903.354 140.635C898.458 136.491 903.433 133.127 904.435 129.636C905.278 126.705 908.442 126.414 911.234 126.366C911.873 126.351 912.501 126.318 913.139 126.294C918.539 126.137 918.862 126.363 920.885 131.675C922.389 131.122 923.57 130.067 924.314 128.818C925.614 126.632 927.432 126.287 929.042 127.762C932.884 131.279 936.591 127.676 940.326 127.869C940.89 127.895 941.396 127.151 941.225 126.433C940.896 125.044 940.31 123.645 941.803 122.549C943.362 121.412 944.996 120.502 947.006 120.435C948.911 120.373 950.809 120.158 952.715 120.114C954.601 120.072 956.113 119.69 956.758 117.587C957.157 116.294 958.436 115.835 959.576 115.22C963.96 112.88 968.689 111.356 973.528 110.973C978.766 110.556 983.483 107.697 988.843 108.219C989.991 108.329 990.839 107.543 991.746 106.832C994.422 104.728 997.596 103.416 1000.94 103.518C1005.5 103.651 1010.2 103.854 1014.55 105.082C1018.59 106.226 1022.7 106.7 1026.71 106.663C1031.5 106.616 1035.29 108.437 1039.06 110.774C1041.19 112.095 1041.28 113.055 1039.57 114.769C1038.91 115.433 1038.03 115.867 1037.27 116.43C1035.89 117.455 1034.52 118.498 1032.84 119.764C1035.83 120.023 1038.27 119.94 1040.3 118.032C1041.56 116.859 1043.19 116.397 1044.73 116.901C1048.47 118.114 1052.3 117.597 1056.08 117.769C1062.08 118.057 1068.05 119.033 1074.11 118.46C1076.69 118.22 1079.15 117.974 1081.31 116.414C1082.71 115.398 1084.17 115.076 1085.72 116.114C1088.73 118.117 1092.08 118 1095.39 117.475C1100.66 116.627 1105 118.322 1108.79 121.86C1110.45 123.409 1112.24 124.638 1114.6 124.768C1115.07 124.798 1115.78 125.105 1115.97 124.907C1118.6 122.137 1121.59 124.056 1124.38 124.303C1126.51 124.49 1128.62 124.267 1130.45 123.587C1132.84 122.705 1135.13 121.779 1137.7 121.596C1138.85 121.515 1139.82 120.83 1140.49 119.927C1142.27 117.532 1144.7 117.25 1147.31 117.895C1149.84 118.524 1152.36 118.276 1154.9 118.237C1157.59 118.193 1160.28 117.986 1162.84 119.215C1164.31 119.922 1165.97 119.621 1167.54 119.533C1171.55 119.315 1175.46 119.758 1179.18 121.325C1180.56 121.911 1181.97 121.848 1183.39 121.823C1184.99 121.801 1186.7 121.755 1188.04 122.601C1191.55 124.824 1195.37 124.136 1199.14 124.098C1204.83 124.045 1210.5 123.201 1216.22 124.396C1218.58 124.889 1220.83 125.386 1222.94 126.536C1225.78 128.078 1228.85 128.744 1232.1 128.602C1236.69 128.4 1241.29 128.255 1245.89 128.09C1248.74 127.982 1251.51 127.801 1254.28 129.098C1255.87 129.84 1258.08 130.777 1258.43 127.044C1258.57 125.522 1261.45 124.679 1263.76 124.887C1270.99 125.548 1278.27 125.759 1285.46 126.746C1289.33 127.277 1293.15 128.42 1297.09 128.433C1302.49 128.448 1307.67 130.017 1313.02 130.377C1317.48 130.676 1321.51 132.822 1325.65 134.324C1328.52 135.36 1331.37 136.015 1334.37 136.398C1339.84 137.106 1345.19 138.258 1350.33 140.477C1354.1 142.099 1354.2 145.413 1354.99 148.407C1355.39 149.946 1351.68 152.08 1349.39 151.47C1344.36 150.125 1339 150.165 1334.2 147.896C1332.25 146.978 1330.18 146.942 1328.14 147.467C1327 147.758 1326.14 148.544 1325.95 149.743C1325.71 151.221 1326.88 151.568 1327.96 151.918C1330.36 152.705 1332.74 153.559 1335.17 154.249C1336.26 154.551 1337.3 154.817 1338.12 155.644C1339.49 157.013 1339.67 158.294 1338.06 159.661C1336.53 160.959 1334.8 161.568 1332.81 161.538C1328.72 161.474 1325.83 163.471 1324.02 166.973C1321.89 171.059 1318.82 173.14 1314.08 172.671C1312.06 172.47 1309.96 172.464 1308.52 174.531C1307.71 175.696 1306.42 175.86 1305.13 175.126C1304.72 174.894 1304.35 174.479 1303.92 174.39C1302.23 174.034 1300.39 173.57 1299.19 175.313C1298.6 176.165 1300.85 179.961 1302.2 180.206C1307.82 181.195 1310.88 184.808 1312.93 189.813C1313.56 191.344 1315.14 192.476 1316.22 193.847C1317.79 195.819 1318.95 197.807 1316.7 200.152C1315.45 201.448 1315.65 202.7 1317.28 203.639C1319.01 204.633 1318.79 206.043 1317.65 207.192C1315.44 209.412 1316.08 211.724 1316.95 214.209C1317.99 217.202 1316.68 218.74 1313.57 218.257C1311.59 217.94 1310.14 216.65 1308.7 215.437C1303.11 210.765 1297.49 206.133 1292.02 201.333C1287.59 197.457 1284.06 192.87 1282.04 187.243C1281.37 185.39 1281.43 183.766 1283.22 182.65C1285.58 181.158 1285.92 178.981 1285.7 176.443C1285.48 173.914 1285.46 171.397 1286.6 168.98C1287.01 168.106 1286.6 167.025 1285.75 166.446C1284.65 165.697 1284.11 166.718 1283.42 167.345C1282.19 168.47 1282.15 170.798 1279.92 170.901C1277.42 171.015 1275.16 169.889 1273.38 168.488C1271.23 166.814 1269.07 166.744 1266.67 166.949C1265.44 167.053 1263.88 166.863 1263.46 168.386C1262.95 170.217 1262.81 172.149 1264.07 173.828C1264.34 174.189 1264.84 174.38 1265.23 174.652C1266.26 175.366 1267.73 176.035 1267.31 177.482C1266.9 178.861 1265.57 179.846 1264.07 179.969C1259.54 180.37 1255.09 181.186 1250.44 179.789C1245.21 178.222 1239.71 179.04 1234.48 180.23C1232.76 180.62 1231.4 181.357 1229.61 180.471C1227.53 179.434 1225.2 179.847 1223.05 180.214C1219.62 180.802 1218.94 183.974 1218.19 186.597C1217.59 188.67 1216.84 190.844 1217.05 193.116C1217.22 194.997 1215.95 196.371 1215.28 197.951C1214.26 200.335 1214.6 201.191 1217.12 201.486C1218.97 201.702 1220.44 202.324 1221.73 203.6C1222.93 204.776 1224.37 205.484 1226.05 204.772C1230.22 203.013 1234.21 204.483 1238.14 205.517C1240.2 206.059 1241.75 206.715 1242.61 204.041C1243.14 202.429 1244.26 202.272 1245.58 203.242C1246.09 203.614 1246.64 203.965 1247.07 204.416C1252.18 209.659 1257.4 214.802 1262.3 220.243C1264.68 222.881 1267.11 225.183 1270.36 226.662C1272 227.411 1272.89 228.521 1271.18 230.302C1269.27 232.311 1270.48 234.21 1271.94 235.738C1273.58 237.45 1275.43 238.973 1277.28 240.457C1279.06 241.887 1278.99 243.12 1277.5 244.807C1275.05 247.58 1274.19 248.022 1272.06 246.444C1269.57 244.602 1268.24 241.82 1266.79 239.195C1264.32 234.768 1261.11 230.893 1257.42 225.94C1257.43 228.915 1258.39 230.691 1258.56 232.554C1259.06 238.343 1257.81 243.94 1256.57 249.442C1255.66 253.539 1255.16 257.859 1253.01 261.669C1250.79 265.606 1247.45 266.972 1243.1 265.497C1239.75 264.355 1239.2 264.719 1239.08 268.243C1239.04 269.512 1239.05 270.79 1239.2 272.043C1239.46 274.446 1238.57 276.302 1236.94 278.032C1234.32 280.859 1234.27 282.72 1237.41 284.442C1242.04 286.985 1245.13 290.873 1248.33 294.844C1249.99 296.917 1250.73 299.283 1251.6 301.644C1252.43 303.892 1251.73 305.835 1249.54 306.814C1246.8 308.043 1243.97 309.094 1241.11 309.956C1239.41 310.469 1238.43 308.961 1237.9 307.703C1236.32 303.938 1234.63 300.159 1233.63 296.22C1232.95 293.556 1231.69 292.374 1229.19 292.23C1225.29 292.005 1222.82 290.478 1221.9 286.259C1221.18 282.92 1216.84 281.625 1213.8 283.38C1212.57 284.094 1211.47 285.013 1210.29 285.821C1207.87 287.476 1206.93 287.264 1205.28 284.847C1204.44 283.619 1204.25 282.215 1203.85 280.857C1203.11 278.339 1201.94 278.011 1200.28 279.924C1198.41 282.064 1196.76 284.387 1195.12 286.719C1194.47 287.649 1194.81 288.867 1195.97 288.861C1198.68 288.844 1200.42 290.171 1201.89 292.204C1202.51 293.077 1203.49 293.373 1204.39 292.729C1206.65 291.127 1208.88 291.768 1211.21 292.471C1212.56 292.887 1214.01 292.947 1215.43 293.113C1216.44 293.237 1217.32 293.537 1217.62 294.603C1218 295.905 1217.24 296.887 1216.27 297.372C1213.51 298.745 1212.18 301.265 1210.74 303.723C1209.96 305.05 1210.18 306.472 1211.46 307.015C1214.76 308.416 1216.28 311.439 1218.49 313.883C1220.82 316.474 1222.64 319.457 1225.11 321.958C1226.72 323.585 1228.13 325.715 1227.56 328.36C1227.33 329.398 1227.68 330.062 1228.37 330.866C1232.05 335.199 1232.36 339.67 1229.58 344.829C1228.08 347.642 1228.08 351.228 1227.13 354.382C1224.34 363.615 1218.84 370.594 1209.87 374.567C1209.17 374.879 1208.33 375.054 1207.56 375.026C1204.35 374.918 1201.7 375.696 1199.85 378.646C1198.69 380.492 1196.47 380.051 1194.61 380.284C1191.09 380.722 1190.41 381.521 1190 385.093C1189.85 386.339 1190.07 386.998 1191.18 387.805C1193.84 389.726 1193.81 393.246 1191.34 396.382C1189.39 398.859 1186.45 399.533 1184.25 398.014C1181.49 396.106 1180.93 392.808 1182.82 389.647C1184.5 386.818 1184.49 385.397 1182.74 383.336C1180.27 380.416 1177.8 380.519 1175.64 383.71C1175.01 384.649 1174.26 385.403 1173.42 386.14C1169.67 389.457 1169.49 394.595 1173.08 398.198C1175.43 400.55 1177.88 402.823 1180.43 404.948C1187.96 411.244 1191.05 419.557 1191.98 429.059C1192.5 434.304 1189.89 437.569 1185.99 440.005C1183.66 441.447 1181.65 442.668 1180.31 445.341C1179.25 447.479 1176.96 449.101 1175.01 450.691C1173.1 452.251 1171.4 451.572 1170.71 449.233C1170.49 448.478 1170.44 447.669 1170.36 446.881C1170.17 445 1169.46 443.778 1167.44 443.072C1164.73 442.125 1162.77 440.197 1161.27 437.545C1159.17 433.838 1156.75 430.153 1151.61 430.309C1150.38 430.356 1149.86 429.069 1148.74 428.692C1147.58 429.699 1148.16 431.031 1148.14 432.205C1148.1 434.266 1148.07 436.223 1147.28 438.255C1145.99 441.566 1146.26 444.76 1149.27 447.307C1150.87 448.658 1152.07 450.51 1152.59 452.455C1154.01 457.789 1158.17 460.493 1162.17 463.565C1165.84 466.392 1169.14 469.701 1168.82 474.968C1168.63 478.179 1170.46 480.714 1171.62 483.445C1173.95 488.869 1174.01 488.838 1169.62 492.342C1171.21 495.906 1172.16 499.761 1174.69 502.898C1175.61 504.027 1176.2 504.405 1177.79 503.887C1181.46 502.69 1181.7 502.939 1183.82 506.377C1185.06 508.381 1185.89 510.648 1189.18 509.035C1190.77 508.26 1192.05 509.757 1192.08 511.739C1192.1 513.55 1191.17 514.368 1189.43 514.262C1188.81 514.228 1188.19 513.898 1187.57 513.865C1183.76 513.666 1181.89 515.281 1182.09 519.05C1182.25 521.81 1181.34 524.371 1181.26 527.064C1180.82 527.538 1180.39 528.003 1179.95 528.477L1180 528.494ZM715.356 282.881L715.198 282.735C715.105 282.271 715.132 281.736 714.907 281.344C712.758 277.706 711.442 277.441 707.933 279.71C706.211 280.824 704.335 281.658 702.746 283.005C701.166 284.343 699.282 284.443 697.337 283.963C696.105 283.657 694.896 283.207 693.651 283.063C689.935 282.622 688.253 283.792 687.938 287.552C687.703 290.412 686.411 292.302 684.099 293.696C682.346 294.754 680.823 296.099 678.942 297.038C676.154 298.431 674.203 301.318 673.763 304.062C673.277 307.094 672.295 309.611 670.976 312.293C668.842 316.646 665.325 319.192 660.96 320.282C657.04 321.26 653.122 322.285 649.111 323.124C649.661 324.076 650.5 324.054 651.265 324.129C654.836 324.509 658.553 323.196 661.996 325.221C662.649 325.606 663.588 325.218 664.166 324.605C666.154 322.47 669.18 321.812 671.213 319.837C673.347 317.763 675.83 317.364 678.602 317.278C682.249 317.169 685.822 316.318 689.196 315.037C691.546 314.137 693.667 313.475 695.955 314.982C696.815 315.55 697.867 315.624 698.634 314.976C700.666 313.249 703.111 313.586 705.442 313.459C707.983 313.325 710.467 313.193 712.878 312.148C715.946 310.821 718.853 312.065 721.544 313.384C723.138 314.173 724.218 315.763 723.331 317.761C722.795 318.973 722.66 320.199 722.747 321.474C722.92 324.042 722.957 326.53 721.024 328.634C720.035 329.711 720.581 330.778 721.765 331.324C726.607 333.554 731.231 336.545 736.941 336.005C740.105 335.704 742.478 336.93 744.033 339.733C745.281 341.974 747.057 343.28 749.779 343.158C752.054 343.053 754.045 344.017 756.031 345.096C760.451 347.485 761.794 346.7 761.948 341.458C762.029 338.556 763.45 336.528 765.671 335.243C770.112 332.652 774.758 332.734 779.135 335.496C782.124 337.386 785.315 338.314 788.774 339.013C792.291 339.719 795.889 339.545 799.405 340.995C802.989 342.472 807.058 342.918 810.623 339.865C812.276 338.449 814.595 338.485 816.493 339.519C818.46 340.589 820.463 340.342 822.506 340.417C825.409 340.527 827.028 339.474 828.148 336.551C829.128 333.968 828.723 331.084 830.104 328.781C832.051 325.551 831.961 322.14 831.752 318.648C831.497 314.433 830.094 313.38 825.995 314.422C825.249 314.612 824.571 315.086 823.848 315.39C820.957 316.605 818.044 316.992 815.19 315.374C812.315 313.737 809.586 313.183 807.03 315.94C806.737 316.256 806.054 316.606 805.782 316.474C802.032 314.651 797.924 314.453 793.938 313.679C793.804 313.655 793.702 313.478 793.583 313.368C791.444 311.256 790.761 308.096 788.399 306.135C788.922 302.062 785.8 298.442 787.316 294.141C785.096 293.948 783.225 293.628 781.357 293.651C778.164 293.695 776.828 295.682 777.438 298.949C777.677 300.218 778.026 301.387 778.669 302.507C779.496 303.954 779.883 305.866 779.176 307.085C777.743 309.542 776.517 311.916 776.35 314.811C776.304 315.614 775.31 316.043 774.485 315.931C772.607 315.678 770.718 315.396 768.897 314.912C767.79 314.62 766.897 313.719 766.823 312.521C766.64 309.438 764.541 307.39 763.077 304.966C760.482 300.658 756.734 296.861 755.762 291.825C755.026 287.999 753.044 285.757 749.999 283.66C745.202 280.36 739.54 278.39 735.409 274.055C734.555 273.162 733.242 272.716 732.304 271.874C731.011 270.712 729.782 270.491 728.622 271.841C727.435 273.231 727.311 274.743 728.865 275.99C731.245 277.913 732.959 280.375 734.72 282.817C735.878 284.423 737.501 285.487 739.333 286.037C742.718 287.044 745.373 289.433 748.653 290.682C750.365 291.332 751.876 292.706 753.268 293.969C754.424 295.022 754.464 296.575 753.771 297.937C753.017 299.415 751.91 298.388 750.891 298.179C750.016 297.993 749.069 297.399 748.252 298.241C747.759 299.07 748.341 299.82 748.293 300.576C748.102 303.587 747.674 306.645 745.086 308.555C743.249 309.912 741.708 311.01 741.193 313.547C740.703 315.959 738.659 316.895 736.91 316.007C733.954 314.498 731.114 312.774 728.238 311.119C727.507 310.698 727.025 310.058 727.173 309.175C727.336 308.178 727.836 307.281 728.869 307.109C730.423 306.85 732.022 306.789 733.6 306.663C735.33 306.521 737.091 306.683 738.763 306.01C741.665 304.851 742.697 301.379 740.211 299.68C736.707 297.285 733.869 293.587 729.638 292.65C725.638 291.762 722.888 289.396 720.001 286.93C718.444 285.606 717.363 283.75 715.395 282.899L715.356 282.881ZM841.961 286.276C842.846 286.242 843.476 286.247 844.113 286.194C847.619 285.861 848.287 284.873 847.076 281.6C845.939 278.515 844.048 276.154 840.79 274.962C838.421 274.098 836.002 273.169 833.919 271.788C829.009 268.541 824.401 269.478 819.896 272.385C818.164 273.5 816.921 273.165 815.809 271.729C814.456 269.988 812.909 268.434 811.638 266.585C808.145 261.471 803.504 262.038 800.951 267.637C799.278 271.305 797.381 274.868 795.923 278.661C794.377 282.677 796.408 287.703 800.618 287.839C803.931 287.943 807.38 288.146 810.689 286.123C817.194 282.139 824.048 280.077 831.696 283.879C834.845 285.438 838.371 286.917 841.942 286.276L841.961 286.276ZM766.813 194.456C764.07 194.56 762.17 194.746 760.28 194.674C758.189 194.601 755.476 194.236 754.89 192.351C753.784 188.807 751.388 185.712 751.26 181.845C751.196 180.131 751.756 178.803 753.195 177.776C754.866 176.578 756.417 175.232 758.049 173.997C759.745 172.712 761.275 171.319 761.966 169.157C755.329 173.709 748.901 178.463 742.712 183.494C740.252 185.494 740.9 188.264 743.823 190.433C748.454 193.863 748.617 197.929 743.708 201.004C740.281 203.155 738.946 205.695 739.198 209.586C739.339 211.793 739.089 214.759 736.942 215.47C733.024 216.772 730.214 220.893 724.478 219.489C728.137 221.935 730.833 224.131 734.378 222.567C739.367 220.366 744.471 219.152 749.976 219.249C752.934 219.299 755.085 216.662 755.304 213.65C755.361 212.866 755.264 212.068 755.301 211.275C755.649 204.853 759.368 202.338 765.488 204.31C765.671 204.37 765.983 204.033 766.44 203.768C765.379 200.938 763.571 198.002 766.822 194.455L766.813 194.456ZM876.491 434.878C877.313 433.178 876.737 432.055 876.253 430.872C875.172 428.243 873.907 425.553 873.886 422.722C873.85 419.013 872.189 416.425 869.539 414.179C867.825 412.728 866.283 411.05 865.957 408.736C865.462 405.207 863.118 402.73 860.327 401.558C856.132 399.799 854.475 396.324 853.968 392.748C853.329 388.213 850.69 385.004 848.682 381.313C847.719 379.547 845.616 378.921 844.753 377.265C841.894 371.756 836.991 367.669 834.28 362.059C833.629 360.72 832.833 359.587 830.995 360.925C829.52 362.001 829.196 363.005 830.327 364.431C833.001 367.82 834.695 371.761 836.471 375.623C838.404 379.823 840.37 383.906 844.042 386.953C845.371 388.057 846.167 389.686 846.857 391.3C848.719 395.664 850.44 400.072 850.812 404.864C850.983 407.128 852.03 408.824 854.102 409.67C856.446 410.621 857.997 412.308 859.267 414.367C863.911 421.945 870.098 428.225 876.509 434.868L876.491 434.878ZM831.782 260.415C829.216 261.399 826.946 261.647 824.668 261.924C824.023 261.996 823.486 262.427 823.377 263.089C823.268 263.741 823.59 264.425 824.189 264.622C826.014 265.23 827.916 265.092 829.697 264.547C831.149 264.101 831.767 262.8 831.791 260.415L831.782 260.415Z"
       fill="#F7F5F5"
       id="path620" />
    <path
       d="M1287.65 571.344C1288.22 566.306 1291.83 563.022 1294.63 559.283C1295.93 557.536 1297.8 556.168 1300.15 555.955C1302.15 555.775 1302.93 554.878 1302.62 552.829C1302.28 550.506 1303.6 550.074 1305.54 550.659C1306.15 550.846 1306.75 551.052 1307.32 551.316C1311.96 553.477 1316.75 554.889 1321.95 554.196C1326.28 553.623 1327.57 558.171 1325.34 561.011C1323.85 562.918 1322.8 564.979 1321.88 567.198C1321.24 568.748 1321.59 569.764 1322.42 571.106C1325.69 576.39 1331.16 578.777 1336.16 581.716C1338.25 582.944 1340.3 581.845 1341.13 578.906C1342.1 575.397 1343.71 572.075 1344.35 568.513C1345.41 562.55 1347.84 557.041 1349.5 551.285C1350.01 549.54 1350.62 547.104 1352.81 547.136C1355.03 547.166 1355.41 549.526 1355.88 551.387C1356.03 551.992 1356.51 552.527 1356.6 553.134C1357.45 559.272 1358.76 565.173 1364.44 568.916C1364.91 572.828 1366.95 576.346 1367.27 580.292C1367.37 581.556 1367.44 582.831 1367.39 584.092C1367.27 587.406 1367.8 590.104 1371.26 591.928C1376.04 594.456 1377.03 599.911 1379.51 604.186C1379.82 604.708 1379.62 605.659 1380.02 605.978C1385.39 610.295 1385.54 617.986 1390.68 622.427C1392.38 623.907 1392.25 625.352 1391.71 627.471C1390.98 630.283 1390.09 633.235 1390.87 636.295C1391.08 637.146 1390.84 638.204 1390.54 639.074C1388.09 646.109 1385.22 652.979 1381.29 659.298C1379.66 661.915 1377.05 663.941 1374.77 666.115C1370.98 669.72 1366.99 673.104 1364.37 677.743C1364.14 678.152 1363.9 678.6 1363.56 678.909C1359.62 682.433 1356.93 686.932 1354.01 691.238C1352.93 692.843 1351.62 693.617 1349.72 693.718C1346.27 693.896 1343.36 695.542 1340.66 697.503C1337.04 700.129 1333.39 701.402 1329.37 698.464C1328.29 697.676 1327.31 697.751 1326.34 698.522C1323.21 701.015 1319.77 700.277 1316.36 699.443C1314.54 698.997 1312.84 698.165 1310.98 697.691C1307.98 696.937 1306.56 693.91 1307.09 690.486C1308.01 684.529 1307.24 683.346 1301.52 682.142C1300.54 681.931 1299.48 681.799 1299.59 680.565C1299.79 678.45 1298.88 679.085 1297.68 679.531C1295.1 680.506 1293.88 679.951 1292.98 677.573C1292.75 676.99 1292.62 676.346 1292.59 675.718C1292.37 670.738 1289.69 667.941 1285.3 665.637C1280.74 663.254 1276.41 663.589 1272.02 664.88C1266.61 666.477 1261.46 668.732 1255.81 669.861C1252.06 670.613 1247.96 672.094 1245.01 675.219C1243.43 676.89 1241.37 677.703 1239.01 677.668C1237.9 677.653 1236.79 677.79 1235.68 677.756C1230.19 677.62 1224.95 678.123 1220.73 682.298C1219.64 683.369 1218.08 684.048 1216.65 684.665C1211.52 686.843 1205.7 685.079 1202.82 680.601C1201.61 678.73 1202.56 676.968 1203.79 675.882C1208.22 671.956 1208.89 667.087 1208.15 661.621C1207.81 659.117 1207.83 656.56 1207.82 654.023C1207.82 649.37 1206.89 644.951 1205.11 640.631C1204.03 638.002 1203.26 635.084 1206.22 632.874C1207.12 632.201 1207.16 631.237 1206.97 630.29C1206.3 626.939 1207.67 624.093 1209.08 621.227C1209.71 619.953 1210.61 618.67 1210.75 617.32C1211.18 613.232 1214.22 611.448 1217.2 609.723C1218.43 609.009 1219.72 608.426 1220.72 607.387C1222.55 605.468 1224.68 604.338 1227.42 604.292C1228.31 604.277 1229.37 603.97 1230.07 603.438C1233.46 600.888 1237.46 600.078 1241.43 599.213C1246.04 598.209 1251.95 592.301 1252.7 587.59C1253.26 584.136 1254.7 581.917 1258.47 581.174C1261.12 580.654 1262.38 577.983 1264.13 576.039C1267.22 572.603 1269.94 568.656 1274.38 566.657C1278.27 564.908 1280.83 565.355 1283.84 568.36C1284.91 569.435 1285.48 571.121 1287.69 571.304L1287.65 571.344Z"
       fill="#F7F5F5"
       id="path622" />
    <path
       d="M1381.04 521.587C1381.49 523.335 1380.66 524.634 1379.62 525.894C1378.88 526.79 1378.34 527.955 1379.11 528.956C1380.72 531.088 1382.13 533.905 1384.34 534.919C1387.88 536.549 1389.64 539.744 1392.36 542.045C1394.46 543.825 1393.52 546.34 1390.86 546.193C1384.76 545.851 1378.43 545.881 1373.63 541.017C1372.5 539.868 1371.47 538.657 1370.97 537.132C1370.19 534.777 1368.43 533.68 1366.23 532.914C1363.1 531.831 1361.26 532.206 1360.4 535.51C1358.62 542.281 1349.31 543.339 1344.98 538.381C1344.36 537.67 1343.52 537.159 1342.85 536.478C1341.26 534.841 1339.66 534.672 1337.81 536.087C1336.42 537.141 1334.97 538.093 1333.01 537.566C1330.61 536.913 1329.88 535.662 1330.78 533.368C1331 532.778 1331.48 532.274 1331.63 531.677C1332.06 530.001 1335.13 529.494 1333.58 526.93C1331.76 523.899 1331.13 520.261 1327.07 518.631C1323.03 517 1318.38 516.862 1314.92 513.693C1313.78 512.649 1312.65 513.779 1311.57 514.525C1309.15 516.2 1308.63 516.048 1307.11 513.721C1306.85 513.321 1306.66 512.88 1306.42 512.469C1304.61 509.327 1305.18 506.479 1308.12 503.927C1303.82 504.09 1301.44 500.575 1297.88 499.46C1296.8 499.129 1296.32 497.898 1296.53 496.669C1296.76 495.296 1297.71 494.812 1298.97 495.051C1300.86 495.418 1302.33 494.237 1303.95 493.747C1310.63 491.739 1314.62 493.629 1316.89 500.066C1317.32 501.262 1317.8 502.445 1318.4 503.548C1319.57 505.697 1320.32 505.936 1321.89 504.265C1323.65 502.386 1325.91 501.175 1327.71 499.448C1329.87 497.373 1332.06 497.195 1334.68 498.087C1339.92 499.863 1345.28 501.348 1350.41 503.386C1353.38 504.561 1356.54 504.785 1359.5 505.989C1363.94 507.795 1367.19 511.039 1370.32 514.344C1372.76 516.932 1375.04 519.373 1378.73 520.053C1379.59 520.212 1380.31 521.081 1381.08 521.624L1381.03 521.569L1381.04 521.587Z"
       fill="#F7F5F5"
       id="path624" />
    <path
       d="M1224.25 517.293C1222.78 517.368 1221.73 517.284 1220.86 516.382C1218.65 514.11 1216.01 513.905 1213.04 514.675C1209.14 515.69 1205.56 514.176 1201.97 512.938C1200.29 512.363 1199.67 510.947 1199.4 509.259C1199 506.718 1198.2 504.317 1196.3 502.462C1195.02 501.204 1195.1 499.618 1194.96 498.05C1194.76 495.711 1194.9 493.407 1193.76 491.124C1192.68 488.971 1195.09 485.237 1198.01 484.907C1201.36 484.523 1203.63 483.445 1204.69 480.058C1205.19 478.446 1206.77 477.605 1208.4 477.447C1211.48 477.159 1213.2 475.301 1214.44 472.746C1215.49 470.561 1216.93 468.571 1218.97 467.339C1222.88 464.979 1225.65 461.612 1228.2 457.949C1230.22 455.04 1231.48 454.955 1233.58 457.784C1234.97 459.667 1236.51 460.925 1238.83 461.486C1239.95 461.758 1240.95 462.817 1241.88 463.65C1242.76 464.437 1243.29 465.504 1242.4 466.577C1241.19 468.053 1241.09 470.289 1239.39 471.345C1236.18 473.345 1236.8 476.126 1238.08 478.642C1239.45 481.327 1239.69 484.447 1241.53 486.923C1242.55 488.287 1242.55 489.517 1240.52 490.137C1237.99 490.9 1237.16 492.839 1237.35 495.312C1237.52 497.423 1236.7 498.96 1234.9 500.087C1232.69 501.477 1231.8 503.494 1231.91 506.132C1232.03 508.998 1230.63 511.616 1229.98 514.34C1229.39 516.851 1226.04 516.377 1224.27 517.283L1224.25 517.293Z"
       fill="#F7F5F5"
       id="path626" />
    <path
       d="M918.98 587.214C917.499 590.417 917.662 594.712 915.865 598.385C914.998 600.163 914.622 601.827 914.389 603.733C913.769 608.773 911.773 613.474 910.315 618.307C909.138 622.233 907.605 626.058 906.129 629.891C905.547 631.391 905.289 632.898 905.12 634.487C904.495 640.405 900.027 645.037 894.236 645.981C890.114 646.652 883.721 641.753 883.211 637.347C882.86 634.366 882.861 631.352 881.845 628.453C881.151 626.477 882.061 624.583 883.1 623.056C886.615 617.906 887.29 612.311 886.576 606.292C886.185 603.007 886.079 599.712 887.945 596.608C889.148 594.617 890.367 592.816 892.713 592.337C898.315 591.19 901.789 587.492 904.163 582.682C905.987 578.989 909.63 576.486 910.546 572.207C910.846 570.813 912.134 570.831 913.153 571.803C913.717 572.345 914.33 572.913 914.689 573.595C916.837 577.682 918.325 581.984 918.971 587.214L918.98 587.214Z"
       fill="#F7F5F5"
       id="path628" />
    <path
       d="M1283.83 269.802C1281.41 271.191 1279.8 271.328 1278.72 268.927C1278.27 267.943 1277.5 267.095 1276.84 266.204C1275.49 264.386 1274.92 261.737 1276.07 260.406C1279.12 256.867 1276.65 254.424 1275.29 251.576C1274.85 250.677 1273.61 249.742 1274.66 248.615C1275.52 247.686 1276.73 248.012 1277.78 248.392C1280.16 249.237 1282.55 250.052 1284.89 251.013C1287.66 252.148 1290.28 253.298 1293.48 253.263C1296.79 253.233 1298.4 256.367 1300.11 258.763C1300.85 259.794 1300.01 260.922 1298.95 261.506C1296.98 262.591 1295.29 263.742 1294.55 266.145C1294.04 267.804 1292.41 267.837 1290.95 267.12C1289.24 266.279 1287.49 265.792 1285.54 265.799C1285.01 268.022 1286.75 268.49 1287.83 269.041C1292.86 271.597 1295.27 275.94 1297.1 281.05C1298.86 285.961 1299.16 291.281 1301.61 295.985C1302.35 297.397 1302.1 299.095 1302.06 300.68C1302.01 302.474 1301.33 303.845 1299.27 303.722C1297.66 303.631 1296.66 304.536 1295.48 305.354C1294.05 306.323 1292.51 307.249 1290.67 307.214C1288.89 307.176 1288.03 307.905 1287.14 309.598C1285.24 313.237 1283.55 313.262 1280.04 310.267C1278.94 313.98 1275.69 315.457 1272.67 316.811C1270.99 317.571 1270.53 318.323 1270.57 319.886C1270.59 320.676 1270.6 321.496 1270.39 322.238C1269.83 324.205 1268.61 325.634 1266.48 325.886C1264.49 326.124 1262.88 324.954 1262.31 323.326C1261.5 320.972 1260.2 319.133 1258.43 317.502C1257.58 316.724 1256.92 315.671 1257.4 314.528C1259.57 309.248 1262.19 304.257 1266.87 300.675C1267.95 299.852 1269.21 299.786 1270.47 299.662C1274.25 299.29 1277.63 298.399 1278.48 293.875C1278.74 292.473 1280.03 292.1 1281.27 291.624C1286.86 289.486 1287.86 286.902 1285.47 281.337C1283.99 277.874 1282.19 274.461 1283.83 269.812L1283.83 269.802Z"
       fill="#F7F5F5"
       id="path630" />
    <path
       d="M1246.68 420.935C1245.09 418.754 1242.42 418.33 1240.29 417.037C1236.49 414.73 1234.82 412.113 1235.92 408.076C1236.86 404.626 1237.12 401.288 1236.72 397.746C1236.35 394.432 1237.31 393.594 1240.73 393.312C1245.26 392.941 1246.55 393.75 1248.37 397.982C1249.93 401.604 1250.77 404.987 1248.24 408.764C1246.41 411.503 1248.28 414.389 1251.71 414.812C1253.29 415.01 1254.78 415.231 1256.3 415.831C1259.06 416.918 1260.91 418.584 1261.12 421.647C1261.27 423.73 1262.25 424.523 1264.34 424.949C1268.03 425.697 1269.65 428.191 1268.74 432.002C1267.85 435.717 1268.92 437.822 1271.68 440.56C1274.82 443.674 1276.72 448.475 1276.37 453.019C1276.14 456.031 1273.95 458.937 1273.32 462.194C1273.04 463.702 1271.41 464.145 1269.8 463.739C1266.19 462.826 1263.55 460.876 1262.32 457.174C1261.19 453.755 1260.06 453.349 1256.75 454.838C1256.04 455.161 1255.38 455.748 1254.65 455.833C1253.39 455.986 1252.35 455.443 1252.68 453.943C1253.34 451.057 1253.59 447.901 1257.18 446.754C1258.38 446.375 1259.3 445.386 1259.9 444.2C1261.05 444.586 1262 446.381 1263.17 445.507C1264.37 444.613 1265.26 443.225 1266.54 442.28C1267.08 441.878 1266.9 441.189 1266.49 440.594C1264.63 437.86 1263.08 437.9 1261.45 440.813C1260.85 441.904 1260.44 443.102 1259.93 444.247C1257.08 442.895 1253.23 442.535 1253.75 437.862C1253.83 437.144 1252.84 437.095 1252.43 436.653C1252.01 436.201 1251.55 435.685 1251.41 435.128C1250.97 433.437 1250.49 431.5 1252.26 430.384C1253.85 429.38 1255.27 430.423 1256.4 431.668C1256.95 432.276 1257.48 432.953 1258.3 432.178C1258.93 431.581 1259.2 430.484 1258.41 430.133C1255.66 428.902 1253.39 427.566 1253.77 423.937C1253.82 423.449 1252.46 422.642 1251.64 422.254C1250.06 421.522 1248.41 420.955 1246.64 420.879L1246.67 420.906L1246.68 420.935Z"
       fill="#F7F5F5"
       id="path632" />
    <path
       d="M1252.25 516.206C1251.06 517.548 1251.63 518.862 1251.51 520.058C1251.37 521.532 1250.87 522.838 1249.98 523.988C1249 525.265 1247.69 525.591 1246.16 525.143C1244.84 524.754 1244.65 523.636 1244.56 522.515C1244.47 521.564 1244.35 520.596 1244.48 519.666C1244.89 516.818 1244.42 514.394 1242.01 512.445C1240.5 511.214 1240.46 509.375 1241.14 507.623C1242.88 503.19 1244 498.637 1244.92 493.948C1246.19 487.51 1252.02 484.305 1258.23 486.187C1261.59 487.204 1264.45 487.134 1266.78 484.185C1267.16 483.694 1267.67 483.265 1268.19 482.921C1270.29 481.535 1271.94 482.34 1272.11 484.794C1272.39 488.922 1269.69 492.115 1265.48 492.579C1261.86 492.983 1258.19 491.93 1254.59 492.953C1253.68 493.206 1252.67 493.206 1251.84 493.6C1250.64 494.151 1250.46 495.302 1250.91 496.439C1251.36 497.557 1252.27 497.618 1253.27 497.151C1255.85 495.928 1258.75 496.305 1261.45 495.611C1262.69 495.297 1264.04 495.752 1264.66 497.083C1265.33 498.516 1264.45 499.475 1263.42 500.324C1263.18 500.524 1262.96 500.771 1262.69 500.924C1257.68 503.775 1257.49 505.756 1261.09 512.009C1262.84 515.052 1263.06 517.943 1262.92 521.057C1262.83 523.311 1260.96 524.069 1259.32 522.509C1258.04 521.299 1257.13 520.37 1255.06 520.525C1252.65 520.711 1253.42 517.611 1252.25 516.206Z"
       fill="#F7F5F5"
       id="path634" />
    <path
       d="M1404.37 739.182C1402.18 739.37 1400.36 738.199 1398.38 737.673C1394.8 736.712 1394.19 734.78 1397.23 732.615C1403.36 728.272 1408.8 722.964 1416.4 720.674C1421.61 719.104 1426.71 716.536 1430.3 711.976C1432.78 708.82 1436.89 707.702 1439.49 704.599C1440.53 703.349 1446.48 704.326 1447.54 705.678C1448.87 707.363 1448.73 709.295 1447.39 710.909C1445.78 712.859 1444.13 714.838 1442.18 716.419C1439.71 718.419 1437.11 720.253 1435.02 722.64C1433.18 724.732 1430.59 725.354 1428.2 725.635C1424.25 726.099 1421.54 728.081 1419.03 730.894C1415.79 734.516 1411.28 736.318 1407.12 738.582C1406.33 739.013 1405.29 738.986 1404.36 739.173L1404.37 739.182Z"
       fill="#F7F5F5"
       id="path636" />
    <path
       d="M1180 528.494C1180.44 528.029 1180.87 527.555 1181.31 527.081C1183.98 527.352 1186.59 528.092 1189.32 527.856C1190.61 527.74 1191.81 528.134 1192.9 528.903C1195.61 530.822 1198.62 530.68 1201.55 529.749C1203.44 529.143 1205.2 528.905 1207.12 529.452C1209.6 530.169 1212.16 529.662 1214.69 529.7C1218.27 529.756 1218.41 529.788 1219.08 533.444C1219.26 534.429 1219.76 534.725 1220.42 535.139C1222.45 536.445 1224.81 537.099 1227.06 537.453C1229.44 537.83 1231.82 537.664 1234.04 539.02C1234.97 539.595 1236.15 538.711 1237.17 538.291C1238.82 537.6 1240.53 537.392 1242.3 537.611C1243.25 537.727 1244.2 537.949 1244.53 539.053C1244.89 540.279 1244.52 541.571 1243.42 541.879C1240.72 542.649 1238.03 544.677 1235.67 544.566C1233.18 544.45 1229.98 544.352 1227.75 542.567C1226.45 541.539 1225.4 541.149 1223.91 541.692C1222.51 542.203 1221.14 541.883 1219.71 541.689C1218 541.458 1216.15 541.194 1214.52 541.599C1210.31 542.645 1206.43 542.029 1202.56 540.239C1200.69 539.375 1198.61 539.063 1196.52 539.161C1190.63 539.441 1185.47 537.1 1180.33 534.671C1178.8 533.947 1178.25 532.757 1179.25 531.193C1179.79 530.352 1179.93 529.432 1180.01 528.484L1180 528.494Z"
       fill="#F7F5F5"
       id="path638" />
    <path
       d="M607.633 183.672C602.687 183.764 598.585 182.441 594.374 181.789C593.53 181.659 592.649 181.063 593.037 180.228C593.805 178.607 592.21 177.503 592.408 176.189C592.629 174.731 592.5 174.097 590.842 174.36C589.827 174.523 588.932 174.042 588.551 173.055C587.981 171.588 589.449 171.314 590.125 170.535C592.364 167.961 594.754 167.622 598.161 168.457C604.08 169.921 610.158 169.262 616.013 167.505C619.747 166.391 622.816 167.105 625.417 170.087C627.46 172.422 627.55 173.544 625.507 175.748C624.618 176.697 623.514 177.245 622.362 177.813C618.112 179.89 613.345 180.671 609.253 183.163C608.601 183.559 607.755 183.639 607.623 183.682L607.633 183.672Z"
       fill="#F7F5F5"
       id="path640" />
    <path
       d="M328.247 420.193C328.265 422.453 324.819 424.863 322.568 424.347C321.5 424.101 320.417 423.694 319.481 423.138C317.998 422.25 316.604 421.95 315.016 422.84C313.289 423.82 312.261 423.363 311.313 421.482C308.552 416.046 303.732 413.386 297.913 412.319C297.135 412.177 296.292 412.333 295.549 412.103C291.93 410.953 288.369 409.819 284.928 412.638C284.512 412.978 283.699 412.904 283.068 412.88C281.731 412.817 279.958 413.589 279.295 411.926C278.747 410.564 280.339 409.789 281.075 408.826C282.982 406.313 285.542 405.157 288.63 404.364C294.957 402.732 300.332 404.684 306.211 406.846C312.023 408.982 316.378 412.946 321.513 415.851C323.159 416.781 325.212 416.856 326.611 418.281C327.255 418.944 328.207 419.384 328.247 420.193Z"
       fill="#F7F5F5"
       id="path642" />
    <path
       d="M1322.46 708.473C1324.81 708.67 1327.06 709.538 1329.5 709.351C1331.76 709.17 1333.6 708.834 1333.7 706.007C1333.73 705.081 1334.03 703.991 1335.27 704.049C1336.31 704.096 1336.91 704.951 1337.39 705.772C1337.89 706.63 1337.96 707.62 1337.58 708.53C1334.64 715.727 1330.2 721.732 1323.3 725.578C1321.73 726.448 1319.53 727.752 1318.06 725.939C1316.58 724.116 1314.67 722.042 1316.07 719.157C1317.17 716.855 1316.53 714.133 1317.78 711.806C1318.82 709.86 1319.99 708.328 1322.47 708.482L1322.46 708.473Z"
       fill="#F7F5F5"
       id="path644" />
    <path
       d="M336.664 420.142C342.68 419.104 347.097 422.952 352.177 424.391C353.478 424.761 353.949 426.116 353.887 427.502C353.822 429.059 352.726 429.577 351.414 429.941C347.187 431.121 342.68 431.216 338.656 433.218C338.263 433.414 337.7 433.407 337.248 433.319C334.32 432.772 331.472 431.849 328.46 431.629C327.504 431.561 326.729 430.741 326.66 429.685C326.578 428.525 327.416 427.969 328.431 427.854C331.308 427.526 332.414 426.502 330.87 423.508C329.934 421.684 331.205 420.52 333.114 420.295C334.367 420.153 335.636 420.181 336.645 420.143L336.664 420.142Z"
       fill="#F7F5F5"
       id="path646" />
    <path
       d="M1051.76 459.434C1051.08 456.57 1052.9 453.879 1053.33 450.945C1053.59 449.161 1054.98 448.822 1056.58 449.42C1056.73 449.471 1056.85 449.581 1056.99 449.652C1061.16 451.621 1065.81 459.828 1065.39 464.479C1065.11 467.599 1060.91 471.114 1057.78 470.928C1056.38 470.847 1055.22 470.195 1054.73 469.012C1053.49 465.997 1051.59 463.17 1051.76 459.444L1051.76 459.434Z"
       fill="#F7F5F5"
       id="path648" />
    <path
       d="M1381.08 521.643C1380.85 518.924 1381.93 517.481 1384.83 517.419C1386.39 517.389 1387.93 516.815 1389.5 516.699C1393.95 516.368 1396.07 513.408 1397.74 509.778C1398.28 508.585 1398.32 507.697 1397.2 506.9C1396.43 506.347 1395.61 505.835 1394.98 505.143C1393.95 504.028 1394.24 503.149 1395.74 502.759C1395.89 502.715 1396.05 502.709 1396.21 502.703C1400.46 502.361 1406.32 508.538 1405.7 512.682C1405.55 513.698 1405.13 514.83 1404.02 514.462C1402 513.775 1401.58 515.298 1400.74 516.36C1400.64 516.487 1400.53 516.606 1400.46 516.742C1396.41 524.315 1387.43 524.865 1381.04 521.597L1381.09 521.652L1381.08 521.643Z"
       fill="#F7F5F5"
       id="path650" />
    <path
       d="M1229.36 367.421C1229.19 365.062 1229.52 362.97 1230.47 360.874C1231.44 358.749 1232.74 357.479 1235.11 357.733C1237.04 357.937 1239.11 360.385 1238.71 362.604C1238.09 366.003 1238.36 369.502 1237.28 372.834C1236.26 375.972 1234.88 376.367 1232.16 374.381C1229.66 372.559 1229.26 370.047 1229.36 367.411L1229.36 367.421Z"
       fill="#F7F5F5"
       id="path652" />
    <path
       d="M1262.82 547.01C1262.68 544.069 1263.83 542.08 1266.47 541.255C1268.66 540.572 1270.43 539.579 1272.04 537.898C1274.11 535.731 1276.93 535.881 1279.61 536.524C1281.57 536.993 1281.96 538.6 1280.61 540.11C1280.1 540.683 1279.43 541.204 1278.74 541.526C1274.56 543.41 1270.43 545.359 1267.2 548.752C1266.4 549.603 1265.36 550.033 1264.2 549.476C1263.02 548.92 1262.91 547.789 1262.83 547.01L1262.82 547.01Z"
       fill="#F7F5F5"
       id="path654" />
    <path
       d="M1284.87 502.775C1284.44 502.61 1284 502.483 1283.6 502.27C1282.79 501.842 1279.99 495.549 1280.48 494.844C1282.4 492.073 1281.61 489.089 1281.43 486.139C1281.37 485.197 1281.3 484.237 1281.42 483.307C1281.73 480.95 1282.95 480.283 1284.93 481.534C1285.86 482.128 1286.68 482.67 1287.82 482.913C1291.2 483.624 1291.62 484.552 1289.04 487.024C1285.14 490.758 1285.35 495.07 1286.64 499.542C1287.21 501.552 1286.21 502.038 1284.88 502.774L1284.87 502.775Z"
       fill="#F7F5F5"
       id="path656" />
    <path
       d="M1278.54 508.364C1281.55 508.05 1284.47 508.264 1287.55 507.08C1291.05 505.736 1295.02 506.892 1298.47 508.755C1299.42 509.272 1300.55 509.773 1300.06 511.241C1299.67 512.381 1298.89 513.155 1297.66 513.23C1296.89 513.278 1296.05 513.253 1295.34 512.984C1291.46 511.548 1287.69 511.375 1283.94 513.415C1283.17 513.835 1282.07 513.924 1281.19 513.777C1279.71 513.546 1277.82 514.133 1276.92 512.403C1275.92 510.504 1278.05 509.699 1278.59 508.325L1278.54 508.364Z"
       fill="#F7F5F5"
       id="path658" />
    <path
       d="M1440.91 541.257C1440.6 541.298 1440.28 541.319 1439.97 541.369C1437.49 541.797 1435.57 541.049 1434.64 538.595C1433.69 536.085 1435.7 535.046 1438.4 533.322C1434.44 533.52 1432.59 531.444 1430.28 530.253C1429.16 529.676 1428.63 528.694 1429.19 527.51C1429.89 526.005 1431.28 526.077 1432.4 526.787C1435.03 528.443 1437.51 530.094 1440.69 530.928C1442.47 531.394 1443.53 534.463 1444.17 536.756C1444.43 537.653 1443.76 538.25 1442.96 538.5C1441.55 538.935 1440.95 539.892 1440.89 541.306L1440.91 541.267L1440.91 541.257Z"
       fill="#F7F5F5"
       id="path660" />
    <path
       d="M1459.33 603.961C1459.43 606.456 1457.83 607.632 1455.94 606.607C1451.79 604.341 1449.09 600.648 1446.66 596.734C1446.47 596.418 1446.52 595.729 1446.74 595.425C1447.39 594.552 1448.39 594.514 1449.31 594.918C1453.16 596.584 1456.32 599.154 1458.78 602.542C1459.13 603.024 1459.23 603.698 1459.33 603.961Z"
       fill="#F7F5F5"
       id="path662" />
    <path
       d="M1421.72 525.838C1416.34 525.688 1412.79 523.142 1411.11 518.075C1410.78 517.124 1410.53 516.19 1411.58 515.616C1412.48 515.134 1413.48 515.249 1414.19 515.994C1415.17 517.006 1415.96 518.197 1416.95 519.199C1418.23 520.524 1419.35 522.198 1421.58 522.009C1421.88 521.988 1422.22 522.071 1422.49 522.213C1423.49 522.747 1424.53 523.433 1424.3 524.681C1424.04 526.102 1422.72 525.914 1421.73 525.828L1421.72 525.838Z"
       fill="#F7F5F5"
       id="path664" />
    <path
       d="M1250.26 537.462C1252.3 537.5 1254.34 537.499 1256.37 537.603C1257.67 537.669 1258.99 537.972 1259.13 539.568C1259.26 540.984 1258.03 541.412 1257.01 541.68C1253.59 542.572 1250.17 541.948 1246.83 541.273C1245.32 540.968 1245.64 539.669 1246.43 538.685C1247.41 537.456 1248.82 537.298 1250.26 537.453L1250.26 537.462Z"
       fill="#F7F5F5"
       id="path666" />
    <path
       d="M1278.59 508.325C1275.24 507.755 1273.11 504.889 1269.99 503.786C1268.61 503.304 1269 501.868 1270.32 501.38C1272.44 500.594 1274.66 500.71 1276.84 501.181C1278.14 501.456 1278.57 502.479 1278.6 503.651C1278.64 505.223 1278.57 506.79 1278.54 508.364L1278.59 508.325Z"
       fill="#F7F5F5"
       id="path668" />
    <path
       d="M1246.65 420.907C1247.6 421.968 1248.56 423.057 1248.89 424.484C1249.23 425.902 1248.52 426.959 1247.38 427.679C1246.41 428.288 1245.54 427.73 1244.82 427.08C1244.24 426.558 1243.68 425.978 1243.24 425.337C1242.13 423.729 1239.84 421.975 1241.51 420.081C1242.82 418.601 1245 420.082 1246.67 420.935L1246.64 420.907L1246.65 420.907Z"
       fill="#F7F5F5"
       id="path670" />
    <path
       d="M1248.79 548.772C1247.4 548.405 1245.71 548.03 1244.06 547.52C1243.09 547.213 1242.53 546.433 1242.54 545.384C1242.55 544.182 1243.39 543.788 1244.4 543.702C1246.27 543.555 1248.2 543.177 1249.98 543.939C1251.31 544.509 1252.5 545.446 1252.12 547.168C1251.76 548.774 1250.34 548.684 1248.79 548.772Z"
       fill="#F7F5F5"
       id="path672" />
    <path
       d="M362.454 426.605C364.664 426.55 366.942 428.047 366.528 429.436C365.919 431.5 364.083 432.113 362.153 432.272C360.423 432.414 359.064 431.769 358.819 429.823C358.574 427.897 360.006 426.669 362.454 426.605Z"
       fill="#F7F5F5"
       id="path674" />
    <path
       d="M1429.77 532.886C1429.71 533.937 1429.04 534.506 1427.96 534.585C1426.36 534.693 1423.56 532.253 1423.66 530.79C1423.72 529.872 1424.45 529.492 1425.3 529.412C1427.29 529.232 1429.76 531.112 1429.78 532.885L1429.77 532.886Z"
       fill="#F7F5F5"
       id="path676" />
    <path
       d="M1440.89 541.306C1442.95 539.931 1444.7 540.694 1446.41 542.051C1447.32 542.779 1447.31 543.647 1446.79 544.535C1446.26 545.414 1445.48 545.891 1444.43 545.302C1442.77 544.382 1441.12 543.452 1440.91 541.257L1440.88 541.297L1440.89 541.306Z"
       fill="#F7F5F5"
       id="path678" />
    <path
       d="M307.017 137.63C303.123 139.284 299.103 139.389 295.03 138.847C293.908 138.698 292.708 138.715 292.352 137.374C291.951 135.844 292.93 135.025 294.188 134.491C297.51 133.078 300.653 131.205 304.502 131.393C306.862 131.513 309.242 131.147 311.614 131.105C314.035 131.071 316.062 130.956 318.445 132.964C321.144 135.246 325.323 135.803 328.888 137.041C330.028 137.437 330.522 136.369 331.184 135.734C334.633 132.38 335.922 132.16 340.115 134.614C341.061 135.17 341.864 134.977 342.781 135.028C344.998 135.154 345.527 136.269 344.221 138.064C342.291 140.721 339.81 142.703 336.381 142.785C328.34 142.965 320.323 144.556 312.249 143.097C310.713 142.822 309.092 143.064 307.508 143.048C306.545 143.036 305.513 142.98 305.019 142.016C304.442 140.884 305.421 140.313 306.124 139.733C306.605 139.334 307.156 139.027 307.676 138.673C307.463 138.329 307.24 137.984 307.027 137.639L307.017 137.63Z"
       fill="#F7F5F5"
       id="path680" />
    <path
       d="M370.465 137.615C367.431 138.331 364.583 139.688 361.263 139.375C358.2 139.08 355.448 137.649 352.345 137.547C351.209 137.514 350 136.568 349.42 135.35C348.861 134.169 349.077 133.074 350.446 132.727C352.127 132.301 354.141 131.833 355.464 133.033C357.38 134.772 358.488 133.834 360.341 132.896C363.943 131.081 368.053 131.832 371.965 131.894C373.377 131.917 373.783 133.084 372.99 134.296C372.215 135.48 371.283 136.554 370.419 137.674L370.465 137.615Z"
       fill="#F7F5F5"
       id="path682" />
    <path
       d="M372.955 128.318C369.929 128.242 366.816 127.377 364.481 124.624C363.363 123.293 363.705 122.259 365.209 121.678C366.994 120.99 368.842 120.425 370.628 121.768C371.668 122.549 372.863 122.857 374.147 123.037C375.777 123.262 377.555 123.891 377.369 125.795C377.163 127.901 375.192 128.224 372.955 128.318Z"
       fill="#F7F5F5"
       id="path684" />
    <path
       d="M338.821 132.432C338.429 132.399 337.926 132.465 337.51 132.3C335.865 131.666 333.362 132.037 333.116 129.577C332.867 127.021 335.357 127.556 336.803 126.967C338.098 126.432 339.391 125.811 340.821 125.814C342.128 125.812 343.331 126.11 343.87 127.501C344.325 128.695 343.78 129.669 343.009 130.471C341.909 131.638 340.554 132.376 338.812 132.432L338.821 132.432Z"
       fill="#F7F5F5"
       id="path686" />
    <path
       d="M390.756 126.767C390.43 127.733 389.682 128.372 388.879 128.841C386.845 130.015 382.432 128.56 381.434 126.357C380.622 124.575 381.866 123.68 383.246 123.103C384.701 122.495 389.658 124.472 390.494 125.89C390.646 126.151 390.678 126.474 390.756 126.767Z"
       fill="#F7F5F5"
       id="path688" />
    <path
       d="M370.419 137.674C372.671 136.969 374.844 135.933 377.323 136.173C379.17 136.351 380.395 137.22 380.483 139.057C380.572 140.904 379.118 141.283 377.591 141.494C373.076 142.122 371.617 141.358 370.465 137.615L370.419 137.674Z"
       fill="#F7F5F5"
       id="path690" />
    <path
       d="M381.165 134.378C380.676 134.32 379.731 134.289 378.818 134.104C377.665 133.862 376.648 133.204 376.724 131.923C376.812 130.461 378.136 130.43 379.23 130.36C381.114 130.25 383 130.208 384.888 130.203C385.698 130.201 386.471 130.458 386.64 131.415C386.787 132.267 386.384 132.95 385.706 133.424C384.479 134.272 383.051 134.335 381.175 134.387L381.165 134.378Z"
       fill="#F7F5F5"
       id="path692" />
    <path
       d="M715.356 282.881C715.497 285.079 715.646 287.248 715.148 289.47C714.568 292.038 716.084 294.317 716.671 296.727C717.665 300.818 716.972 303.162 714.097 305.045C711.379 306.816 708.868 305.958 708.623 302.753C708.357 299.254 706.836 295.592 709.195 292.174C709.774 291.332 709.44 290.334 708.979 289.474C706.722 285.277 709.758 283.36 713.317 282.672C713.923 282.554 714.578 282.71 715.198 282.735L715.356 282.881Z"
       fill="#F7F5F5"
       id="path694" />
    <path
       d="M820.241 324.901C820.002 324.881 819.184 324.941 818.46 324.711C816.52 324.079 815.973 321.982 817.536 320.683C819.616 318.955 822.144 317.991 824.845 317.803C826.576 317.681 827.381 319.052 826.547 320.695C825.367 323.029 823.691 324.847 820.241 324.911L820.241 324.901Z"
       fill="#F7F5F5"
       id="path696" />
    <path
       d="M786.303 324.344C784.527 324.039 782.198 323.727 779.91 323.212C778.967 323 778.23 322.17 778.23 321.159C778.235 320.033 779.26 319.641 780.157 319.426C782.699 318.815 785.167 319.523 787.601 320.098C788.765 320.369 790.164 321.041 789.89 322.625C789.616 324.209 788.127 324.16 786.312 324.343L786.303 324.344Z"
       fill="#F7F5F5"
       id="path698" />
  </g>
  <circle
     cx="693"
     cy="254.136"
     r="3.5"
     fill="#F7F5F5"
     stroke="#86B32E"
     stroke-width="5"
     id="primus-e-4" />
  <circle
     cx="763"
     cy="244"
     r="3.5"
     fill="#F7F5F5"
     stroke="#86B32E"
     stroke-width="5"
     id="primus-e-3" />
  <circle
     cx="808"
     cy="234"
     r="3.5"
     fill="#F7F5F5"
     stroke="#86B32E"
     stroke-width="5"
     id="primus-e-2" />
  <circle
     cx="788"
     cy="175.136"
     r="3.5"
     fill="#F7F5F5"
     stroke="#86B32E"
     stroke-width="5"
     id="primus-e-1" />
  <circle
     cx="667"
     cy="299"
     r="3.5"
     fill="#F7F5F5"
     stroke="#86B32E"
     stroke-width="5"
     id="primus-e-6" />
  <circle
     cx="171"
     cy="256"
     r="3.5"
     fill="#F7F5F5"
     stroke="#86B32E"
     stroke-width="5"
     id="primus-na-1" />
  <circle
     cx="181"
     cy="302"
     r="3.5"
     fill="#F7F5F5"
     stroke="#86B32E"
     stroke-width="5"
     id="primus-na-4" />
  <circle
     cx="301"
     cy="321"
     r="3.5"
     fill="#F7F5F5"
     stroke="#86B32E"
     stroke-width="5"
     id="primus-na-5" />
  <circle
     cx="307"
     cy="290"
     r="3.5"
     fill="#F7F5F5"
     stroke="#86B32E"
     stroke-width="5"
     id="primus-na-3" />
  <circle
     cx="365"
     cy="265"
     r="3.5"
     fill="#F7F5F5"
     stroke="#86B32E"
     stroke-width="5"
     id="primus-na-2" />
  <circle
     cx="1368"
     cy="632"
     r="3.5"
     fill="#F7F5F5"
     stroke="#86B32E"
     stroke-width="5"
     id="primus-a-1" />
  <circle
     cx="1300"
     cy="295"
     r="3.5"
     fill="#F7F5F5"
     stroke="#86B32E"
     stroke-width="5"
     id="primus-j-1" />
  <circle
     cx="635"
     cy="299"
     r="3.5"
     fill="#F7F5F5"
     stroke="#86B32E"
     stroke-width="5"
     id="primus-e-5" />
  <circle
     cx="744"
     cy="315.136"
     r="3.5"
     fill="#86B32E"
     stroke="#F7F5F5"
     stroke-width="5"
     id="primus-e-7"
     style="font-variation-settings:normal;opacity:1;vector-effect:none;fill:#f7f5f5;fill-opacity:1;stroke:#86b32e;stroke-width:5;stroke-linecap:butt;stroke-linejoin:miter;stroke-miterlimit:4;stroke-dasharray:none;stroke-dashoffset:0;stroke-opacity:1;-inkscape-stroke:none;stop-color:#000000;stop-opacity:1" />
  <circle
     cx="733"
     cy="226.136"
     r="21.5"
     fill="#86B32E"
     stroke="#86B32E"
     stroke-width="5"
     id="primus-3" />
  <path
     d="M733.375 231.318C732.073 231.318 731.065 231.122 730.057 230.688V229.148C731.079 229.708 732.059 229.89 733.235 229.876C734.495 229.862 735.475 229.456 735.475 228.378C735.475 227.3 734.593 226.95 733.459 226.95H731.947L731.961 225.508L733.277 225.522C734.453 225.522 735.083 225.018 735.083 224.234C735.083 223.38 734.383 222.876 733.067 222.876C732.129 222.876 731.163 223.128 730.225 223.66V222.134C731.079 221.686 732.101 221.434 733.277 221.434C735.237 221.434 736.609 222.414 736.609 224.038C736.609 225.032 736.049 225.83 735.209 226.11C736.091 226.39 737.001 227.104 737.001 228.546C737.001 230.464 735.307 231.318 733.375 231.318Z"
     fill="#F7F5F5"
     id="path738" />
  <circle
     cx="257"
     cy="301.136"
     r="21.5"
     fill="#86B32E"
     stroke="#86B32E"
     stroke-width="5"
     id="primus-2"
     onclick="" />
  <path
     d="M254 305.408C254 303.084 255.722 302.202 257.164 301.348C258.27 300.704 259.236 300.214 259.236 299.136C259.236 298.31 258.522 297.876 257.346 297.876C256.38 297.876 255.33 298.212 254.336 298.94V297.4C255.302 296.728 256.394 296.434 257.486 296.434C259.418 296.434 260.846 297.33 260.846 299.108C260.846 300.732 259.502 301.67 258.2 302.44C256.968 303.168 255.82 303.756 255.792 304.708L260.916 304.694V306.136H254V305.408Z"
     fill="#F7F5F5"
     id="path742" />
  <path
     d="M484.43 617.73L482.756 617.892C482.396 616.308 481.19 615.354 479.534 615.354C477.23 615.354 475.718 617.226 475.718 620.052C475.718 622.95 477.23 624.912 479.48 624.912C481.352 624.912 482.648 623.652 482.918 621.564H484.646C484.502 622.752 484.232 623.508 483.62 624.354C482.63 625.722 481.244 626.406 479.444 626.406C477.662 626.406 476.24 625.722 475.232 624.354C474.368 623.184 473.918 621.726 473.918 620.088C473.918 616.434 476.24 613.86 479.534 613.86C482.09 613.86 483.908 615.3 484.43 617.73ZM487.574 614.13V626.136H485.918V614.13H487.574ZM491.095 617.442V626.136H489.439V617.442H491.095ZM491.095 614.13V616.056H489.439V614.13H491.095ZM500.609 620.394H499.043C498.791 619.206 498.035 618.594 496.847 618.594C495.263 618.594 494.201 619.854 494.201 621.762C494.201 623.724 495.245 624.984 496.847 624.984C498.143 624.984 498.917 624.282 499.151 622.878H500.717C500.483 625.092 499.061 626.37 496.811 626.37C494.219 626.37 492.527 624.552 492.527 621.78C492.527 619.008 494.237 617.208 496.865 617.208C498.989 617.208 500.375 618.378 500.609 620.394ZM506.05 620.538L509.902 626.136H507.886L504.88 621.582L503.638 622.68V626.136H501.982V614.13H503.638V620.718L507.364 617.442H509.56L506.05 620.538ZM519.218 617.208C521.756 617.208 523.412 619.044 523.412 621.852C523.412 624.516 521.702 626.37 519.218 626.37C516.734 626.37 515.042 624.516 515.042 621.78C515.042 619.062 516.734 617.208 519.218 617.208ZM519.218 618.594C517.634 618.594 516.716 619.764 516.716 621.78C516.716 623.814 517.634 624.984 519.236 624.984C520.802 624.984 521.738 623.814 521.738 621.834C521.738 619.746 520.838 618.594 519.218 618.594ZM524.83 617.442H526.414V618.432C527.278 617.514 527.98 617.208 529.168 617.208C530.194 617.208 531.04 617.55 531.526 618.162C531.94 618.702 532.102 619.314 532.102 620.322V626.136H530.446V620.448C530.446 619.26 529.906 618.684 528.772 618.684C527.35 618.684 526.486 619.512 526.486 620.862V626.136H524.83V617.442ZM540.38 620.322H538.832C538.904 619.296 539.102 618.684 539.534 618.198C540.092 617.568 541.136 617.208 542.36 617.208C544.52 617.208 545.744 618.234 545.744 620.034V624.12C545.744 624.804 545.834 624.948 546.212 624.948C546.356 624.948 546.446 624.93 546.644 624.858V626.136C546.248 626.226 545.906 626.262 545.564 626.262C544.772 626.262 544.412 625.92 544.268 625.092C543.386 625.974 542.432 626.37 541.262 626.37C539.57 626.37 538.418 625.326 538.418 623.796C538.418 622.392 539.282 621.528 541.046 621.168L542.972 620.79C544.016 620.592 544.232 620.43 544.232 619.89C544.232 619.044 543.494 618.522 542.324 618.522C541.478 618.522 540.812 618.792 540.578 619.26C540.452 619.494 540.416 619.692 540.38 620.322ZM544.268 622.788V621.672C543.962 621.798 543.674 621.888 543.242 621.996L541.55 622.392C540.542 622.626 540.092 623.04 540.092 623.724C540.092 624.516 540.74 625.056 541.712 625.056C543.116 625.056 544.268 624.03 544.268 622.788ZM547.714 617.442H549.298V618.432C550.162 617.514 550.864 617.208 552.052 617.208C553.078 617.208 553.924 617.55 554.41 618.162C554.824 618.702 554.986 619.314 554.986 620.322V626.136H553.33V620.448C553.33 619.26 552.79 618.684 551.656 618.684C550.234 618.684 549.37 619.512 549.37 620.862V626.136H547.714V617.442ZM562.247 617.442H563.975L560.141 627.18C559.655 628.386 559.007 628.89 557.945 628.89C557.513 628.89 557.153 628.818 556.613 628.62V627.27C557.135 627.468 557.333 627.504 557.657 627.504C558.251 627.504 558.629 627.216 558.863 626.604L559.097 625.92L555.497 617.442H557.279L559.205 622.41C559.493 623.166 559.547 623.292 559.853 624.246C560.051 623.598 560.339 622.698 560.447 622.41L562.247 617.442ZM571.217 614.13V626.136H569.561V614.13H571.217ZM576.826 617.208C579.364 617.208 581.02 619.044 581.02 621.852C581.02 624.516 579.31 626.37 576.826 626.37C574.342 626.37 572.65 624.516 572.65 621.78C572.65 619.062 574.342 617.208 576.826 617.208ZM576.826 618.594C575.242 618.594 574.324 619.764 574.324 621.78C574.324 623.814 575.242 624.984 576.844 624.984C578.41 624.984 579.346 623.814 579.346 621.834C579.346 619.746 578.446 618.594 576.826 618.594ZM590.088 620.394H588.522C588.27 619.206 587.514 618.594 586.326 618.594C584.742 618.594 583.68 619.854 583.68 621.762C583.68 623.724 584.724 624.984 586.326 624.984C587.622 624.984 588.396 624.282 588.63 622.878H590.196C589.962 625.092 588.54 626.37 586.29 626.37C583.698 626.37 582.006 624.552 582.006 621.78C582.006 619.008 583.716 617.208 586.344 617.208C588.468 617.208 589.854 618.378 590.088 620.394ZM592.991 620.322H591.443C591.515 619.296 591.713 618.684 592.145 618.198C592.703 617.568 593.747 617.208 594.971 617.208C597.131 617.208 598.355 618.234 598.355 620.034V624.12C598.355 624.804 598.445 624.948 598.823 624.948C598.967 624.948 599.057 624.93 599.255 624.858V626.136C598.859 626.226 598.517 626.262 598.175 626.262C597.383 626.262 597.023 625.92 596.879 625.092C595.997 625.974 595.043 626.37 593.873 626.37C592.181 626.37 591.029 625.326 591.029 623.796C591.029 622.392 591.893 621.528 593.657 621.168L595.583 620.79C596.627 620.592 596.843 620.43 596.843 619.89C596.843 619.044 596.105 618.522 594.935 618.522C594.089 618.522 593.423 618.792 593.189 619.26C593.063 619.494 593.027 619.692 592.991 620.322ZM596.879 622.788V621.672C596.573 621.798 596.285 621.888 595.853 621.996L594.161 622.392C593.153 622.626 592.703 623.04 592.703 623.724C592.703 624.516 593.351 625.056 594.323 625.056C595.727 625.056 596.879 624.03 596.879 622.788ZM603.763 617.442V618.756H602.197V624.21C602.197 624.714 602.431 625.002 602.845 625.002C603.079 625.002 603.313 624.948 603.763 624.768V626.118C603.043 626.28 602.773 626.316 602.377 626.316C601.135 626.316 600.541 625.65 600.541 624.21V618.756H599.371V617.442H600.541V614.688H602.197V617.442H603.763ZM606.486 617.442V626.136H604.83V617.442H606.486ZM606.486 614.13V616.056H604.83V614.13H606.486ZM612.094 617.208C614.632 617.208 616.288 619.044 616.288 621.852C616.288 624.516 614.578 626.37 612.094 626.37C609.61 626.37 607.918 624.516 607.918 621.78C607.918 619.062 609.61 617.208 612.094 617.208ZM612.094 618.594C610.51 618.594 609.592 619.764 609.592 621.78C609.592 623.814 610.51 624.984 612.112 624.984C613.678 624.984 614.614 623.814 614.614 621.834C614.614 619.746 613.714 618.594 612.094 618.594ZM617.707 617.442H619.291V618.432C620.155 617.514 620.857 617.208 622.045 617.208C623.071 617.208 623.917 617.55 624.403 618.162C624.817 618.702 624.979 619.314 624.979 620.322V626.136H623.323V620.448C623.323 619.26 622.783 618.684 621.649 618.684C620.227 618.684 619.363 619.512 619.363 620.862V626.136H617.707V617.442Z"
     fill="#F7F5F5"
     id="path785" />
  <path
     d="M425.2 597.582V581.592L436.8 593.184H430L429.6 593.284L425.2 597.582Z"
     fill="white"
     id="path787" />
  <path
     d="M434.3 598.281L430.7 599.78L426 588.687L429.7 587.188L434.3 598.281Z"
     fill="white"
     id="path789" />
  <defs
     id="defs827">
    <filter
       id="filter0_ii_178_1753"
       x="56"
       y="97"
       width="1422"
       height="740.54"
       filterUnits="userSpaceOnUse"
       color-interpolation-filters="sRGB">
      <feFlood
         flood-opacity="0"
         result="BackgroundImageFix"
         id="feFlood795" />
      <feBlend
         mode="normal"
         in="SourceGraphic"
         in2="BackgroundImageFix"
         result="shape"
         id="feBlend797" />
      <feColorMatrix
         in="SourceAlpha"
         type="matrix"
         values="0 0 0 0 0 0 0 0 0 0 0 0 0 0 0 0 0 0 127 0"
         result="hardAlpha"
         id="feColorMatrix799" />
      <feOffset
         dy="-1"
         id="feOffset801" />
      <feGaussianBlur
         stdDeviation="1"
         id="feGaussianBlur803" />
      <feComposite
         in2="hardAlpha"
         operator="arithmetic"
         k2="-1"
         k3="1"
         id="feComposite805" />
      <feColorMatrix
         type="matrix"
         values="0 0 0 0 0.6375 0 0 0 0 0.62475 0 0 0 0 0.62475 0 0 0 0.3 0"
         id="feColorMatrix807" />
      <feBlend
         mode="normal"
         in2="shape"
         result="effect1_innerShadow_178_1753"
         id="feBlend809" />
      <feColorMatrix
         in="SourceAlpha"
         type="matrix"
         values="0 0 0 0 0 0 0 0 0 0 0 0 0 0 0 0 0 0 127 0"
         result="hardAlpha"
         id="feColorMatrix811" />
      <feOffset
         dy="17"
         id="feOffset813" />
      <feGaussianBlur
         stdDeviation="25"
         id="feGaussianBlur815" />
      <feComposite
         in2="hardAlpha"
         operator="arithmetic"
         k2="-1"
         k3="1"
         id="feComposite817" />
      <feColorMatrix
         type="matrix"
         values="0 0 0 0 0.490196 0 0 0 0 0.713726 0 0 0 0 0.262745 0 0 0 0.1 0"
         id="feColorMatrix819" />
      <feBlend
         mode="normal"
         in2="effect1_innerShadow_178_1753"
         result="effect2_innerShadow_178_1753"
         id="feBlend821" />
    </filter>
    <clipPath
       id="clip0_178_1753">
      <rect
         width="32"
         height="32"
         fill="white"
         transform="translate(735 316.858)"
         id="rect824" />
    </clipPath>
  </defs>
</svg>
