<svg width="1422" height="723" viewBox="0 0 1422 723" fill="none" xmlns="http://www.w3.org/2000/svg">
<g filter="url(#filter0_ii_155_358)">
<path d="M377.433 722.498C374.324 721.471 371.128 722.193 367.979 722.121C365.917 722.066 363.877 722.076 361.853 721.514C359.598 720.884 357.751 719.943 356.851 717.583C356.46 716.558 355.814 715.619 355.207 714.698C353.569 712.233 352.206 711.493 349.65 712.992C346.077 715.082 343.772 713.633 341.244 711.335C338.154 708.534 335.838 705.293 333.783 701.633C329.601 694.171 325.354 686.759 322.174 678.802C320.12 673.663 318.632 668.359 317.871 662.857C317.569 660.665 316.906 658.526 316.566 656.345C316.304 654.696 315.589 653.693 313.843 653.673C311.725 653.648 311.132 652.316 310.33 650.544C307.564 644.469 306.305 637.908 303.898 631.733C303.539 630.812 303.57 629.867 303.859 628.931C305.567 623.42 305.668 617.761 305.681 612.048C305.697 604.151 303.064 596.812 301.377 589.266C301.17 588.339 300.659 587.424 300.691 586.516C301.06 575.831 297.505 565.542 297.664 554.873C297.78 547.087 295.5 539.506 295.539 531.694C295.557 528.641 293.059 527.143 290.79 525.646C284.727 521.631 278.621 517.78 272.134 514.402C266.94 511.699 263.854 506.265 260.795 501.25C258.08 496.794 255.543 492.236 252.875 487.75C251.256 485.027 249.909 482.178 248.589 479.291C246.436 474.566 244.14 469.808 238.895 467.536C237.848 467.08 233.742 457.088 234.231 456.145C235.253 454.18 236.293 452.185 237.659 450.465C239.16 448.567 239.501 446.99 237.871 444.983C235.351 441.883 234.727 438.502 236.994 434.907C237.318 434.389 237.435 433.717 237.545 433.093C238.317 429.03 239.64 425.689 243.379 422.945C246.552 420.622 247.734 416.066 250.574 413.012C251.115 412.429 251.03 411.211 251.119 410.273C251.23 409.172 250.856 407.851 251.338 406.984C253.8 402.504 251.225 398.71 249.847 394.795C249.067 392.584 247.453 390.728 247.177 388.24C246.978 386.511 245.378 386.038 243.938 386.045C242.279 386.05 241.406 387.161 241.297 388.824C241.198 390.249 241.276 391.81 239.513 392.335C237.797 392.838 235.98 392.955 234.47 391.858C232.735 390.598 230.907 389.933 228.776 389.794C227.332 389.696 225.907 389.063 225.006 387.943C222.455 384.788 218.958 382.841 215.727 380.589C214.032 379.403 212.935 378.119 212.789 376.027C212.379 370.492 207.909 367.762 204.527 364.304C203.595 363.357 202.188 363.477 200.9 363.459C199.631 363.449 197.96 363.884 197.173 363.247C192.384 359.403 185.42 359.552 181.329 354.519C180.829 353.908 180.117 353.487 179.599 352.887C176.248 348.999 172.18 348.342 167.611 350.317C166.467 350.818 165.555 350.671 164.445 350.313C158.141 348.262 151.769 346.415 145.507 344.22C143.468 343.505 141.863 341.401 139.812 340.897C135.048 339.723 132.24 335.557 127.892 333.804C126.033 333.054 123.533 326.187 124.547 324.003C127.359 317.936 124.347 313.682 120.615 309.541C119.132 307.9 117.427 306.439 115.953 304.787C113.734 302.315 112.293 299.518 111.028 296.324C109.573 292.65 108.665 288.545 105.837 285.391C103.01 282.236 101.422 278.558 101.846 274.136C102.01 272.432 101.925 270.68 99.9501 269.649C97.9659 268.617 96.4627 268.96 95.9527 271.106C95.4669 273.137 95.6574 275.152 96.8918 277.031C101.182 283.573 102.871 291.168 105.405 298.425C106.335 301.088 107.071 303.902 108.977 306.129C109.845 307.145 110.401 308.24 110.204 309.592C109.97 311.222 109.459 312.834 107.743 313.337C106.073 313.83 105.136 312.501 104.384 311.252C103.325 309.48 102.222 307.786 100.634 306.406C98.6128 304.642 96.4228 302.961 97.755 299.61C98.3034 298.226 96.9055 297.316 95.9051 296.581C94.5127 295.565 92.9114 294.825 91.5739 293.75C88.3687 291.192 87.972 289.528 90.2642 286.094C91.3019 284.538 91.0015 283.653 90.1322 282.351C87.8884 278.993 86.7486 275.326 86.6399 271.192C86.5473 267.733 85.9288 264.238 85.0392 260.886C84.2385 257.864 81.9628 255.68 79.0679 254.522C75.5726 253.118 73.7258 250.928 74.1597 247.021C74.3152 245.584 73.9081 244.15 73.1274 242.921C71.13 239.773 73.8304 236.295 72.4463 233.228C71.0929 230.218 70.5388 227.416 71.4041 224.074C71.9787 221.869 72.6391 219.917 73.9521 218.075C74.9476 216.664 76.0337 215.126 76.3914 213.491C77.7004 207.509 81.4419 203.067 85.1319 198.521C89.4229 193.228 93.5184 187.809 95.3414 181.045C96.0781 178.337 96.5531 176.021 93.997 173.734C91.0759 171.126 90.7573 167.743 92.7313 164.216C95.2145 159.783 96.4307 155.131 94.8758 150.068C94.4193 148.588 94.8443 147.218 95.6464 145.986C97.583 142.985 97.3571 140.037 95.6137 137.051C94.5741 135.279 93.4396 133.519 94.1551 131.26C94.3515 130.652 94.2711 129.787 93.6989 129.532C90.5657 128.125 89.4186 125.021 87.4393 122.607C86.2497 121.155 84.5386 120.285 82.4557 120.173C79.3024 119.997 76.2041 119.008 73.0068 119.434C70.7486 119.729 69.0473 118.363 67.2854 117.409C64.1213 115.688 61.3292 116.49 58.9969 118.609C53.2821 123.823 46.4245 125.036 39.1839 124.194C35.7264 123.79 32.9023 124.25 30.5028 126.611C27.9103 129.16 24.381 129.884 21.3126 131.45C16.1202 134.088 10.6803 136.23 5.29189 138.474C2.93579 139.46 1.79599 138.568 1.66069 135.998C1.49714 132.934 3.60187 131.605 6.18305 130.267C2.8531 129.707 1.01922 127.859 0.249882 124.913C0.093976 120.789 0.155906 122.427 0 118.304C1.38293 117.555 10.543 108.387 12.0001 107.836C20.4076 103.227 19.8099 103.307 28.2221 101.091C28.6092 100.99 28.6742 100.692 28.3826 100.293C25.1548 100.415 21.8269 100.665 18.5072 100.628C16.0463 100.607 14.9999 99.1588 15.829 96.8768C16.5627 94.8463 17.3897 93.0126 19.9896 92.1704C25.8209 90.2905 31.3759 87.4101 37.8194 89.6173C39.4132 90.1579 41.2949 89.9913 43.0405 88.4948C41.9148 87.2213 41.5662 85.5656 40.9915 83.9851C39.3425 79.4603 39.5806 78.6979 44.0038 76.8998C45.0085 76.4899 46.1465 76.3229 47.2407 76.2624C50.4573 76.0931 53.3543 75.0394 56.2783 73.689C60.8609 71.5702 65.4938 69.2682 70.3513 68.1118C75.3882 66.9104 80.5977 65.9886 85.8839 66.0843C88.2598 66.1279 90.5671 65.869 92.7926 64.7072C94.9715 63.5757 97.4801 63.5953 99.7761 64.3C101.918 64.9629 104.136 65.1174 106.245 65.6766C109.55 66.5625 113.001 65.5546 116.149 66.5895C119.123 67.5737 122.034 67.6448 125.053 67.5497C129.472 67.4112 133.923 66.8423 138.039 69.2902C138.908 69.8105 140.19 69.6762 141.289 69.749C142.551 69.8253 143.879 69.6511 144.984 70.3818C148.173 72.5118 151.373 71.6374 154.499 70.3557C155.682 69.8722 156.802 69.21 158.091 69.2566C163.247 69.4526 168.193 68.1116 173.044 66.7837C176.347 65.8768 179.685 67.162 182.876 65.8015C184.847 64.9641 186.844 64.8408 188.358 67.0343C189.165 68.2054 190.676 68.0814 191.896 67.8255C196.296 66.9152 200.746 67.8341 205.153 67.3813C206.226 67.274 207.662 67.1625 208.389 67.7358C212.044 70.5826 216.227 69.7568 220.302 69.8506C220.762 71.1684 222.578 71.2714 222.944 72.3733C224.041 75.6697 226.57 75.2212 229.074 75.1265C232.216 75.0076 235.039 73.251 238.262 73.4915C236.368 73.3533 234.512 73.4331 232.645 73.4941C230.931 73.5494 229.032 74.0027 227.581 72.9609C225.337 71.3577 222.619 71.0886 220.265 69.8806C219.247 68.6698 218.758 67.3341 220.055 66.0834C221.702 64.5048 222.14 62.4569 222.635 60.4354C221.139 59.4334 219.583 59.3969 218.043 60.0369C216.147 60.8239 214.106 61.0632 212.205 61.9743C209.011 63.5065 205.746 63.4107 202.941 60.8274C200.698 58.7665 200.734 57.449 203.463 55.715C207.048 53.4432 210.815 51.4506 214.461 49.2623C221.277 45.1803 228.448 43.9363 236.08 46.5564C237.258 46.96 238.267 46.6453 239.28 46.1969C241.915 45.0196 243.919 45.5733 245.146 48.2639C246.289 50.767 248.329 51.0045 250.845 51.4625C254.042 52.0473 257.152 50.07 260.157 51.6158C261.995 52.5572 263.501 52.0424 265.026 51.0216C265.807 50.4961 266.619 50.0172 267.389 49.4635C269.116 48.2157 270.951 48.0795 272.719 49.1952C274.487 50.3014 274.262 52.1695 274.118 53.9202C274.065 54.5421 273.85 55.151 273.673 55.7586C273.038 57.8997 273.332 59.8722 274.91 61.5006C276.389 63.0278 276.459 64.8848 276.436 66.8121C274.978 67.344 273.09 66.8242 272.016 68.1713C269.74 71.0231 266.602 71.0178 263.423 71.1761C261.929 71.2517 260.176 70.7745 258.094 72.9608C263.207 72.7674 267.283 72.6419 271.357 72.4401C272.737 72.3689 274.315 72.7479 275.418 71.6476C276.318 70.7552 275.175 69.5205 275.593 68.4747C275.829 67.8936 276.132 67.3385 276.406 66.775C278.304 66.5411 280.04 66.0368 281.757 65.0563C283.764 63.9123 285.86 64.3766 288.097 65.2743C290.353 66.1713 290.632 67.7629 290.447 70.4402C292.082 68.7857 293.962 67.5702 292.938 66.455C290.82 64.1509 292.556 62.4068 293.166 60.3905C290.451 59.1962 287.82 58.1894 285.34 56.9099C283.171 55.7903 282.406 52.4623 284.322 51.4267C287.517 49.6941 290.128 47.3637 292.905 45.1701C293.229 44.9099 293.822 44.9447 294.288 44.9271C296.821 44.8313 299.359 44.6209 301.898 44.687C304.857 44.7658 305.447 45.7353 304.373 48.6084C303.801 50.1273 303.14 51.5542 303.876 54.1299C305.307 51.3768 306.306 49.5366 307.964 47.9957C312.367 43.9 317.644 43.7577 323.084 43.8952C324.478 43.9284 325.93 43.759 326.838 45.3268C327.634 46.6987 326.074 47.5587 325.884 48.8343C331.755 46.2567 337.141 43.4494 343.471 45.1746C344.146 45.3589 344.784 45.0868 344.967 44.3742C345.15 43.6711 344.697 43.0492 344.064 42.9397C341.423 42.4578 338.855 41.6203 336.098 41.839C333.893 42.0083 331.661 42.0068 329.444 41.8618C328.191 41.7757 327.407 40.9661 327.954 39.534C329.611 35.1988 335.381 32.1959 339.903 33.5221C341.301 33.9365 342.093 33.9447 343.186 32.8258C345.086 30.8942 347.43 29.5658 350.275 29.4296C351.741 29.355 353.174 28.9099 354.194 27.9081C355.711 26.4106 357.537 26.2939 359.46 26.1926C360.592 26.1307 361.8 26.3138 363.786 25.1134C358.872 26.0336 354.998 26.2087 351.176 27.5168C347.655 28.718 343.608 29.1191 340.785 25.3253C339.379 23.433 339.494 22.4558 341.484 21.1027C344.784 18.8512 348.665 17.8461 352.234 16.1756C355.973 14.4225 359.593 15.1058 363.006 17.3418C364.991 18.6401 367.048 19.8402 369.096 21.0502C370.091 21.642 371.003 21.3118 371.482 20.3496C372.12 19.0761 371.237 18.6518 370.163 18.5112C367.892 18.2061 365.887 17.3759 364.324 15.6326C363.099 14.2579 363.293 13.3446 364.955 12.9098C365.71 12.7096 366.521 12.7171 367.31 12.6491C375.067 12.0219 382.469 9.57712 390.061 8.09791C395.91 6.95161 401.642 6.47734 407.49 7.29569C415.398 8.40802 423.263 8.349 431.003 6.2824C435.336 5.1267 439.469 5.47586 443.587 6.95091C445.259 7.55523 445.575 8.84029 444.59 10.289C444.012 11.1501 442.885 10.8494 442.296 11.9111C446.178 9.67577 450.379 9.31661 454.662 9.34538C457.685 9.36455 460.647 9.00459 463.512 7.86625C468.143 6.03169 473.019 5.60887 477.964 5.5172C483.034 5.43037 488.283 5.79454 493.121 4.62927C498.923 3.23681 504.699 2.94204 510.543 2.65426C512.428 2.56391 514.38 2.7571 516.03 1.51213L556.012 0C558.839 1.13286 562.232 1.09036 563.897 4.52738C564.404 5.57633 566.255 5.08673 567.512 5.04871C573.064 4.86734 578.614 4.62882 584.167 4.47601C585.663 4.43852 587.367 3.84956 588.745 5.75247C586.48 7.89806 584.347 9.99099 581.005 10.6038C576.052 11.5159 566.175 16.1047 562.551 18.8548C562.648 20.4057 565.232 20.9183 564.427 22.818C563.858 24.1746 562.77 25.1504 561.368 25.6421C560.163 26.0691 560.01 26.8092 560.441 27.8611C561.374 30.105 560.262 31.9496 559.046 33.5977C555.998 37.7184 551.957 40.2936 546.748 40.7195C544.552 40.8979 542.34 40.9053 539.988 40.9942C539.972 43.0739 541.469 43.0935 542.489 43.589C544.54 44.5987 546.387 45.7877 546.608 48.3638C546.793 50.4835 546.672 52.0807 544.233 53.3746C541.372 54.8942 538.731 56.9205 535.896 58.6013C528.958 62.7356 521.284 64.7902 513.438 65.5924C508.802 66.0633 505.316 67.9118 502.163 70.7872C500.099 72.6772 497.872 74.068 495.205 74.6362C491.554 75.4132 488.095 76.7552 484.324 77.3937C479.038 78.2898 473.145 79.8192 470.656 86.0932C469.332 89.4334 465.06 90.4342 463.565 93.4949C462.043 96.6138 460.184 99.1541 457.447 101.174C456.687 101.737 456.106 102.522 455.406 103.169C452.642 105.715 450.982 105.949 447.872 103.654C445.351 101.794 442.867 100.41 439.597 100.925C438.09 101.163 436.711 100.49 435.808 99.3131C433.201 95.9307 430.613 92.5477 430.383 87.9788C430.159 83.5717 430.685 79.06 428.696 74.8723C428.447 74.3381 428.448 73.6228 428.51 73.0006C428.765 70.3969 434.352 64.0726 436.92 63.4127C441.142 62.328 441.328 62.2256 439.197 58.3008C437.957 56.0207 437.899 54.4875 440.387 53.4588C439.88 52.1714 438.97 52.5682 438.25 52.4238C435.301 51.8487 434.895 51.4635 435.964 48.7051C437.284 45.2887 437.676 42.0504 436.182 38.5878C435.628 37.3023 434.969 36.507 433.709 35.9729C430.637 34.6681 427.613 33.3901 424.111 33.8277C418.56 34.5241 413.079 32.824 407.506 33.216C405.376 33.3633 403.884 32.2277 403.465 29.9833C403.262 28.8942 402.948 27.8952 402.423 26.8756C400.395 22.9373 399.649 22.3742 395.707 23.7631C391.237 25.3341 386.987 27.4403 382.19 28.1558C380.445 28.4125 378.88 29.8927 377.561 31.3159C375.664 33.3712 373.35 34.689 370.47 34.6835C368.696 34.6838 367.557 35.3182 366.861 37.0993C365.949 39.4607 363.978 41.0516 361.701 42.6064C363.983 43.9506 366.287 43.606 368.394 44.0985C370.03 44.4849 372.123 44.8635 370.186 47.3591C369.286 48.5184 370.666 48.7142 371.102 48.898C374.736 50.4199 378.133 52.5135 382.099 53.2409C385.555 53.8731 388.082 55.8852 389.774 59.016C390.758 60.848 391.34 62.6189 389.694 64.2261C387.975 65.9124 389.278 66.8359 390.495 67.5051C392.287 68.4959 394.317 68.9818 396.103 70.0682C397.343 70.8224 398.374 71.6036 399.24 72.8296C400.661 74.8644 400.687 76.542 398.865 78.2989C397.044 80.0558 395.442 82.0714 393.53 83.7077C390.842 86.0028 389.461 85.8071 387.065 83.2179C386.419 82.5175 385.847 81.7572 385.256 81.0166C383.886 79.3232 382.238 78.861 380.233 79.7951C379.698 81.532 381.134 82.4504 381.815 83.5786C383.554 86.4311 383.831 89.2244 381.984 92.0599C380.136 94.8955 377.596 96.0692 374.222 95.081C373.952 95.0054 373.615 95.1707 373.312 95.2203C372.661 95.9125 373.015 96.7193 373.035 97.491C373.081 99.7113 372.015 100.276 369.997 99.6181C366.387 98.4577 362.76 97.3551 359.151 96.2137C357.202 95.6007 356.098 93.8972 354.994 92.4417C353.338 90.2632 351.384 89.5074 348.806 89.9196C345.252 90.4928 341.917 89.5603 338.553 88.6003C336.943 88.1367 336.3 87.5316 337.386 85.9932C339.368 83.1812 341.627 80.6162 345.483 81.2238C353.176 82.4397 356.922 77.11 361.01 72.2347C361.977 71.0823 361.622 70.0276 360.569 69.4189C358.191 68.0593 356.262 66.1963 354.295 64.3633C353.158 63.3096 351.707 63.2595 350.26 63.3143C346.937 63.44 343.604 63.566 340.043 63.7007C339.92 65.2312 341.359 66.7408 339.886 68.1126C336.782 71.0243 334.679 74.8995 331.199 77.4343C327.635 80.0201 324.029 82.76 318.367 80.2943C319.837 83.5957 321.079 85.6849 322.806 87.4888C324.167 88.9156 324.605 90.4344 323.307 92.1619C322.091 93.791 320.361 94.4287 318.704 93.49C315.732 91.8095 313.274 92.6082 310.763 94.2958C310.373 94.5585 309.891 94.6816 309.449 94.8414C304.623 96.5784 302.364 94.8518 302.629 89.2437C297.067 91.4187 291.971 94.091 287.245 97.4645C286.205 98.2096 285.273 99.0268 283.935 99.1919C275.716 100.218 269.223 104.784 263.359 110.07C261.1 112.11 257.865 115.065 261.236 118.981C261.335 119.092 261.439 119.307 261.395 119.414C259.337 124.489 263.249 124.074 266.185 124.792C269.111 125.511 271.717 126.843 274.236 128.674C278.443 131.748 282.936 134.573 288.616 133.738C289.223 133.648 289.903 133.728 290.5 133.886C292.84 134.484 293.457 135.911 292.338 138.108C291.406 139.936 290.436 141.757 289.484 143.576C289.262 143.994 288.981 144.396 288.807 144.832C287.729 147.591 288.506 150.489 290.607 151.573C291.978 152.284 296.657 150.19 297.31 148.287C298.28 145.456 299.305 142.556 299.604 139.607C299.939 136.362 301.695 134.893 304.392 133.838C309.004 132.013 313.227 129.698 316.085 125.346C317.374 123.381 318.336 121.847 317.164 119.326C315.773 116.336 316.258 115.536 319.35 113.588C321.734 112.077 323.008 110.226 323.756 107.308C324.828 103.129 326.744 99.0701 330.51 96.2955C332.208 95.0487 333.991 94.5521 335.846 95.4452C338.575 96.7534 341.394 96.6563 344.236 96.4058C346.269 96.224 347.92 96.7529 349.45 98.135C350.97 99.508 352.665 100.703 354.332 101.918C357.528 104.238 357.866 105.093 355.997 108.616C355.098 110.31 354.325 111.56 356.279 113.069C357.891 114.324 359.055 115.11 361.287 113.862C364.48 112.082 367.373 109.912 370.418 107.956C373.182 106.183 374.272 106.495 375.555 109.422C377.016 112.742 378.251 116.157 379.562 119.551C380.101 120.942 379.819 122.335 379.54 123.757C378.837 127.37 380.124 130.401 383.573 131.081C389.174 132.176 390.461 137.22 393.132 140.791C394.478 142.58 393.208 145.804 391.936 147.979C390.27 150.827 390.426 154.454 387.744 156.902C386.813 157.757 387.626 159.09 388.969 159.297C389.871 159.435 390.844 159.188 391.772 159.038C395.185 158.499 396.486 159.623 396.243 163.027C396.063 165.6 394.694 167.959 396.26 170.799C397.325 172.733 393.736 176.178 391.319 175.802C389.641 175.541 387.832 175.381 386.458 174.098C384.64 172.412 382.352 172.174 380.203 172.818C377.025 173.768 373.924 173.198 370.78 173.031C369.529 172.964 368.042 173.23 367.582 171.655C367.166 170.25 368.079 169.185 369.138 168.43C374.579 164.552 377.193 158.274 381.787 153.684C382.081 153.387 382.137 152.851 382.502 151.931C379.55 152.291 377.586 154.053 375.67 155.337C370.77 158.631 365.68 160.464 359.681 160.176C355.259 159.971 350.804 160.426 346.361 160.68C344.848 160.765 343.173 160.352 341.452 162C343.468 162.115 345.105 162.034 346.671 162.346C348.411 162.7 350.017 163.583 350.518 165.462C350.952 167.124 349.86 168.253 348.54 168.885C345.289 170.429 346.406 173.228 346.732 175.543C347.059 177.905 348.947 179.398 351.27 179.825C353.315 180.196 355.391 180.375 356.974 181.869C358.111 182.952 358.86 184.096 356.813 185.194C353.177 187.134 349.422 188.945 345.416 189.669C342.831 190.139 341.022 190.97 339.587 193.113C338.576 194.629 337.544 196.595 335.095 195.61C333.032 194.772 332.422 193.012 333.023 190.004C333.111 189.553 333.247 189.118 333.505 188.107C330.01 189.498 326.829 190.61 323.794 192.041C321.957 192.902 320.116 193.878 318.401 194.934C315.457 196.753 312.602 198.911 312.244 202.816C312.095 204.424 311.233 205.334 309.958 206.173C307.8 207.6 305.454 208.594 302.94 208.937C300.995 209.202 299.322 209.828 297.632 210.788C295.7 211.882 293.903 212.77 292.952 215.123C292.281 216.779 290.736 218.297 289.212 219.346C285.829 221.687 284.445 225.659 281.503 228.316C280.756 228.993 280.797 230.079 280.862 231.02C281.14 234.605 279.494 237.462 277.45 240.162C276.688 241.173 275.787 242.056 275.464 243.355C275.265 244.154 274.746 244.794 273.946 245.063C266.64 247.532 261.071 252.826 254.8 256.945C250.976 259.454 249.204 263.784 247.411 267.82C246.585 269.672 247.256 271.783 247.943 273.817C249.341 277.999 250.38 282.289 250.644 286.752C250.86 290.453 249.034 293.097 246.755 295.606C245.327 297.176 243.782 297.187 242.176 295.798C240.963 294.747 239.795 293.618 239.186 292.144C237.57 288.229 235.359 284.478 235.646 279.976C235.723 278.733 235.568 277.404 235.19 276.226C234.563 274.275 233.352 272.757 230.966 273.448C228.712 274.106 227.025 273.378 225.339 271.906C223.13 269.978 220.49 269.753 217.716 270.535C216.499 270.877 215.278 271.362 214.04 271.428C211.756 271.543 210.12 271.9 209.953 274.787C209.856 276.526 208.252 277.464 206.441 277.237C204.094 276.954 201.656 276.779 199.453 276.004C195.636 274.661 192.174 274.906 188.459 276.506C183.495 278.648 178.763 281.088 174.361 284.201C171.426 286.276 169.834 289.064 169.882 292.6C169.92 295.374 169.407 297.949 168.175 300.409C166.791 303.16 166.215 306.072 166.369 309.146C166.551 312.954 166.743 316.752 166.82 320.564C166.881 323.689 168.097 326.333 169.544 329.044C171.524 332.755 174.7 333.779 178.297 333.081C181.44 332.475 184.568 332.233 187.726 332.028C191.768 331.76 192.682 330.953 193.461 327.109C195.055 319.334 197.62 316.795 205.386 315.395C206.475 315.202 207.599 315.178 208.705 315.165C214.528 315.097 214.348 315.619 213.531 321.257C212.308 329.772 207.541 336.848 205.107 344.836C204.428 347.065 205.156 347.4 206.928 347.361C208.51 347.33 210.032 347.244 211.561 346.566C217.488 343.948 222.727 345.057 227.024 349.777C228.984 351.925 228.357 354.514 227.927 357C227.066 361.983 225.782 366.857 225.94 372.029C226.044 375.544 227.226 378.065 229.947 380.156C233.403 382.81 235.415 383.306 239.028 381.023C243.182 378.406 246.99 378.748 251.045 381.093C254.662 383.188 257.371 382.456 258.501 378.303C260.368 371.433 265.617 369.041 271.429 367.143C272.983 366.636 274.322 365.984 275.541 364.937C276.492 364.109 277.561 363.392 278.663 362.768C279.821 362.114 281.117 361.865 282.196 362.892C283.106 363.764 283.004 364.855 282.512 365.97C282.082 366.95 281.777 367.972 281.26 369.413C284.158 369.141 285.476 367.689 286.65 365.699C288.128 363.173 288.895 363.049 291.042 364.856C294.568 367.812 298.568 369.445 303.138 369.777C303.769 369.82 304.482 369.774 305.008 370.05C309.015 372.12 312.825 371.776 316.801 369.756C319.084 368.602 321.79 369.034 324.326 369.043C325.871 369.051 327.327 369.473 328.986 369.21C331.621 368.795 332.828 370.695 332.089 373.355C330.847 377.837 331.988 380.273 336.398 381.394C339.305 382.133 341.371 383.809 342.494 386.275C345.469 392.819 350.98 394.337 357.356 394.239C360.548 394.194 363.621 394.259 366.638 395.604C372.185 398.074 377.507 400.62 379.618 407.025C381.298 412.121 384.324 416.746 385.224 422.138C385.495 423.759 386.47 424.58 387.911 425.127C391.868 426.636 395.781 428.234 399.737 429.724C403.442 431.12 407.146 432.505 410.472 434.726C410.991 435.069 411.594 435.647 412.098 435.589C417.349 435.019 421.912 437.431 426.723 438.813C427.619 439.065 428.624 439.18 429.544 439.049C433.717 438.453 436.991 440.284 439.847 442.951C442.338 445.289 445.135 446.871 448.36 447.951C451.19 448.902 454.156 449.925 456.008 452.487C458.111 455.402 458.447 458.994 459.071 462.385C459.717 465.87 459.116 469.383 457.414 472.547C455.392 476.305 453.076 479.854 450.596 483.362C446.83 488.683 442.751 494.025 442.302 501.08C442.178 503.097 442.226 504.86 443.28 506.508C444.394 508.24 444.117 509.976 444.047 511.924C443.828 517.989 440.993 523.446 440.536 529.51C440.236 533.45 438.787 537.482 437.704 541.366C436.528 545.568 433.234 549.231 428.338 549.893C420.037 551.018 413.951 555.978 407.769 560.952C406.39 562.062 405.691 563.243 405.785 564.975C405.935 567.659 405.808 570.362 406.642 572.992C407.974 577.204 407.156 580.802 403.357 583.463C402.725 583.907 401.823 584.504 401.75 585.107C401.284 588.901 398.978 591.487 396.473 594.061C395.747 594.804 395.145 596.029 395.127 597.05C395.045 601.201 393.031 604.663 391.422 608.253C388.555 614.655 384.165 618.083 376.189 614.427C375.917 614.303 375.566 614.355 374.935 614.302C376.275 616.703 377.531 618.896 378.854 621.107C380.574 623.979 380.12 627.62 379.547 630.875C379.148 633.169 376.975 634.472 374.908 635.275C371.468 636.607 370.326 639.177 369.807 642.601C369.313 645.92 369.045 649.191 369.181 652.534C369.522 660.78 370.446 669.08 369.821 677.267C369.029 687.597 370.314 697.867 369.596 708.146C369.379 711.225 370.336 713.344 373.079 714.776C374.762 715.656 376.374 716.673 377.931 717.758C379.606 718.925 380.87 720.327 379.244 722.468L377.339 722.54L377.433 722.498ZM308.166 54.6161C310.395 57.0591 309.763 59.7819 309.568 62.4309C309.361 65.2712 309.639 65.5849 312.432 65.8035C316.621 66.122 317.629 68.0675 315.447 71.65C315.133 72.1673 314.779 72.648 314.146 73.5684C318.434 72.2141 320.391 68.7546 323.151 66.3518C326.124 63.7694 325.94 63.452 322.507 61.4266C318.684 59.1584 318.576 58.8191 320.264 54.7975C320.562 54.0996 320.934 53.3417 320.144 52.3797C316.265 52.4216 312.116 51.6343 308.167 54.6256L308.166 54.6161ZM414.634 19.7284C423.153 19.5684 424.819 18.9904 426.324 15.691C422.141 16.5072 418.37 17.9087 414.634 19.7284Z" fill="#F7F5F5"/>
<path d="M1422 592.45C1419.32 595.069 1417.18 598.316 1413.09 599.148C1411.47 599.476 1410.68 601.137 1409.76 602.402C1407.48 605.549 1404.52 607.836 1401.07 609.511C1399.79 610.132 1398.52 610.771 1397.04 610.827C1395.01 610.904 1394.5 610.275 1395.14 608.362C1395.34 607.763 1395.56 607.163 1395.86 606.609C1396.69 605.004 1397.14 603.547 1395.94 601.761C1394.77 600.022 1395.61 598.407 1397.27 597.324C1404.08 592.889 1404.99 586.217 1404.12 578.983C1403.88 577.037 1403.47 575.221 1404.84 573.596C1405.95 572.276 1407.22 571.57 1408.93 572.783C1411.48 574.594 1413.81 576.528 1412.78 580.143C1411.98 582.948 1413.94 584.915 1414.76 587.211C1415.17 588.331 1416.42 588.531 1417.6 588.534C1419.02 588.538 1420.43 588.599 1421.86 588.64L1422 592.45Z" fill="#F7F5F5"/>
<path d="M1124 430.494C1120.06 432.036 1117.33 430.394 1114.4 427.672C1107.01 420.818 1100.52 413.339 1095.85 404.37C1095.42 403.537 1094.91 402.612 1094.19 402.068C1090.71 399.471 1089.26 395.683 1087.83 391.837C1087.45 390.821 1087.02 389.76 1085.97 389.151C1082.05 386.848 1080.41 382.409 1077.01 379.505C1075.48 378.199 1074.13 376.228 1072.68 374.566C1071.65 373.375 1071.17 372.144 1071.69 370.656C1072.28 368.945 1073.85 368.981 1075.27 368.937C1080.83 368.755 1085.45 370.45 1088.84 375.185C1092.19 379.855 1096.45 383.633 1102.06 387.102C1101.42 385.591 1101.18 384.599 1100.64 383.818C1098.18 380.249 1096.68 376.262 1095.31 372.194C1093.36 366.431 1090.67 361.116 1085.48 357.536C1084.59 356.93 1084.21 356.163 1084.08 355.185C1083.99 354.559 1083.88 353.915 1083.92 353.294C1084.51 344.278 1082.32 335.625 1079.77 327.196C1078.3 322.331 1077.26 317.048 1073.81 312.744C1071.63 314.048 1069.54 315.376 1067.37 316.574C1064.84 317.976 1060.51 315.994 1060.6 313.082C1060.76 308.479 1058.28 304.92 1056.76 301.001C1055.88 298.707 1054.65 296.541 1051.97 295.403C1049.99 294.553 1048.41 292.781 1047.24 290.832C1046.39 289.405 1045.16 288.327 1043.52 288.103C1039.76 287.587 1036.24 286.022 1032.37 285.949C1027.77 285.866 1026.42 286.641 1024.97 291.131C1024.14 293.69 1022.21 295.441 1020.08 296.771C1018.01 298.08 1015.99 299.586 1014.94 301.6C1012.39 306.436 1007.73 309.436 1004.92 314.024C1004.01 315.508 1001.88 316.218 1000.36 317.344C998.867 318.449 998.304 319.71 998.613 321.816C999.404 327.117 1000.27 332.491 998.273 337.793C997.952 338.635 997.982 339.693 998.103 340.623C999.233 349.315 993.207 354.112 987.969 359.326C986.774 360.516 985.353 360.255 984.051 359.36C982.857 358.537 981.864 357.516 981.279 356.165C977.285 346.855 972.382 337.971 967.994 328.849C964.838 322.292 961.683 315.774 959.137 308.966C958.086 306.144 956.951 303.345 956.929 300.256C956.922 298.816 956.51 297.497 955.887 296.157C954.165 292.474 954.23 292.433 950.29 293.622C948.14 294.266 946.142 294.141 944.661 292.29C943.35 290.651 941.593 289.564 940.044 288.211C939.098 287.388 937.71 286.754 937.799 285.32C937.966 282.663 935.914 281.625 934.259 280.705C930.587 278.669 927.448 276.108 924.875 272.849C923.993 271.728 922.927 271.272 921.585 271.342C918.254 271.516 914.748 271.086 911.646 272.014C905.895 273.748 900.23 272.961 894.702 272.025C891.324 271.447 887.872 270.939 884.49 270.266C882.146 269.801 880.245 268.958 879.208 266.746C878.295 264.797 876.985 264.188 875.001 265.17C874.579 265.376 874.035 265.349 873.643 265.574C869.705 267.849 866.119 266.316 862.545 264.592C860.981 263.84 859.408 263.089 857.818 262.396C854.541 260.956 851.957 258.936 850.201 255.617C848.753 252.878 846.999 250.121 844.022 248.574C842.622 247.845 841.759 247.973 841.126 249.637C839.251 254.524 841.337 258.003 845.549 260.952C847.351 262.21 849.557 263.318 851.765 264.217C854.661 265.405 856.605 268.145 857.085 271.512C857.241 272.612 857.236 273.728 857.382 274.829C857.554 276.1 858.354 276.814 859.632 276.842C862.476 276.887 865.266 277.058 867.528 274.588C869.351 272.612 871.304 270.793 872.722 268.451C874.821 264.966 876.265 265.055 878.261 268.689C879.029 270.081 879.703 271.515 880.527 272.867C882.286 275.775 884.51 277.837 888.022 278.935C895.906 281.402 897.993 290.202 892.508 296.961C890.722 299.155 888.338 300.905 888.827 304.253C888.902 304.746 888.457 305.573 888.01 305.848C884.776 307.83 883.556 312.129 879.533 313.178C876.981 317.556 871.873 317.626 868.068 319.877C866.641 320.723 865.575 321.535 864.862 323.117C863.128 326.921 860.356 329.534 855.92 329.969C853.668 330.187 851.621 331.028 849.906 332.571C849.076 333.317 848.261 334.188 847.078 334.175C844.646 334.162 842.89 335.382 841.292 337.016C839.906 338.433 838.209 339.184 836.211 339.307C835.107 339.368 833.898 339.423 833.05 340.199C830.718 342.328 828.155 342.873 825.388 341.318C824.267 342.944 824.972 344.433 825.088 345.736C825.399 349.424 829.44 351.646 832.945 350.274C834.157 349.799 835.37 349.591 836.655 349.532C837.606 349.487 838.787 349.7 839.456 349.226C844.786 345.439 851.735 346.902 857.287 343.421C860.565 341.361 863.229 343.73 862.617 347.702C861.447 355.337 860.198 362.928 856.496 369.925C854.361 373.973 853.052 378.448 851.004 382.55C847.13 390.287 842.153 397.094 834.317 401.453C830.04 403.837 827.589 408.116 824.923 411.994C822.239 415.9 819.836 419.94 816.595 423.495C812.676 427.783 811.3 433.509 809.269 438.802C808.765 440.109 808.702 441.952 809.616 442.947C811.904 445.436 811.047 448.005 810.869 450.854C810.587 455.499 810.087 460.439 814.4 464.052C815.965 465.357 815.854 467.459 815.994 469.38C816.387 474.744 816.618 480.095 817.269 485.459C818.141 492.636 814.628 498.586 808.944 503.102C808.824 503.202 808.654 503.237 808.523 503.318C803.808 505.957 798.291 507.577 795.86 513.153C795.799 513.289 795.63 513.371 795.51 513.471C789.276 518.809 788.988 519.526 792.163 527.083C794.677 533.053 793.663 538.508 790.576 543.87C789.458 545.82 787.52 546.523 785.655 547.385C782.656 548.766 781.024 550.488 780.715 554.428C780.27 560.053 779.72 566.196 774.143 569.993C773.027 570.75 772.153 572.1 771.552 573.353C768.778 579.18 764.432 583.769 760.167 588.47C755.059 594.099 748.318 596.652 741.238 597.263C735.031 597.803 729.078 598.982 723.172 600.636C719.784 601.584 716.985 600.422 714.023 599.246C711.477 598.236 712.112 595.38 710.612 593.787C708.864 591.926 709.105 590.229 710.731 588.346C711.864 587.035 711.029 585.646 710.136 584.459C707.907 581.51 706.312 578.404 705.986 574.564C705.781 572.187 704.247 570.195 702.236 568.698C698.027 565.567 695.998 561.085 695.352 556.112C694.464 549.279 692.559 542.752 689.919 536.481C686.869 529.205 684.176 521.802 680.168 514.887C677.617 510.482 678.179 504.92 679.242 499.996C679.932 496.804 681.13 493.679 681.73 490.394C682.404 486.783 684.482 483.729 686.358 480.654C688.261 477.521 688.676 474.606 686.569 471.348C684.797 468.601 684.551 465.387 684.667 462.159C684.761 459.59 684.281 457.243 682.878 454.931C681.089 451.985 679.447 448.91 678.761 445.417C677.828 440.646 674.174 437.579 671.249 434.095C668.193 430.462 665.243 426.826 663.294 422.427C662.574 420.785 662.43 419.513 663.316 417.982C664.812 415.417 665.01 412.587 664.795 409.686C664.62 407.309 664.886 405.029 665.656 402.682C667.16 398.095 663.21 392.971 658.247 392.863C655.556 392.803 652.857 393.029 650.165 393.207C647.454 393.386 645.586 392.15 644.328 389.889C643.11 387.694 642.343 385.311 639.342 384.613C635.359 383.696 631.518 383.488 627.711 385.177C622.647 387.429 617.561 389.614 612.549 391.969C610.919 392.736 609.618 392.881 607.706 392.505C601.347 391.257 594.922 390.804 588.863 394.238C584.933 396.465 581.004 396.194 577.232 393.524C572.744 390.337 567.839 387.699 564.572 383.007C563.886 382.022 562.69 381.142 561.541 380.775C557.342 379.427 555.924 375.971 554.661 372.319C554.404 371.575 554.397 370.631 553.919 370.087C550.729 366.431 547.909 362.198 544.057 359.435C539.627 356.255 536.61 353.127 537.775 347.389C538.049 346.063 537.817 344.718 537 343.766C535.055 341.513 535.857 339.527 536.923 337.208C538.236 334.354 539.191 331.362 539.758 328.203C540.994 321.29 539.726 314.738 537.554 308.249C536.887 306.243 536.489 304.027 537.229 302.168C538.858 298.101 539.726 293.566 543.272 290.505C545.414 288.659 546.638 286.477 546.958 283.594C547.321 280.328 548.807 277.506 551.814 275.829C553.355 274.969 554.057 273.617 554.523 272.093C555.279 269.632 556.923 268.225 559.207 267.09C562.014 265.687 564.808 264.179 567.025 261.778C569.077 259.554 570.27 257.049 570.291 254.092C570.366 245.992 574.421 240.241 581.143 236.439C585.67 233.874 586.622 229.279 588.606 225.275C589.421 223.633 586.985 221.245 584.526 221.023C582.795 220.87 581.039 221.098 579.291 221.021C576.149 220.892 575.667 220.481 575.382 217.497C575.174 215.283 575.055 213.142 573.807 211.129C572.923 209.703 573.436 208.149 574.276 206.639C575.856 203.813 576.544 200.802 575.894 197.489C575.172 193.787 577.152 190.403 577.559 186.802C577.788 184.8 581.97 182.658 584.112 183.083C590.896 184.447 597.721 182.892 604.523 183.484C607.833 183.769 608.485 182.848 609.235 179.481C611.117 170.999 607.437 164.72 599.138 162.602C597.405 162.162 596.268 161.346 595.581 159.827C594.623 157.689 595.349 155.955 597.691 155.599C600.014 155.254 602.272 154.215 604.726 154.799C606.448 155.211 607.726 154.943 608.284 152.805C608.867 150.589 610.107 149.341 612.85 150.505C615.534 151.644 617.561 150.032 619.27 148.069C618.595 147.093 617.745 147.316 617.014 147.411C611.274 148.162 605.26 147.483 599.984 150.687C599.723 150.84 599.373 150.929 599.068 150.922C597.256 150.904 594.953 152.031 593.845 149.975C592.697 147.853 595.158 147.131 596.267 145.954C597.514 144.629 599.489 143.391 596.631 141.696C596.417 141.571 596.186 141.027 596.276 140.871C597.562 138.819 597.517 136.389 598.293 134.214C598.862 132.609 600.53 132.089 602.075 131.591C602.508 131.451 602.897 131.15 603.345 130.895C603.474 129.24 602.208 128.287 601.369 127.288C599.721 125.31 598.28 125.803 596.695 128.009C594.892 130.509 593.862 133.266 593.084 136.156C592.349 138.902 590.769 140.736 587.845 140.846C585.303 140.942 583.414 142.425 581.267 143.384C578.088 144.801 576.736 144.347 574.821 141.634C573.451 139.693 573.384 138.17 575.724 137.023C577.428 136.186 577.784 135.247 576.926 133.248C575.254 129.373 575.85 128.492 579.961 126.505C580.523 126.236 581.238 125.98 581.525 125.512C583.373 122.428 586.355 122.363 589.439 122.227C592.162 122.105 593.961 119.51 592.893 116.985C591.95 114.741 591.454 112.967 593.303 110.914C595.489 108.475 596.927 105.14 601.093 105.622C602.185 105.743 603.312 105.538 604.419 105.563C605.039 105.587 606.184 105.839 606.177 105.925C605.905 109.56 609.787 109.089 611.187 111.057C612.395 112.757 612.451 114.243 610.894 115.684C609.365 117.106 610.145 118.068 611.036 119.675C613.062 123.337 617.122 125.548 618.034 129.996C618.396 131.756 620.276 132.553 621.742 133.508C624.871 135.545 624.852 135.565 623.473 138.936C623.351 139.227 623.161 139.491 623.038 139.782C622.679 140.635 623.001 141.329 623.586 141.926C624.241 142.598 624.993 142.55 625.717 142.046C628.783 139.899 632.634 138.618 633.987 134.562C634.827 132.06 637.299 131.604 639.276 130.928C642.288 129.889 645.127 128.58 647.954 127.176C650.715 125.804 650.998 125.717 649.39 123.031C647.191 119.356 647.812 116.11 649.947 112.796C651.586 110.254 654.219 109.02 656.798 107.892C658.674 107.068 660.205 108.45 660.113 110.58C660.069 111.679 659.71 112.76 659.637 113.86C659.565 114.998 659.724 116.184 661.073 116.543C662.826 117.001 664.114 116.027 665.302 114.905C666.434 113.832 665.801 112.73 665.03 111.997C662.924 110.007 661.578 107.454 659.722 105.283C657.517 102.687 656.403 102.49 653.884 104.712C651.947 106.426 650.028 107.891 647.334 108.26C642.639 108.905 639.851 107.294 638.629 102.714C638.285 101.44 637.597 100.398 636.984 99.3148C635.319 96.3927 635.427 93.2034 635.565 90.032C635.656 87.9018 636.972 86.4024 638.865 85.7587C643.393 84.2141 647.092 81.1655 651.352 79.1066C655.8 76.9547 659.946 73.6317 662.749 69.3104C664.244 67.0032 666.03 65.0569 668.023 63.2935C669.924 61.6099 671.926 60.1037 673.066 57.705C673.604 56.5688 674.6 55.6633 675.841 55.1968C679.254 53.9137 681.629 51.4302 683.636 48.5028C684.467 47.2888 685.515 45.9999 687.129 46.8257C690.951 48.7983 693.975 46.5668 696.798 44.8197C698.941 43.4989 700.963 42.7548 703.411 42.6908C710.06 42.5061 716.704 41.9497 723.345 43.0813C725.102 43.3773 726.836 43.3403 727.692 45.3107C728.266 46.6241 729.551 47.3099 730.776 47.1777C734.697 46.7433 738.151 48.7966 741.916 49.0166C748.796 49.4144 755.287 51.1049 761.405 54.2781C762.669 54.936 764.012 55.4002 765.044 56.4675C766.205 57.6633 766.477 59.074 765.611 60.3656C764.013 62.7435 762.269 65.0315 758.923 65.0722C755.912 65.1098 752.896 65.2811 749.879 65.4429C748.804 65.5026 747.421 65.2593 746.984 66.5442C746.554 67.8002 747.791 68.4688 748.545 69.2413C748.981 69.6826 749.472 70.0646 750.133 70.6404C751.241 69.435 751.14 67.5124 752.744 66.8318C754.274 66.1827 755.497 67.2617 756.85 67.4871C758.99 67.8449 760.43 67.8477 762.159 65.9226C764.1 63.7702 766.774 62.1241 769.66 61.0327C772.809 59.8264 772.824 59.4825 772.212 56.1582C771.923 54.5479 769.891 53.013 771.477 51.3413C772.78 49.976 774.788 50.6439 776.49 50.5032C777.744 50.3986 779.05 50.3873 780.279 50.5984C782.947 51.0506 783.641 52.0066 783.394 54.8102C783.327 55.5662 782.719 56.3807 783.81 56.7305C784.36 56.9004 785.324 56.9212 785.607 56.5862C789.968 51.3763 797.251 52.1022 802.324 48.3245C803.929 47.129 805.993 47.2607 807.799 48.1175C810.751 49.5222 813.618 49.4423 816.45 47.9333C817.759 47.2353 819.141 46.9637 820.581 46.976C823.366 46.9851 825.383 46.1173 827.552 43.9753C830.88 40.6833 835.591 41.7067 839.792 42.3585C841.758 42.6656 843.853 43.0918 845.615 44.3031C846.163 44.6829 846.825 44.7723 847.37 44.3035C847.97 43.7849 847.847 43.0552 847.354 42.6351C842.458 38.4906 847.433 35.1267 848.435 31.6365C849.278 28.7054 852.442 28.4141 855.234 28.3657C855.873 28.3511 856.501 28.3178 857.139 28.2937C862.539 28.1371 862.862 28.3633 864.885 33.6751C866.389 33.1223 867.57 32.0667 868.314 30.8179C869.614 28.6325 871.432 28.2872 873.042 29.7617C876.884 33.2785 880.591 29.6765 884.326 29.869C884.89 29.8953 885.396 29.1514 885.225 28.4331C884.896 27.0436 884.31 25.6448 885.803 24.5488C887.362 23.4122 888.996 22.5016 891.006 22.4352C892.911 22.3727 894.809 22.1578 896.715 22.1143C898.601 22.0716 900.113 21.6902 900.758 19.5868C901.157 18.2938 902.436 17.8353 903.576 17.22C907.96 14.8798 912.689 13.3562 917.528 12.973C922.766 12.5555 927.483 9.69728 932.843 10.2194C933.991 10.3285 934.839 9.54307 935.746 8.83163C938.422 6.7277 941.596 5.41558 944.937 5.5181C949.5 5.6507 954.199 5.85445 958.546 7.08242C962.594 8.22632 966.702 8.70036 970.706 8.66339C975.5 8.61558 979.288 10.4369 983.057 12.7739C985.185 14.0953 985.279 15.055 983.57 16.7695C982.909 17.4335 982.029 17.8673 981.268 18.4301C979.886 19.4551 978.524 20.4985 976.836 21.7639C979.831 22.0226 982.269 21.9399 984.304 20.0319C985.556 18.8592 987.188 18.3969 988.733 18.9012C992.469 20.1141 996.302 19.5972 1000.08 19.7689C1006.08 20.057 1012.05 21.0329 1018.11 20.4603C1020.69 20.2199 1023.15 19.9742 1025.31 18.4142C1026.71 17.398 1028.17 17.0759 1029.72 18.1138C1032.73 20.1174 1036.08 20.0002 1039.39 19.4745C1044.66 18.6267 1049 20.322 1052.79 23.86C1054.45 25.409 1056.24 26.6382 1058.6 26.7683C1059.07 26.7983 1059.78 27.1053 1059.97 26.9072C1062.6 24.1374 1065.59 26.0557 1068.38 26.3032C1070.51 26.4896 1072.62 26.2668 1074.45 25.5871C1076.84 24.7052 1079.13 23.7793 1081.7 23.5963C1082.85 23.5147 1083.82 22.8296 1084.49 21.9268C1086.27 19.5323 1088.7 19.25 1091.31 19.8948C1093.84 20.5242 1096.36 20.2761 1098.9 20.2374C1101.59 20.1926 1104.28 19.9863 1106.84 21.215C1108.31 21.9221 1109.97 21.621 1111.54 21.533C1115.55 21.3147 1119.46 21.7582 1123.18 23.3246C1124.56 23.9112 1125.97 23.8483 1127.39 23.8233C1128.99 23.8008 1130.7 23.7554 1132.04 24.6013C1135.55 26.8238 1139.37 26.1359 1143.14 26.098C1148.83 26.045 1154.5 25.2011 1160.22 26.3962C1162.58 26.8889 1164.83 27.3856 1166.94 28.5359C1169.78 30.0783 1172.85 30.7443 1176.1 30.6024C1180.69 30.3999 1185.29 30.2546 1189.89 30.0901C1192.74 29.9825 1195.51 29.8015 1198.28 31.0984C1199.87 31.8396 1202.08 32.7765 1202.43 29.0438C1202.57 27.522 1205.45 26.6789 1207.76 26.8873C1214.99 27.5483 1222.27 27.7593 1229.46 28.7462C1233.33 29.2769 1237.15 30.4199 1241.09 30.4331C1246.49 30.4483 1251.67 32.0167 1257.02 32.3769C1261.48 32.6757 1265.51 34.8217 1269.65 36.3242C1272.52 37.3604 1275.37 38.0153 1278.37 38.3978C1283.84 39.1064 1289.19 40.2584 1294.33 42.4766C1298.1 44.0986 1298.2 47.4134 1298.99 50.4067C1299.39 51.946 1295.68 54.0797 1293.39 53.4702C1288.36 52.1249 1283 52.1654 1278.2 49.8962C1276.25 48.9779 1274.18 48.9417 1272.14 49.4671C1271 49.7583 1270.14 50.5441 1269.95 51.7435C1269.71 53.2212 1270.88 53.5681 1271.96 53.9182C1274.36 54.7047 1276.74 55.5589 1279.17 56.249C1280.26 56.5512 1281.3 56.817 1282.12 57.6442C1283.49 59.0135 1283.67 60.294 1282.06 61.6614C1280.53 62.9592 1278.8 63.5682 1276.81 63.5384C1272.72 63.4739 1269.83 65.4714 1268.02 68.9732C1265.89 73.059 1262.82 75.14 1258.08 74.6707C1256.06 74.4705 1253.96 74.464 1252.52 76.5306C1251.71 77.6963 1250.42 77.8596 1249.13 77.1262C1248.72 76.8937 1248.35 76.4785 1247.92 76.39C1246.23 76.0343 1244.39 75.5698 1243.19 77.3128C1242.6 78.1647 1244.85 81.9611 1246.2 82.2059C1251.82 83.1948 1254.88 86.8081 1256.93 91.8134C1257.56 93.3441 1259.14 94.4765 1260.22 95.847C1261.79 97.8192 1262.95 99.8066 1260.7 102.152C1259.45 103.448 1259.65 104.7 1261.28 105.639C1263.01 106.633 1262.79 108.043 1261.65 109.192C1259.44 111.412 1260.08 113.724 1260.95 116.209C1261.99 119.202 1260.68 120.74 1257.57 120.257C1255.59 119.94 1254.14 118.65 1252.7 117.437C1247.11 112.765 1241.49 108.133 1236.02 103.333C1231.59 99.4571 1228.06 94.8699 1226.04 89.2435C1225.37 87.3901 1225.43 85.7665 1227.22 84.6498C1229.58 83.1584 1229.92 80.9808 1229.7 78.4428C1229.48 75.9144 1229.46 73.3974 1230.6 70.9796C1231.01 70.106 1230.6 69.0245 1229.75 68.4464C1228.65 67.6966 1228.11 68.7182 1227.42 69.3451C1226.19 70.4695 1226.15 72.7978 1223.92 72.9012C1221.42 73.0149 1219.16 71.889 1217.38 70.488C1215.23 68.8142 1213.07 68.7436 1210.67 68.9486C1209.44 69.0526 1207.88 68.8633 1207.46 70.3864C1206.95 72.2174 1206.81 74.1493 1208.07 75.8276C1208.34 76.1893 1208.84 76.3805 1209.23 76.6517C1210.26 77.3663 1211.73 78.0353 1211.31 79.4818C1210.9 80.8609 1209.57 81.846 1208.07 81.9692C1203.54 82.3695 1199.09 83.1863 1194.44 81.7886C1189.21 80.222 1183.71 81.0404 1178.48 82.2303C1176.76 82.6196 1175.4 83.3575 1173.61 82.4714C1171.53 81.4343 1169.2 81.8467 1167.05 82.2141C1163.62 82.8016 1162.94 85.9745 1162.19 88.5968C1161.59 90.6699 1160.84 92.8443 1161.05 95.1156C1161.22 96.9972 1159.95 98.371 1159.28 99.951C1158.26 102.335 1158.6 103.191 1161.12 103.486C1162.97 103.702 1164.44 104.324 1165.73 105.6C1166.93 106.776 1168.37 107.484 1170.05 106.772C1174.22 105.013 1178.21 106.483 1182.14 107.517C1184.2 108.059 1185.75 108.715 1186.61 106.041C1187.14 104.429 1188.26 104.272 1189.58 105.242C1190.09 105.614 1190.64 105.965 1191.07 106.416C1196.18 111.659 1201.4 116.802 1206.3 122.243C1208.68 124.881 1211.11 127.183 1214.36 128.662C1216 129.411 1216.89 130.521 1215.18 132.302C1213.27 134.311 1214.48 136.21 1215.94 137.738C1217.58 139.45 1219.43 140.973 1221.28 142.457C1223.06 143.887 1222.99 145.12 1221.5 146.807C1219.05 149.58 1218.19 150.022 1216.06 148.444C1213.57 146.602 1212.24 143.82 1210.79 141.195C1208.32 136.768 1205.11 132.893 1201.42 127.94C1201.43 130.915 1202.39 132.691 1202.56 134.554C1203.06 140.343 1201.81 145.94 1200.57 151.442C1199.66 155.539 1199.16 159.859 1197.01 163.669C1194.79 167.606 1191.45 168.972 1187.1 167.497C1183.75 166.355 1183.2 166.719 1183.08 170.243C1183.04 171.512 1183.05 172.79 1183.2 174.043C1183.46 176.446 1182.57 178.302 1180.94 180.032C1178.32 182.859 1178.27 184.72 1181.41 186.442C1186.04 188.985 1189.13 192.873 1192.33 196.844C1193.99 198.917 1194.73 201.283 1195.6 203.644C1196.43 205.892 1195.73 207.835 1193.54 208.814C1190.8 210.043 1187.97 211.094 1185.11 211.956C1183.41 212.469 1182.43 210.961 1181.9 209.703C1180.32 205.938 1178.63 202.159 1177.63 198.22C1176.95 195.556 1175.69 194.374 1173.19 194.23C1169.29 194.005 1166.82 192.478 1165.9 188.259C1165.18 184.92 1160.84 183.625 1157.8 185.38C1156.57 186.094 1155.47 187.013 1154.29 187.821C1151.87 189.476 1150.93 189.264 1149.28 186.847C1148.44 185.619 1148.25 184.215 1147.85 182.857C1147.11 180.339 1145.94 180.011 1144.28 181.924C1142.41 184.064 1140.76 186.387 1139.12 188.719C1138.47 189.649 1138.81 190.867 1139.97 190.861C1142.68 190.844 1144.42 192.171 1145.89 194.204C1146.51 195.077 1147.49 195.373 1148.39 194.729C1150.65 193.127 1152.88 193.768 1155.21 194.471C1156.56 194.887 1158.01 194.947 1159.43 195.113C1160.44 195.237 1161.32 195.537 1161.62 196.603C1162 197.905 1161.24 198.887 1160.27 199.372C1157.51 200.745 1156.18 203.265 1154.74 205.723C1153.96 207.05 1154.18 208.472 1155.46 209.015C1158.76 210.416 1160.28 213.439 1162.49 215.883C1164.82 218.474 1166.64 221.457 1169.11 223.958C1170.72 225.585 1172.13 227.715 1171.56 230.36C1171.33 231.398 1171.68 232.062 1172.37 232.866C1176.05 237.199 1176.36 241.67 1173.58 246.829C1172.08 249.642 1172.08 253.228 1171.13 256.382C1168.34 265.615 1162.84 272.594 1153.87 276.567C1153.17 276.879 1152.33 277.054 1151.56 277.026C1148.35 276.918 1145.7 277.696 1143.85 280.646C1142.69 282.492 1140.47 282.051 1138.61 282.284C1135.09 282.722 1134.41 283.521 1134 287.093C1133.85 288.339 1134.07 288.998 1135.18 289.805C1137.84 291.726 1137.81 295.246 1135.34 298.382C1133.39 300.859 1130.45 301.533 1128.25 300.014C1125.49 298.106 1124.93 294.808 1126.82 291.647C1128.5 288.818 1128.49 287.397 1126.74 285.336C1124.27 282.416 1121.8 282.519 1119.64 285.71C1119.01 286.649 1118.26 287.403 1117.42 288.14C1113.67 291.457 1113.49 296.595 1117.08 300.198C1119.43 302.55 1121.88 304.823 1124.43 306.948C1131.96 313.244 1135.05 321.557 1135.98 331.059C1136.5 336.304 1133.89 339.569 1129.99 342.005C1127.66 343.447 1125.65 344.668 1124.31 347.341C1123.25 349.479 1120.96 351.101 1119.01 352.691C1117.1 354.251 1115.4 353.572 1114.71 351.233C1114.49 350.478 1114.44 349.669 1114.36 348.881C1114.17 347 1113.46 345.778 1111.44 345.072C1108.73 344.125 1106.77 342.197 1105.27 339.545C1103.17 335.838 1100.75 332.153 1095.61 332.309C1094.38 332.356 1093.86 331.069 1092.74 330.692C1091.58 331.699 1092.16 333.031 1092.14 334.205C1092.1 336.266 1092.07 338.223 1091.28 340.255C1089.99 343.566 1090.26 346.76 1093.27 349.307C1094.87 350.658 1096.07 352.51 1096.59 354.455C1098.01 359.789 1102.17 362.493 1106.17 365.565C1109.84 368.392 1113.14 371.701 1112.82 376.968C1112.63 380.179 1114.46 382.714 1115.62 385.445C1117.95 390.869 1118.01 390.838 1113.62 394.342C1115.21 397.906 1116.16 401.761 1118.69 404.898C1119.61 406.027 1120.2 406.405 1121.79 405.887C1125.46 404.69 1125.7 404.939 1127.82 408.377C1129.06 410.381 1129.89 412.648 1133.18 411.035C1134.77 410.26 1136.05 411.757 1136.08 413.739C1136.1 415.55 1135.17 416.368 1133.43 416.262C1132.81 416.228 1132.19 415.898 1131.57 415.865C1127.76 415.666 1125.89 417.281 1126.09 421.05C1126.25 423.81 1125.34 426.371 1125.26 429.064C1124.82 429.538 1124.39 430.003 1123.95 430.477L1124 430.494ZM659.356 184.881L659.198 184.735C659.105 184.271 659.132 183.736 658.907 183.344C656.758 179.706 655.442 179.441 651.933 181.71C650.211 182.824 648.335 183.658 646.746 185.005C645.166 186.343 643.282 186.443 641.337 185.963C640.105 185.657 638.896 185.207 637.651 185.063C633.935 184.622 632.253 185.792 631.938 189.552C631.703 192.412 630.411 194.302 628.099 195.696C626.346 196.754 624.823 198.099 622.942 199.038C620.154 200.431 618.203 203.318 617.763 206.062C617.277 209.094 616.295 211.611 614.976 214.293C612.842 218.646 609.325 221.192 604.96 222.282C601.04 223.26 597.122 224.285 593.111 225.124C593.661 226.076 594.5 226.054 595.265 226.129C598.836 226.509 602.553 225.196 605.996 227.221C606.649 227.606 607.588 227.218 608.166 226.605C610.154 224.47 613.18 223.812 615.213 221.837C617.347 219.763 619.83 219.364 622.602 219.278C626.249 219.169 629.822 218.318 633.196 217.037C635.546 216.137 637.667 215.475 639.955 216.982C640.815 217.55 641.867 217.624 642.634 216.976C644.666 215.249 647.111 215.586 649.442 215.459C651.983 215.325 654.467 215.193 656.878 214.148C659.946 212.821 662.853 214.065 665.544 215.384C667.138 216.173 668.218 217.763 667.331 219.761C666.795 220.973 666.66 222.199 666.747 223.474C666.92 226.042 666.957 228.53 665.024 230.634C664.035 231.711 664.581 232.778 665.765 233.324C670.607 235.554 675.231 238.545 680.941 238.005C684.105 237.704 686.478 238.93 688.033 241.733C689.281 243.974 691.057 245.28 693.779 245.158C696.054 245.053 698.045 246.017 700.031 247.096C704.451 249.485 705.794 248.7 705.948 243.458C706.029 240.556 707.45 238.528 709.671 237.243C714.112 234.652 718.758 234.734 723.135 237.496C726.124 239.386 729.315 240.314 732.774 241.013C736.291 241.719 739.889 241.545 743.405 242.995C746.989 244.472 751.058 244.918 754.623 241.865C756.276 240.449 758.595 240.485 760.493 241.519C762.46 242.589 764.463 242.342 766.506 242.417C769.409 242.527 771.028 241.474 772.148 238.551C773.128 235.968 772.723 233.084 774.104 230.781C776.051 227.551 775.961 224.14 775.752 220.648C775.497 216.433 774.094 215.38 769.995 216.422C769.249 216.612 768.571 217.086 767.848 217.39C764.957 218.605 762.044 218.992 759.19 217.374C756.315 215.737 753.586 215.183 751.03 217.94C750.737 218.256 750.054 218.606 749.782 218.474C746.032 216.651 741.924 216.453 737.938 215.679C737.804 215.655 737.702 215.478 737.583 215.368C735.444 213.256 734.761 210.096 732.399 208.135C732.922 204.062 729.8 200.442 731.316 196.141C729.096 195.948 727.225 195.628 725.357 195.651C722.164 195.695 720.828 197.682 721.438 200.949C721.677 202.218 722.026 203.387 722.669 204.507C723.496 205.954 723.883 207.866 723.176 209.085C721.743 211.542 720.517 213.916 720.35 216.811C720.304 217.614 719.31 218.043 718.485 217.931C716.607 217.678 714.718 217.396 712.897 216.912C711.79 216.62 710.897 215.719 710.823 214.521C710.64 211.438 708.541 209.39 707.077 206.966C704.482 202.658 700.734 198.861 699.762 193.825C699.026 189.999 697.044 187.757 693.999 185.66C689.202 182.36 683.54 180.39 679.409 176.055C678.555 175.162 677.242 174.716 676.304 173.874C675.011 172.712 673.782 172.491 672.622 173.841C671.435 175.231 671.311 176.743 672.865 177.99C675.245 179.913 676.959 182.375 678.72 184.817C679.878 186.423 681.501 187.487 683.333 188.037C686.718 189.044 689.373 191.433 692.653 192.682C694.365 193.332 695.876 194.706 697.268 195.969C698.424 197.022 698.464 198.575 697.771 199.937C697.017 201.415 695.91 200.388 694.891 200.179C694.016 199.993 693.069 199.399 692.252 200.241C691.759 201.07 692.341 201.82 692.293 202.576C692.102 205.587 691.674 208.645 689.086 210.555C687.249 211.912 685.708 213.01 685.193 215.547C684.703 217.959 682.659 218.895 680.91 218.007C677.954 216.498 675.114 214.774 672.238 213.119C671.507 212.698 671.025 212.058 671.173 211.175C671.336 210.178 671.836 209.281 672.869 209.109C674.423 208.85 676.022 208.789 677.6 208.663C679.33 208.521 681.091 208.683 682.763 208.01C685.665 206.851 686.697 203.379 684.211 201.68C680.707 199.285 677.869 195.587 673.638 194.65C669.638 193.762 666.888 191.396 664.001 188.93C662.444 187.606 661.363 185.75 659.395 184.899L659.356 184.881ZM785.961 188.276C786.846 188.242 787.476 188.247 788.113 188.194C791.619 187.861 792.287 186.873 791.076 183.6C789.939 180.515 788.048 178.154 784.79 176.962C782.421 176.098 780.002 175.169 777.919 173.788C773.009 170.541 768.401 171.478 763.896 174.385C762.164 175.5 760.921 175.165 759.809 173.729C758.456 171.988 756.909 170.434 755.638 168.585C752.145 163.471 747.504 164.038 744.951 169.637C743.278 173.305 741.381 176.868 739.923 180.661C738.377 184.677 740.408 189.703 744.618 189.839C747.931 189.943 751.38 190.146 754.689 188.123C761.194 184.139 768.048 182.077 775.696 185.879C778.845 187.438 782.371 188.917 785.942 188.276L785.961 188.276ZM710.813 96.4558C708.07 96.5595 706.17 96.7458 704.28 96.6743C702.189 96.6008 699.476 96.236 698.89 94.3509C697.784 90.8069 695.388 87.7122 695.26 83.8451C695.196 82.1309 695.756 80.8032 697.195 79.776C698.866 78.5779 700.417 77.2318 702.049 75.9971C703.745 74.7122 705.275 73.3192 705.966 71.1569C699.329 75.7089 692.901 80.4629 686.712 85.494C684.252 87.4944 684.9 90.2642 687.823 92.4329C692.454 95.8627 692.617 99.9287 687.708 103.004C684.281 105.155 682.946 107.695 683.198 111.586C683.339 113.793 683.089 116.759 680.942 117.47C677.024 118.772 674.214 122.893 668.478 121.489C672.137 123.935 674.833 126.131 678.378 124.567C683.367 122.366 688.471 121.152 693.976 121.249C696.934 121.299 699.085 118.662 699.304 115.65C699.361 114.866 699.264 114.068 699.301 113.275C699.649 106.853 703.368 104.338 709.488 106.31C709.671 106.37 709.983 106.033 710.44 105.768C709.379 102.938 707.571 100.002 710.822 96.4554L710.813 96.4558ZM820.491 336.878C821.313 335.178 820.737 334.055 820.253 332.872C819.172 330.243 817.907 327.553 817.886 324.722C817.85 321.013 816.189 318.425 813.539 316.179C811.825 314.728 810.283 313.05 809.957 310.736C809.462 307.207 807.118 304.73 804.327 303.558C800.132 301.799 798.475 298.324 797.968 294.748C797.329 290.213 794.69 287.004 792.682 283.313C791.719 281.547 789.616 280.921 788.753 279.265C785.894 273.756 780.991 269.669 778.28 264.059C777.629 262.72 776.833 261.587 774.995 262.925C773.52 264.001 773.196 265.005 774.327 266.431C777.001 269.82 778.695 273.761 780.471 277.623C782.404 281.823 784.37 285.906 788.042 288.953C789.371 290.057 790.167 291.686 790.857 293.3C792.719 297.664 794.44 302.072 794.812 306.864C794.983 309.128 796.03 310.824 798.102 311.67C800.446 312.621 801.997 314.308 803.267 316.367C807.911 323.945 814.098 330.225 820.509 336.868L820.491 336.878ZM775.782 162.415C773.216 163.399 770.946 163.647 768.668 163.924C768.023 163.996 767.486 164.427 767.377 165.089C767.268 165.741 767.59 166.425 768.189 166.622C770.014 167.23 771.916 167.092 773.697 166.547C775.149 166.101 775.767 164.8 775.791 162.415L775.782 162.415Z" fill="#F7F5F5"/>
<path d="M1231.65 473.344C1232.22 468.306 1235.83 465.022 1238.63 461.283C1239.93 459.536 1241.8 458.168 1244.15 457.955C1246.15 457.775 1246.93 456.878 1246.62 454.829C1246.28 452.506 1247.6 452.074 1249.54 452.659C1250.15 452.846 1250.75 453.052 1251.32 453.316C1255.96 455.477 1260.75 456.889 1265.95 456.196C1270.28 455.623 1271.57 460.171 1269.34 463.011C1267.85 464.918 1266.8 466.979 1265.88 469.198C1265.24 470.748 1265.59 471.764 1266.42 473.106C1269.69 478.39 1275.16 480.777 1280.16 483.716C1282.25 484.944 1284.3 483.845 1285.13 480.906C1286.1 477.397 1287.71 474.075 1288.35 470.513C1289.41 464.55 1291.84 459.041 1293.5 453.285C1294.01 451.54 1294.62 449.104 1296.81 449.136C1299.03 449.166 1299.41 451.526 1299.88 453.387C1300.03 453.992 1300.51 454.527 1300.6 455.134C1301.45 461.272 1302.76 467.173 1308.44 470.916C1308.91 474.828 1310.95 478.346 1311.27 482.292C1311.37 483.556 1311.44 484.831 1311.39 486.092C1311.27 489.406 1311.8 492.104 1315.26 493.928C1320.04 496.456 1321.03 501.911 1323.51 506.186C1323.82 506.708 1323.62 507.659 1324.02 507.978C1329.39 512.295 1329.54 519.986 1334.68 524.427C1336.38 525.907 1336.25 527.352 1335.71 529.471C1334.98 532.283 1334.09 535.235 1334.87 538.295C1335.08 539.146 1334.84 540.204 1334.54 541.074C1332.09 548.109 1329.22 554.979 1325.29 561.298C1323.66 563.915 1321.05 565.941 1318.77 568.115C1314.98 571.72 1310.99 575.104 1308.37 579.743C1308.14 580.152 1307.9 580.6 1307.56 580.909C1303.62 584.433 1300.93 588.932 1298.01 593.238C1296.93 594.843 1295.62 595.617 1293.72 595.718C1290.27 595.896 1287.36 597.542 1284.66 599.503C1281.04 602.129 1277.39 603.402 1273.37 600.464C1272.29 599.676 1271.31 599.751 1270.34 600.522C1267.21 603.015 1263.77 602.277 1260.36 601.443C1258.54 600.997 1256.84 600.165 1254.98 599.691C1251.98 598.937 1250.56 595.91 1251.09 592.486C1252.01 586.529 1251.24 585.346 1245.52 584.142C1244.54 583.931 1243.48 583.799 1243.59 582.565C1243.79 580.45 1242.88 581.085 1241.68 581.531C1239.1 582.506 1237.88 581.951 1236.98 579.573C1236.75 578.99 1236.62 578.346 1236.59 577.718C1236.37 572.738 1233.69 569.941 1229.3 567.637C1224.74 565.254 1220.41 565.589 1216.02 566.88C1210.61 568.477 1205.46 570.732 1199.81 571.861C1196.06 572.613 1191.96 574.094 1189.01 577.219C1187.43 578.89 1185.37 579.703 1183.01 579.668C1181.9 579.653 1180.79 579.79 1179.68 579.756C1174.19 579.62 1168.95 580.123 1164.73 584.298C1163.64 585.369 1162.08 586.048 1160.65 586.665C1155.52 588.843 1149.7 587.079 1146.82 582.601C1145.61 580.73 1146.56 578.968 1147.79 577.882C1152.22 573.956 1152.89 569.087 1152.15 563.621C1151.81 561.117 1151.83 558.56 1151.82 556.023C1151.82 551.37 1150.89 546.951 1149.11 542.631C1148.03 540.002 1147.26 537.084 1150.22 534.874C1151.12 534.201 1151.16 533.237 1150.97 532.29C1150.3 528.939 1151.67 526.093 1153.08 523.227C1153.71 521.953 1154.61 520.67 1154.75 519.32C1155.18 515.232 1158.22 513.448 1161.2 511.723C1162.43 511.009 1163.72 510.426 1164.72 509.387C1166.55 507.468 1168.68 506.338 1171.42 506.292C1172.31 506.277 1173.37 505.97 1174.07 505.438C1177.46 502.888 1181.46 502.078 1185.43 501.213C1190.04 500.209 1195.95 494.301 1196.7 489.59C1197.26 486.136 1198.7 483.917 1202.47 483.174C1205.12 482.654 1206.38 479.983 1208.13 478.039C1211.22 474.603 1213.94 470.656 1218.38 468.657C1222.27 466.908 1224.83 467.355 1227.84 470.36C1228.91 471.435 1229.48 473.121 1231.69 473.304L1231.65 473.344Z" fill="#F7F5F5"/>
<path d="M1325.04 423.587C1325.49 425.335 1324.66 426.634 1323.62 427.894C1322.88 428.79 1322.34 429.955 1323.11 430.956C1324.72 433.088 1326.13 435.905 1328.34 436.919C1331.88 438.549 1333.64 441.744 1336.36 444.045C1338.46 445.825 1337.52 448.34 1334.86 448.193C1328.76 447.851 1322.43 447.881 1317.63 443.017C1316.5 441.868 1315.47 440.657 1314.97 439.132C1314.19 436.777 1312.43 435.68 1310.23 434.914C1307.1 433.831 1305.26 434.206 1304.4 437.51C1302.62 444.281 1293.31 445.339 1288.98 440.381C1288.36 439.67 1287.52 439.159 1286.85 438.478C1285.26 436.841 1283.66 436.672 1281.81 438.087C1280.42 439.141 1278.97 440.093 1277.01 439.566C1274.61 438.913 1273.88 437.662 1274.78 435.368C1275 434.778 1275.48 434.274 1275.63 433.677C1276.06 432.001 1279.13 431.494 1277.58 428.93C1275.76 425.899 1275.13 422.261 1271.07 420.631C1267.03 419 1262.38 418.862 1258.92 415.693C1257.78 414.649 1256.65 415.779 1255.57 416.525C1253.15 418.2 1252.63 418.048 1251.11 415.721C1250.85 415.321 1250.66 414.88 1250.42 414.469C1248.61 411.327 1249.18 408.479 1252.12 405.927C1247.82 406.09 1245.44 402.575 1241.88 401.46C1240.8 401.129 1240.32 399.898 1240.53 398.669C1240.76 397.296 1241.71 396.812 1242.97 397.051C1244.86 397.418 1246.33 396.237 1247.95 395.747C1254.63 393.739 1258.62 395.629 1260.89 402.066C1261.32 403.262 1261.8 404.445 1262.4 405.548C1263.57 407.697 1264.32 407.936 1265.89 406.265C1267.65 404.386 1269.91 403.175 1271.71 401.448C1273.87 399.373 1276.06 399.195 1278.68 400.087C1283.92 401.863 1289.28 403.348 1294.41 405.386C1297.38 406.561 1300.54 406.785 1303.5 407.989C1307.94 409.795 1311.19 413.039 1314.32 416.344C1316.76 418.932 1319.04 421.373 1322.73 422.053C1323.59 422.212 1324.31 423.081 1325.08 423.624L1325.03 423.569L1325.04 423.587Z" fill="#F7F5F5"/>
<path d="M1168.25 419.293C1166.78 419.368 1165.73 419.284 1164.86 418.382C1162.65 416.11 1160.01 415.905 1157.04 416.675C1153.14 417.69 1149.56 416.176 1145.97 414.938C1144.29 414.363 1143.67 412.947 1143.4 411.259C1143 408.718 1142.2 406.317 1140.3 404.462C1139.02 403.204 1139.1 401.618 1138.96 400.05C1138.76 397.711 1138.9 395.407 1137.76 393.124C1136.68 390.971 1139.09 387.237 1142.01 386.907C1145.36 386.523 1147.63 385.445 1148.69 382.058C1149.19 380.446 1150.77 379.605 1152.4 379.447C1155.48 379.159 1157.2 377.301 1158.44 374.746C1159.49 372.561 1160.93 370.571 1162.97 369.339C1166.88 366.979 1169.65 363.612 1172.2 359.949C1174.22 357.04 1175.48 356.955 1177.58 359.784C1178.97 361.667 1180.51 362.925 1182.83 363.486C1183.95 363.758 1184.95 364.817 1185.88 365.65C1186.76 366.437 1187.29 367.504 1186.4 368.577C1185.19 370.053 1185.09 372.289 1183.39 373.345C1180.18 375.345 1180.8 378.126 1182.08 380.642C1183.45 383.327 1183.69 386.447 1185.53 388.923C1186.55 390.287 1186.55 391.517 1184.52 392.137C1181.99 392.9 1181.16 394.839 1181.35 397.312C1181.52 399.423 1180.7 400.96 1178.9 402.087C1176.69 403.477 1175.8 405.494 1175.91 408.132C1176.03 410.998 1174.63 413.616 1173.98 416.34C1173.39 418.851 1170.04 418.377 1168.27 419.283L1168.25 419.293Z" fill="#F7F5F5"/>
<path d="M862.98 489.214C861.499 492.417 861.662 496.712 859.865 500.385C858.998 502.163 858.622 503.827 858.389 505.733C857.769 510.773 855.773 515.474 854.315 520.307C853.138 524.233 851.605 528.058 850.129 531.891C849.547 533.391 849.289 534.898 849.12 536.487C848.495 542.405 844.027 547.037 838.236 547.981C834.114 548.652 827.721 543.753 827.211 539.347C826.86 536.366 826.861 533.352 825.845 530.453C825.151 528.477 826.061 526.583 827.1 525.056C830.615 519.906 831.29 514.311 830.576 508.292C830.185 505.007 830.079 501.712 831.945 498.608C833.148 496.617 834.367 494.816 836.713 494.337C842.315 493.19 845.789 489.492 848.163 484.682C849.987 480.989 853.63 478.486 854.546 474.207C854.846 472.813 856.134 472.831 857.153 473.803C857.717 474.345 858.33 474.913 858.689 475.595C860.837 479.682 862.325 483.984 862.971 489.214L862.98 489.214Z" fill="#F7F5F5"/>
<path d="M1227.83 171.802C1225.41 173.191 1223.8 173.328 1222.72 170.927C1222.27 169.943 1221.5 169.095 1220.84 168.204C1219.49 166.386 1218.92 163.737 1220.07 162.406C1223.12 158.867 1220.65 156.424 1219.29 153.576C1218.85 152.677 1217.61 151.742 1218.66 150.615C1219.52 149.686 1220.73 150.012 1221.78 150.392C1224.16 151.237 1226.55 152.052 1228.89 153.013C1231.66 154.148 1234.28 155.298 1237.48 155.263C1240.79 155.233 1242.4 158.367 1244.11 160.763C1244.85 161.794 1244.01 162.922 1242.95 163.506C1240.98 164.591 1239.29 165.742 1238.55 168.145C1238.04 169.804 1236.41 169.837 1234.95 169.12C1233.24 168.279 1231.49 167.792 1229.54 167.799C1229.01 170.022 1230.75 170.49 1231.83 171.041C1236.86 173.597 1239.27 177.94 1241.1 183.05C1242.86 187.961 1243.16 193.281 1245.61 197.985C1246.35 199.397 1246.1 201.095 1246.06 202.68C1246.01 204.474 1245.33 205.845 1243.27 205.722C1241.66 205.631 1240.66 206.536 1239.48 207.354C1238.05 208.323 1236.51 209.249 1234.67 209.214C1232.89 209.176 1232.03 209.905 1231.14 211.598C1229.24 215.237 1227.55 215.262 1224.04 212.267C1222.94 215.98 1219.69 217.457 1216.67 218.811C1214.99 219.571 1214.53 220.323 1214.57 221.886C1214.59 222.676 1214.6 223.496 1214.39 224.238C1213.83 226.205 1212.61 227.634 1210.48 227.886C1208.49 228.124 1206.88 226.954 1206.31 225.326C1205.5 222.972 1204.2 221.133 1202.43 219.502C1201.58 218.724 1200.92 217.671 1201.4 216.528C1203.57 211.248 1206.19 206.257 1210.87 202.675C1211.95 201.852 1213.21 201.786 1214.47 201.662C1218.25 201.29 1221.63 200.399 1222.48 195.875C1222.74 194.473 1224.03 194.1 1225.27 193.624C1230.86 191.486 1231.86 188.902 1229.47 183.337C1227.99 179.874 1226.19 176.461 1227.83 171.812L1227.83 171.802Z" fill="#F7F5F5"/>
<path d="M1190.68 322.935C1189.09 320.754 1186.42 320.33 1184.29 319.037C1180.49 316.73 1178.82 314.113 1179.92 310.076C1180.86 306.626 1181.12 303.288 1180.72 299.746C1180.35 296.432 1181.31 295.594 1184.73 295.312C1189.26 294.941 1190.55 295.75 1192.37 299.982C1193.93 303.604 1194.77 306.987 1192.24 310.764C1190.41 313.503 1192.28 316.389 1195.71 316.812C1197.29 317.01 1198.78 317.231 1200.3 317.831C1203.06 318.918 1204.91 320.584 1205.12 323.647C1205.27 325.73 1206.25 326.523 1208.34 326.949C1212.03 327.697 1213.65 330.191 1212.74 334.002C1211.85 337.717 1212.92 339.822 1215.68 342.56C1218.82 345.674 1220.72 350.475 1220.37 355.019C1220.14 358.031 1217.95 360.937 1217.32 364.194C1217.04 365.702 1215.41 366.145 1213.8 365.739C1210.19 364.826 1207.55 362.876 1206.32 359.174C1205.19 355.755 1204.06 355.349 1200.75 356.838C1200.04 357.161 1199.38 357.748 1198.65 357.833C1197.39 357.986 1196.35 357.443 1196.68 355.943C1197.34 353.057 1197.59 349.901 1201.18 348.754C1202.38 348.375 1203.3 347.386 1203.9 346.2C1205.05 346.586 1206 348.381 1207.17 347.507C1208.37 346.613 1209.26 345.225 1210.54 344.28C1211.08 343.878 1210.9 343.189 1210.49 342.594C1208.63 339.86 1207.08 339.9 1205.45 342.813C1204.85 343.904 1204.44 345.102 1203.93 346.247C1201.08 344.895 1197.23 344.535 1197.75 339.862C1197.83 339.144 1196.84 339.095 1196.43 338.653C1196.01 338.201 1195.55 337.685 1195.41 337.128C1194.97 335.437 1194.49 333.5 1196.26 332.384C1197.85 331.38 1199.27 332.423 1200.4 333.668C1200.95 334.276 1201.48 334.953 1202.3 334.178C1202.93 333.581 1203.2 332.484 1202.41 332.133C1199.66 330.902 1197.39 329.566 1197.77 325.937C1197.82 325.449 1196.46 324.642 1195.64 324.254C1194.06 323.522 1192.41 322.955 1190.64 322.879L1190.67 322.906L1190.68 322.935Z" fill="#F7F5F5"/>
<path d="M1196.25 418.206C1195.06 419.548 1195.63 420.862 1195.51 422.058C1195.37 423.532 1194.87 424.838 1193.98 425.988C1193 427.265 1191.69 427.591 1190.16 427.143C1188.84 426.754 1188.65 425.636 1188.56 424.515C1188.47 423.564 1188.35 422.596 1188.48 421.666C1188.89 418.818 1188.42 416.394 1186.01 414.445C1184.5 413.214 1184.46 411.375 1185.14 409.623C1186.88 405.19 1188 400.637 1188.92 395.948C1190.19 389.51 1196.02 386.305 1202.23 388.187C1205.59 389.204 1208.45 389.134 1210.78 386.185C1211.16 385.694 1211.67 385.265 1212.19 384.921C1214.29 383.535 1215.94 384.34 1216.11 386.794C1216.39 390.922 1213.69 394.115 1209.48 394.579C1205.86 394.983 1202.19 393.93 1198.59 394.953C1197.68 395.206 1196.67 395.206 1195.84 395.6C1194.64 396.151 1194.46 397.302 1194.91 398.439C1195.36 399.557 1196.27 399.618 1197.27 399.151C1199.85 397.928 1202.75 398.305 1205.45 397.611C1206.69 397.297 1208.04 397.752 1208.66 399.083C1209.33 400.516 1208.45 401.475 1207.42 402.324C1207.18 402.524 1206.96 402.771 1206.69 402.924C1201.68 405.775 1201.49 407.756 1205.09 414.009C1206.84 417.052 1207.06 419.943 1206.92 423.057C1206.83 425.311 1204.96 426.069 1203.32 424.509C1202.04 423.299 1201.13 422.37 1199.06 422.525C1196.65 422.711 1197.42 419.611 1196.25 418.206Z" fill="#F7F5F5"/>
<path d="M1348.37 641.182C1346.18 641.37 1344.36 640.199 1342.38 639.673C1338.8 638.712 1338.19 636.78 1341.23 634.615C1347.36 630.272 1352.8 624.964 1360.4 622.674C1365.61 621.104 1370.71 618.536 1374.3 613.976C1376.78 610.82 1380.89 609.702 1383.49 606.599C1384.53 605.349 1390.48 606.326 1391.54 607.678C1392.87 609.363 1392.73 611.295 1391.39 612.909C1389.78 614.859 1388.13 616.838 1386.18 618.419C1383.71 620.419 1381.11 622.253 1379.02 624.64C1377.18 626.732 1374.59 627.354 1372.2 627.635C1368.25 628.099 1365.54 630.081 1363.03 632.894C1359.79 636.516 1355.28 638.318 1351.12 640.582C1350.33 641.013 1349.29 640.986 1348.36 641.173L1348.37 641.182Z" fill="#F7F5F5"/>
<path d="M1124 430.494C1124.44 430.029 1124.87 429.555 1125.31 429.081C1127.98 429.352 1130.59 430.092 1133.32 429.856C1134.61 429.74 1135.81 430.134 1136.9 430.903C1139.61 432.822 1142.62 432.68 1145.55 431.749C1147.44 431.143 1149.2 430.905 1151.12 431.452C1153.6 432.169 1156.16 431.662 1158.69 431.7C1162.27 431.756 1162.41 431.788 1163.08 435.444C1163.26 436.429 1163.76 436.725 1164.42 437.139C1166.45 438.445 1168.81 439.099 1171.06 439.453C1173.44 439.83 1175.82 439.664 1178.04 441.02C1178.97 441.595 1180.15 440.711 1181.17 440.291C1182.82 439.6 1184.53 439.392 1186.3 439.611C1187.25 439.727 1188.2 439.949 1188.53 441.053C1188.89 442.279 1188.52 443.571 1187.42 443.879C1184.72 444.649 1182.03 446.677 1179.67 446.566C1177.18 446.45 1173.98 446.352 1171.75 444.567C1170.45 443.539 1169.4 443.149 1167.91 443.692C1166.51 444.203 1165.14 443.883 1163.71 443.689C1162 443.458 1160.15 443.194 1158.52 443.599C1154.31 444.645 1150.43 444.029 1146.56 442.239C1144.69 441.375 1142.61 441.063 1140.52 441.161C1134.63 441.441 1129.47 439.1 1124.33 436.671C1122.8 435.947 1122.25 434.757 1123.25 433.193C1123.79 432.352 1123.93 431.432 1124.01 430.484L1124 430.494Z" fill="#F7F5F5"/>
<path d="M551.633 85.6721C546.687 85.7638 542.585 84.4407 538.374 83.7894C537.53 83.6592 536.649 83.063 537.037 82.2282C537.805 80.6065 536.21 79.5034 536.408 78.1893C536.629 76.7314 536.5 76.0973 534.842 76.3603C533.827 76.5226 532.932 76.0415 532.551 75.0546C531.981 73.5884 533.449 73.3135 534.125 72.5346C536.364 69.9608 538.754 69.6224 542.161 70.4568C548.08 71.9209 554.158 71.2619 560.013 69.505C563.747 68.3911 566.816 69.1047 569.417 72.0867C571.46 74.4222 571.55 75.5442 569.507 77.7481C568.618 78.6973 567.514 79.2445 566.362 79.8126C562.112 81.8902 557.345 82.6713 553.253 85.1626C552.601 85.5592 551.755 85.6389 551.623 85.682L551.633 85.6721Z" fill="#F7F5F5"/>
<path d="M272.247 322.193C272.265 324.453 268.819 326.863 266.568 326.347C265.5 326.101 264.417 325.694 263.481 325.138C261.998 324.25 260.604 323.95 259.016 324.84C257.289 325.82 256.261 325.363 255.313 323.482C252.552 318.046 247.732 315.386 241.913 314.319C241.135 314.177 240.292 314.333 239.549 314.103C235.93 312.953 232.369 311.819 228.928 314.638C228.512 314.978 227.699 314.904 227.068 314.88C225.731 314.817 223.958 315.589 223.295 313.926C222.747 312.564 224.339 311.789 225.075 310.826C226.982 308.313 229.542 307.157 232.63 306.364C238.957 304.732 244.332 306.684 250.211 308.846C256.023 310.982 260.378 314.946 265.513 317.851C267.159 318.781 269.212 318.856 270.611 320.281C271.255 320.944 272.207 321.384 272.247 322.193Z" fill="#F7F5F5"/>
<path d="M1266.46 610.473C1268.81 610.67 1271.06 611.538 1273.5 611.351C1275.76 611.17 1277.6 610.834 1277.7 608.007C1277.73 607.081 1278.03 605.991 1279.27 606.049C1280.31 606.096 1280.91 606.951 1281.39 607.772C1281.89 608.63 1281.96 609.62 1281.58 610.53C1278.64 617.727 1274.2 623.732 1267.3 627.578C1265.73 628.448 1263.53 629.752 1262.06 627.939C1260.58 626.116 1258.67 624.042 1260.07 621.157C1261.17 618.855 1260.53 616.133 1261.78 613.806C1262.82 611.86 1263.99 610.328 1266.47 610.482L1266.46 610.473Z" fill="#F7F5F5"/>
<path d="M280.664 322.142C286.68 321.104 291.097 324.952 296.177 326.391C297.478 326.761 297.949 328.116 297.887 329.502C297.822 331.059 296.726 331.577 295.414 331.941C291.187 333.121 286.68 333.216 282.656 335.218C282.263 335.414 281.7 335.407 281.248 335.319C278.32 334.772 275.472 333.849 272.46 333.629C271.504 333.561 270.729 332.741 270.66 331.685C270.578 330.525 271.416 329.969 272.431 329.854C275.308 329.526 276.414 328.502 274.87 325.508C273.934 323.684 275.205 322.52 277.114 322.295C278.367 322.153 279.636 322.181 280.645 322.143L280.664 322.142Z" fill="#F7F5F5"/>
<path d="M995.762 361.434C995.082 358.57 996.897 355.879 997.329 352.945C997.586 351.161 998.975 350.822 1000.58 351.42C1000.73 351.471 1000.85 351.581 1000.99 351.652C1005.16 353.621 1009.81 361.828 1009.39 366.479C1009.11 369.599 1004.91 373.114 1001.78 372.928C1000.38 372.847 999.221 372.195 998.728 371.012C997.489 367.997 995.589 365.17 995.763 361.444L995.762 361.434Z" fill="#F7F5F5"/>
<path d="M1325.08 423.643C1324.85 420.924 1325.93 419.481 1328.83 419.419C1330.39 419.389 1331.93 418.815 1333.5 418.699C1337.95 418.368 1340.07 415.408 1341.74 411.778C1342.28 410.585 1342.32 409.697 1341.2 408.9C1340.43 408.347 1339.61 407.835 1338.98 407.143C1337.95 406.028 1338.24 405.149 1339.74 404.759C1339.89 404.715 1340.05 404.709 1340.21 404.703C1344.46 404.361 1350.32 410.538 1349.7 414.682C1349.55 415.698 1349.13 416.83 1348.02 416.462C1346 415.775 1345.58 417.298 1344.74 418.36C1344.64 418.487 1344.53 418.606 1344.46 418.742C1340.41 426.315 1331.43 426.865 1325.04 423.597L1325.09 423.652L1325.08 423.643Z" fill="#F7F5F5"/>
<path d="M1173.36 269.421C1173.19 267.062 1173.52 264.97 1174.47 262.874C1175.44 260.749 1176.74 259.479 1179.11 259.733C1181.04 259.937 1183.11 262.385 1182.71 264.604C1182.09 268.003 1182.36 271.502 1181.28 274.834C1180.26 277.972 1178.88 278.367 1176.16 276.381C1173.66 274.559 1173.26 272.047 1173.36 269.411L1173.36 269.421Z" fill="#F7F5F5"/>
<path d="M1206.82 449.01C1206.68 446.069 1207.83 444.08 1210.47 443.255C1212.66 442.572 1214.43 441.579 1216.04 439.898C1218.11 437.731 1220.93 437.881 1223.61 438.524C1225.57 438.993 1225.96 440.6 1224.61 442.11C1224.1 442.683 1223.43 443.204 1222.74 443.526C1218.56 445.41 1214.43 447.359 1211.2 450.752C1210.4 451.603 1209.36 452.033 1208.2 451.476C1207.02 450.92 1206.91 449.789 1206.83 449.01L1206.82 449.01Z" fill="#F7F5F5"/>
<path d="M1228.87 404.775C1228.44 404.61 1228 404.483 1227.6 404.27C1226.79 403.842 1223.99 397.549 1224.48 396.844C1226.4 394.073 1225.61 391.089 1225.43 388.139C1225.37 387.197 1225.3 386.237 1225.42 385.307C1225.73 382.95 1226.95 382.283 1228.93 383.534C1229.86 384.128 1230.68 384.67 1231.82 384.913C1235.2 385.624 1235.62 386.552 1233.04 389.024C1229.14 392.758 1229.35 397.07 1230.64 401.542C1231.21 403.552 1230.21 404.038 1228.88 404.774L1228.87 404.775Z" fill="#F7F5F5"/>
<path d="M1222.54 410.364C1225.55 410.05 1228.47 410.264 1231.55 409.08C1235.05 407.736 1239.02 408.892 1242.47 410.755C1243.42 411.272 1244.55 411.773 1244.06 413.241C1243.67 414.381 1242.89 415.155 1241.66 415.23C1240.89 415.278 1240.05 415.253 1239.34 414.984C1235.46 413.548 1231.69 413.375 1227.94 415.415C1227.17 415.835 1226.07 415.924 1225.19 415.777C1223.71 415.546 1221.82 416.133 1220.92 414.403C1219.92 412.504 1222.05 411.699 1222.59 410.325L1222.54 410.364Z" fill="#F7F5F5"/>
<path d="M1384.91 443.257C1384.6 443.298 1384.28 443.319 1383.97 443.369C1381.49 443.797 1379.57 443.049 1378.64 440.595C1377.69 438.085 1379.7 437.046 1382.4 435.322C1378.44 435.52 1376.59 433.444 1374.28 432.253C1373.16 431.676 1372.63 430.694 1373.19 429.51C1373.89 428.005 1375.28 428.077 1376.4 428.787C1379.03 430.443 1381.51 432.094 1384.69 432.928C1386.47 433.394 1387.53 436.463 1388.17 438.756C1388.43 439.653 1387.76 440.25 1386.96 440.5C1385.55 440.935 1384.95 441.892 1384.89 443.306L1384.91 443.267L1384.91 443.257Z" fill="#F7F5F5"/>
<path d="M1403.33 505.961C1403.43 508.456 1401.83 509.632 1399.94 508.607C1395.79 506.341 1393.09 502.648 1390.66 498.734C1390.47 498.418 1390.52 497.729 1390.74 497.425C1391.39 496.552 1392.39 496.514 1393.31 496.918C1397.16 498.584 1400.32 501.154 1402.78 504.542C1403.13 505.024 1403.23 505.698 1403.33 505.961Z" fill="#F7F5F5"/>
<path d="M1365.72 427.838C1360.34 427.688 1356.79 425.142 1355.11 420.075C1354.78 419.124 1354.53 418.19 1355.58 417.616C1356.48 417.134 1357.48 417.249 1358.19 417.994C1359.17 419.006 1359.96 420.197 1360.95 421.199C1362.23 422.524 1363.35 424.198 1365.58 424.009C1365.88 423.988 1366.22 424.071 1366.49 424.213C1367.49 424.747 1368.53 425.433 1368.3 426.681C1368.04 428.102 1366.72 427.914 1365.73 427.828L1365.72 427.838Z" fill="#F7F5F5"/>
<path d="M1194.26 439.462C1196.3 439.5 1198.34 439.499 1200.37 439.603C1201.67 439.669 1202.99 439.972 1203.13 441.568C1203.26 442.984 1202.03 443.412 1201.01 443.68C1197.59 444.572 1194.17 443.948 1190.83 443.273C1189.32 442.968 1189.64 441.669 1190.43 440.685C1191.41 439.456 1192.82 439.298 1194.26 439.453L1194.26 439.462Z" fill="#F7F5F5"/>
<path d="M1222.59 410.325C1219.24 409.755 1217.11 406.889 1213.99 405.786C1212.61 405.304 1213 403.868 1214.32 403.38C1216.44 402.594 1218.66 402.71 1220.84 403.181C1222.14 403.456 1222.57 404.479 1222.6 405.651C1222.64 407.223 1222.57 408.79 1222.54 410.364L1222.59 410.325Z" fill="#F7F5F5"/>
<path d="M1190.65 322.907C1191.6 323.968 1192.56 325.057 1192.89 326.484C1193.23 327.902 1192.52 328.959 1191.38 329.679C1190.41 330.288 1189.54 329.73 1188.82 329.08C1188.24 328.558 1187.68 327.978 1187.24 327.337C1186.13 325.729 1183.84 323.975 1185.51 322.081C1186.82 320.601 1189 322.082 1190.67 322.935L1190.64 322.907L1190.65 322.907Z" fill="#F7F5F5"/>
<path d="M1192.79 450.772C1191.4 450.405 1189.71 450.03 1188.06 449.52C1187.09 449.213 1186.53 448.433 1186.54 447.384C1186.55 446.182 1187.39 445.788 1188.4 445.702C1190.27 445.555 1192.2 445.177 1193.98 445.939C1195.31 446.509 1196.5 447.446 1196.12 449.168C1195.76 450.774 1194.34 450.684 1192.79 450.772Z" fill="#F7F5F5"/>
<path d="M306.454 328.605C308.664 328.55 310.942 330.047 310.528 331.436C309.919 333.5 308.083 334.113 306.153 334.272C304.423 334.414 303.064 333.769 302.819 331.823C302.574 329.897 304.006 328.669 306.454 328.605Z" fill="#F7F5F5"/>
<path d="M1373.77 434.886C1373.71 435.937 1373.04 436.506 1371.96 436.585C1370.36 436.693 1367.56 434.253 1367.66 432.79C1367.72 431.872 1368.45 431.492 1369.3 431.412C1371.29 431.232 1373.76 433.112 1373.78 434.885L1373.77 434.886Z" fill="#F7F5F5"/>
<path d="M1384.89 443.306C1386.95 441.931 1388.7 442.694 1390.41 444.051C1391.32 444.779 1391.31 445.647 1390.79 446.535C1390.26 447.414 1389.48 447.891 1388.43 447.302C1386.77 446.382 1385.12 445.452 1384.91 443.257L1384.88 443.297L1384.89 443.306Z" fill="#F7F5F5"/>
<path d="M251.017 39.6302C247.123 41.2843 243.103 41.3887 239.03 40.8465C237.908 40.6982 236.708 40.715 236.352 39.3743C235.951 37.8445 236.93 37.0254 238.188 36.4915C241.51 35.0784 244.653 33.2047 248.502 33.3929C250.862 33.5135 253.242 33.1469 255.614 33.1049C258.035 33.0705 260.062 32.9557 262.445 34.9637C265.144 37.2458 269.323 37.803 272.888 39.0415C274.028 39.437 274.522 38.3693 275.184 37.7339C278.633 34.3801 279.922 34.1597 284.115 36.6142C285.061 37.1697 285.864 36.9772 286.781 37.0283C288.998 37.1543 289.527 38.2691 288.221 40.0637C286.291 42.7212 283.81 44.7033 280.381 44.7853C272.34 44.9655 264.323 46.5561 256.249 45.0972C254.713 44.8215 253.092 45.064 251.508 45.0476C250.545 45.0364 249.513 44.98 249.019 44.0164C248.442 42.8843 249.421 42.3132 250.124 41.7335C250.605 41.3338 251.156 41.0269 251.676 40.6734C251.463 40.3286 251.24 39.9842 251.027 39.6394L251.017 39.6302Z" fill="#F7F5F5"/>
<path d="M314.465 39.6152C311.431 40.3308 308.583 41.6878 305.263 41.3747C302.2 41.0804 299.448 39.6491 296.345 39.5471C295.209 39.5138 294 38.5677 293.42 37.3498C292.861 36.1694 293.077 35.074 294.446 34.7266C296.127 34.3006 298.141 33.8334 299.464 35.0327C301.38 36.7722 302.488 35.8338 304.341 34.8959C307.943 33.0812 312.053 33.8318 315.965 33.8937C317.377 33.9165 317.783 35.0837 316.99 36.2963C316.215 37.4796 315.283 38.5543 314.419 39.6742L314.465 39.6152Z" fill="#F7F5F5"/>
<path d="M316.955 30.318C313.929 30.2417 310.816 29.3771 308.481 26.6235C307.363 25.2925 307.705 24.2591 309.209 23.6777C310.994 22.9903 312.842 22.4245 314.628 23.7684C315.668 24.5492 316.863 24.8569 318.147 25.0372C319.777 25.2617 321.555 25.8906 321.369 27.7955C321.163 29.9014 319.192 30.2239 316.955 30.318Z" fill="#F7F5F5"/>
<path d="M282.821 34.4316C282.429 34.3987 281.926 34.4654 281.51 34.3C279.865 33.666 277.362 34.0373 277.116 31.5765C276.867 29.0206 279.357 29.5558 280.803 28.9671C282.098 28.4317 283.391 27.8106 284.821 27.8137C286.128 27.812 287.331 28.1098 287.87 29.5009C288.325 30.6948 287.78 31.6691 287.009 32.4708C285.909 33.6377 284.554 34.3756 282.812 34.432L282.821 34.4316Z" fill="#F7F5F5"/>
<path d="M334.756 28.7672C334.43 29.7332 333.682 30.3718 332.879 30.8409C330.845 32.0145 326.432 30.5602 325.434 28.3568C324.622 26.5755 325.866 25.6797 327.246 25.103C328.701 24.4948 333.658 26.4722 334.494 27.8902C334.646 28.1514 334.678 28.4745 334.756 28.7672Z" fill="#F7F5F5"/>
<path d="M314.419 39.6742C316.671 38.9691 318.844 37.9328 321.323 38.1728C323.17 38.3509 324.395 39.2201 324.483 41.0574C324.572 42.9041 323.118 43.2834 321.591 43.4937C317.076 44.1223 315.617 43.3577 314.465 39.6152L314.419 39.6742Z" fill="#F7F5F5"/>
<path d="M325.165 36.3779C324.676 36.3201 323.731 36.2891 322.818 36.1043C321.665 35.8618 320.648 35.2041 320.724 33.9233C320.812 32.4608 322.136 32.4298 323.23 32.3598C325.114 32.2504 327 32.2077 328.888 32.2031C329.698 32.201 330.471 32.4579 330.64 33.4147C330.787 34.2675 330.384 34.9503 329.706 35.4242C328.479 36.2717 327.051 36.3352 325.175 36.3871L325.165 36.3779Z" fill="#F7F5F5"/>
<path d="M659.356 184.881C659.497 187.079 659.646 189.248 659.148 191.47C658.568 194.038 660.084 196.317 660.671 198.727C661.665 202.818 660.972 205.162 658.097 207.045C655.379 208.816 652.868 207.958 652.623 204.753C652.357 201.254 650.836 197.592 653.195 194.174C653.774 193.332 653.44 192.334 652.979 191.474C650.722 187.277 653.758 185.36 657.317 184.672C657.923 184.554 658.578 184.71 659.198 184.735L659.356 184.881Z" fill="#F7F5F5"/>
<path d="M764.241 226.901C764.002 226.881 763.184 226.941 762.46 226.711C760.52 226.079 759.973 223.982 761.536 222.683C763.616 220.955 766.144 219.991 768.845 219.803C770.576 219.681 771.381 221.052 770.547 222.695C769.367 225.029 767.691 226.847 764.241 226.911L764.241 226.901Z" fill="#F7F5F5"/>
<path d="M730.303 226.344C728.527 226.039 726.198 225.727 723.91 225.212C722.967 225 722.23 224.17 722.23 223.159C722.235 222.033 723.26 221.641 724.157 221.426C726.699 220.815 729.167 221.523 731.601 222.098C732.765 222.369 734.164 223.041 733.89 224.625C733.616 226.209 732.127 226.16 730.312 226.343L730.303 226.344Z" fill="#F7F5F5"/>
</g>
<defs>
<filter id="filter0_ii_155_358" x="0" y="-1" width="1422" height="740.54" filterUnits="userSpaceOnUse" color-interpolation-filters="sRGB">
<feFlood flood-opacity="0" result="BackgroundImageFix"/>
<feBlend mode="normal" in="SourceGraphic" in2="BackgroundImageFix" result="shape"/>
<feColorMatrix in="SourceAlpha" type="matrix" values="0 0 0 0 0 0 0 0 0 0 0 0 0 0 0 0 0 0 127 0" result="hardAlpha"/>
<feOffset dy="-1"/>
<feGaussianBlur stdDeviation="1"/>
<feComposite in2="hardAlpha" operator="arithmetic" k2="-1" k3="1"/>
<feColorMatrix type="matrix" values="0 0 0 0 0.6375 0 0 0 0 0.62475 0 0 0 0 0.62475 0 0 0 0.3 0"/>
<feBlend mode="normal" in2="shape" result="effect1_innerShadow_155_358"/>
<feColorMatrix in="SourceAlpha" type="matrix" values="0 0 0 0 0 0 0 0 0 0 0 0 0 0 0 0 0 0 127 0" result="hardAlpha"/>
<feOffset dy="17"/>
<feGaussianBlur stdDeviation="25"/>
<feComposite in2="hardAlpha" operator="arithmetic" k2="-1" k3="1"/>
<feColorMatrix type="matrix" values="0 0 0 0 0.490196 0 0 0 0 0.713726 0 0 0 0 0.262745 0 0 0 0.1 0"/>
<feBlend mode="normal" in2="effect1_innerShadow_155_358" result="effect2_innerShadow_155_358"/>
</filter>
</defs>
</svg>
